<?xml version="1.0" encoding="UTF-8" standalone="no"?>
<!-- Created with Inkscape (http://www.inkscape.org/) -->

<svg
   width="210mm"
   height="297mm"
   viewBox="0 0 210 297"
   version="1.1"
   id="svg3314"
   inkscape:version="1.1 (c4e8f9e, 2021-05-24)"
   sodipodi:docname="background2.svg"
   xmlns:inkscape="http://www.inkscape.org/namespaces/inkscape"
   xmlns:sodipodi="http://sodipodi.sourceforge.net/DTD/sodipodi-0.dtd"
   xmlns="http://www.w3.org/2000/svg"
   xmlns:svg="http://www.w3.org/2000/svg">
  <sodipodi:namedview
     id="namedview3316"
     pagecolor="#ffffff"
     bordercolor="#666666"
     borderopacity="1.0"
     inkscape:pageshadow="2"
     inkscape:pageopacity="0.0"
     inkscape:pagecheckerboard="0"
     inkscape:document-units="mm"
     showgrid="false"
     inkscape:zoom="0.67081229"
     inkscape:cx="396.53418"
     inkscape:cy="679.77288"
     inkscape:window-width="1759"
     inkscape:window-height="1384"
     inkscape:window-x="2367"
     inkscape:window-y="0"
     inkscape:window-maximized="0"
     inkscape:current-layer="layer1" />
  <defs
     id="defs3311">
    <clipPath
       clipPathUnits="userSpaceOnUse"
       id="clipPath49">
      <path
         d="M 489.803,936.586 H 914.197 V 512.191 H 489.803 Z"
         id="path47" />
    </clipPath>
  </defs>
  <g
     inkscape:label="Layer 1"
     inkscape:groupmode="layer"
     id="layer1">
    <g
       id="g43"
       transform="matrix(0.35277777,0,0,-0.35277777,-142.53645,404.04819)">
      <g
         id="g45" />
      <g
         id="g57">
        <g
           clip-path="url(#clipPath49)"
           opacity="0.5"
           id="g55">
          <g
             transform="translate(880.5625,626.0996)"
             id="g53">
            <path
               d="m 0,0 -3.821,2.206 c 15.115,27.377 23.985,58.659 24.67,91.922 h 4.412 C 24.575,60.063 15.49,28.027 0,0 m -73.077,-76.096 -2.206,3.821 c 27.465,16.69 50.599,39.818 67.292,67.281 l 3.821,-2.207 c -17.081,-28.131 -40.774,-51.816 -68.907,-68.895 m -101.324,-29.438 v 4.412 c 33.26,0.685 64.542,9.561 91.92,24.673 l 2.206,-3.822 c -28.029,-15.487 -60.063,-24.578 -94.126,-25.263 m -25.424,28.051 c -3.404,3.628 -6.868,7.314 -10.514,10.334 4.547,2.133 9.073,5.416 13.509,8.641 6.468,4.704 13.156,9.57 18.265,9.572 4.771,0 11.254,-4.737 17.524,-9.317 4.627,-3.381 9.35,-6.824 14.127,-9 -3.599,-3 -7.022,-6.644 -10.385,-10.23 -6.965,-7.425 -14.166,-15.102 -21.264,-15.102 -7.097,0 -14.298,7.677 -21.262,15.102 m 17.101,-28.051 c -34.063,0.685 -66.097,9.776 -94.126,25.263 l 2.206,3.822 c 27.378,-15.112 58.66,-23.988 91.92,-24.673 z m -101.324,29.438 c -28.133,17.079 -51.826,40.764 -68.907,68.895 l 3.821,2.207 c 16.693,-27.463 39.827,-50.591 67.292,-67.281 z M -357.125,0 c -15.49,28.027 -24.575,60.063 -25.261,94.128 h 4.412 c 0.685,-33.263 9.555,-64.545 24.67,-91.922 z m 0,196.577 3.821,-2.206 c -15.115,-27.377 -23.985,-58.659 -24.67,-91.922 h -4.412 c 0.686,34.066 9.771,66.102 25.261,94.128 m 73.077,76.096 2.206,-3.82 c -27.464,-16.691 -50.598,-39.819 -67.291,-67.281 l -3.822,2.206 c 17.082,28.131 40.774,51.817 68.907,68.895 m 101.324,29.438 v -4.412 c -33.26,-0.684 -64.542,-9.56 -91.92,-24.673 l -2.206,3.822 c 28.029,15.487 60.063,24.578 94.126,25.263 m 25.425,-28.05 c 3.403,-3.628 6.866,-7.314 10.511,-10.333 -4.546,-2.134 -9.072,-5.416 -13.508,-8.643 -6.468,-4.704 -13.156,-9.568 -18.264,-9.571 -4.771,0 -11.254,4.736 -17.524,9.317 -4.627,3.38 -9.351,6.824 -14.127,8.999 3.599,3 7.022,6.645 10.385,10.231 6.965,7.424 14.166,15.101 21.263,15.101 7.098,0 14.299,-7.677 21.264,-15.101 m -17.102,28.05 c 34.063,-0.685 66.097,-9.776 94.126,-25.263 l -2.206,-3.822 c -27.378,15.113 -58.66,23.989 -91.92,24.673 z m 101.324,-29.438 c 28.133,-17.078 51.825,-40.764 68.907,-68.895 l -3.822,-2.206 c -16.693,27.462 -39.827,50.59 -67.291,67.281 z M -7.731,166.237 c 1.129,3.766 2.263,7.573 3.087,11.307 8.591,-18.776 14.226,-39.175 16.311,-60.599 -2.702,2.979 -5.747,5.845 -8.765,8.676 -6.203,5.818 -12.617,11.835 -14.133,17.511 -1.617,6.046 0.985,14.718 3.5,23.105 M -36.546,-7.748 c -4.96,-1.163 -10.004,-2.353 -14.55,-4.057 0.431,5.06 -0.167,10.684 -0.76,16.215 -0.845,7.862 -1.718,15.993 0.76,20.285 2.478,4.292 9.956,7.601 17.188,10.801 5.08,2.248 10.241,4.539 14.405,7.437 0.786,-4.909 2.304,-9.991 3.801,-14.984 2.853,-9.511 5.803,-19.347 2.465,-25.117 -3.425,-5.919 -13.533,-8.288 -23.309,-10.58 m -27.879,-37.881 c 1.946,8.3 3.962,16.867 8.131,21.239 0.073,0.071 0.15,0.133 0.223,0.205 0.056,0.057 0.102,0.121 0.158,0.178 4.364,4.188 12.951,6.207 21.267,8.157 3.884,0.911 7.806,1.838 11.508,3.006 -12.242,-17.071 -27.221,-32.051 -44.293,-44.293 1.168,3.701 2.095,7.624 3.006,11.508 m -7.523,24.692 c -3.533,0 -7.414,0.411 -11.523,0.844 -3.596,0.381 -7.289,0.754 -10.822,0.854 2.077,5.185 2.232,11.986 2.37,18.649 0.14,6.722 0.298,14.338 2.734,16.993 2.626,2.863 10.424,3.722 17.305,4.481 3.882,0.428 7.81,0.866 11.384,1.67 -1.05,-5.732 -0.337,-12.46 0.369,-19.033 0.942,-8.756 1.904,-17.796 -1.691,-21.664 -0.053,-0.05 -0.11,-0.096 -0.161,-0.148 -0.05,-0.05 -0.095,-0.106 -0.145,-0.156 -1.799,-1.669 -5.007,-2.49 -9.82,-2.49 m -36.276,-43.635 c -4.95,1.484 -10.012,2.987 -14.897,3.779 3.002,4.247 5.352,9.541 7.655,14.752 3.142,7.103 6.389,14.45 10.522,16.833 1.973,1.138 4.905,1.69 8.965,1.69 3.587,0 7.677,-0.432 11.634,-0.85 4.142,-0.437 8.425,-0.89 12.397,-0.89 1.073,0 2.258,0.031 3.498,0.131 -1.716,-4.559 -2.908,-9.622 -4.076,-14.602 -2.292,-9.775 -4.662,-19.884 -10.581,-23.308 -1.735,-1.004 -3.878,-1.491 -6.554,-1.491 -5.371,0 -12.077,2.01 -18.563,3.956 m -25.496,-4.47 c 1.248,0.333 2.679,0.502 4.255,0.502 5.505,0 12.29,-2.035 18.851,-4.003 3.751,-1.125 7.566,-2.26 11.31,-3.086 -18.778,-8.591 -39.177,-14.226 -60.602,-16.311 2.978,2.702 5.845,5.746 8.676,8.763 5.818,6.203 11.834,12.617 17.51,14.135 m -19.774,37.934 c 3.596,5.916 7.672,12.621 11.375,13.792 0.449,0.141 0.994,0.213 1.622,0.213 3.789,0 9.454,-2.501 14.934,-4.918 3.771,-1.665 7.617,-3.357 11.324,-4.477 -3.598,-4.343 -6.25,-10.327 -8.837,-16.179 -3.661,-8.282 -7.447,-16.847 -12.816,-18.285 -0.581,-0.156 -1.178,-0.232 -1.826,-0.232 -5.192,0 -11.914,4.911 -18.414,9.66 -2.777,2.028 -5.589,4.083 -8.418,5.853 4.237,3.377 7.686,9.029 11.056,14.573 m -32.289,3.407 c -3.879,5.3 -7.607,10.376 -11.901,13.366 2.486,2.159 4.956,4.844 7.489,7.596 3.599,3.912 9.039,9.824 11.627,9.825 2.359,0 7.628,-5.744 11.115,-9.544 4.288,-4.674 8.404,-9.146 12.729,-11.291 -2.071,-2.778 -3.99,-5.927 -5.88,-9.037 -3.663,-6.025 -8.219,-13.522 -11.906,-13.68 l -0.131,-0.003 c -3.797,0 -8.978,7.079 -13.142,12.768 m -33.805,-33.495 c -0.59,0 -1.132,0.069 -1.658,0.21 -5.151,1.385 -8.887,9.826 -12.499,17.989 -1.437,3.246 -2.894,6.531 -4.518,9.568 5.409,0.818 11.291,4.047 17.008,7.189 5.658,3.11 11.51,6.326 15.386,6.326 0.394,0 0.757,-0.036 1.078,-0.107 3.669,-0.813 8.251,-7.073 12.293,-12.595 2.363,-3.228 4.762,-6.491 7.31,-9.24 -5.583,-1.966 -11.126,-5.986 -16.537,-9.922 -6.366,-4.63 -12.949,-9.417 -17.863,-9.418 m -26.923,-11.347 c 6.561,1.968 13.346,4.003 18.851,4.003 1.576,0 3.007,-0.169 4.254,-0.502 5.676,-1.518 11.693,-7.932 17.511,-14.135 2.832,-3.017 5.698,-6.061 8.676,-8.763 -21.426,2.085 -41.825,7.72 -60.602,16.311 3.744,0.827 7.559,1.961 11.31,3.086 m -38.488,43.209 c 4.034,0 8.368,0.466 12.559,0.916 4.144,0.445 8.059,0.866 11.626,0.866 3.931,0 6.763,-0.532 8.659,-1.626 4.292,-2.478 7.6,-9.955 10.801,-17.186 2.249,-5.084 4.541,-10.248 7.44,-14.414 -4.912,-0.787 -10.007,-2.3 -14.988,-3.794 -6.486,-1.946 -13.192,-3.956 -18.562,-3.956 -2.676,0 -4.819,0.487 -6.555,1.491 -5.919,3.425 -8.288,13.533 -10.581,23.308 -1.162,4.957 -2.349,9.996 -4.05,14.537 1.296,-0.11 2.534,-0.142 3.651,-0.142 m -9.989,10.877 c -0.053,0.054 -0.101,0.112 -0.155,0.166 -0.05,0.051 -0.106,0.097 -0.158,0.146 -3.492,3.763 -2.556,12.692 -1.642,21.342 0.382,3.62 0.765,7.286 0.864,10.817 5.183,-2.074 11.98,-2.228 18.639,-2.366 6.72,-0.139 14.337,-0.297 16.992,-2.732 2.862,-2.626 3.721,-10.426 4.48,-17.307 0.428,-3.879 0.866,-7.803 1.668,-11.375 -1.929,0.354 -4.074,0.536 -6.514,0.536 -4.012,0 -8.334,-0.464 -12.514,-0.914 -3.974,-0.427 -8.083,-0.869 -11.671,-0.869 -4.944,0 -8.121,0.82 -9.989,2.556 m -27.491,2.607 c 8.321,-1.951 16.913,-3.971 21.274,-8.164 0.059,-0.061 0.108,-0.129 0.169,-0.189 0.067,-0.068 0.14,-0.126 0.209,-0.192 4.166,-4.374 6.181,-12.937 8.126,-21.233 0.911,-3.885 1.838,-7.807 3.007,-11.508 -17.073,12.241 -32.052,27.221 -44.293,44.293 3.701,-1.169 7.624,-2.095 11.508,-3.007 m -18.944,43.799 c 1.488,4.963 2.996,10.013 3.786,14.893 4.246,-3 9.536,-5.349 14.745,-7.651 7.104,-3.141 14.45,-6.388 16.832,-10.521 2.55,-4.422 1.681,-12.646 0.841,-20.599 -0.573,-5.422 -1.151,-10.934 -0.748,-15.899 -4.561,1.717 -9.629,2.911 -14.613,4.08 -9.775,2.292 -19.884,4.662 -23.308,10.581 -3.339,5.769 -0.388,15.605 2.465,25.116 m 20.843,176.376 c 4.961,1.163 10.005,2.352 14.55,4.056 -0.43,-5.06 0.167,-10.684 0.761,-16.215 0.844,-7.862 1.717,-15.992 -0.76,-20.284 -2.478,-4.292 -9.956,-7.601 -17.188,-10.801 -5.08,-2.248 -10.241,-4.539 -14.406,-7.436 -0.785,4.908 -2.303,9.989 -3.8,14.983 -2.853,9.512 -5.804,19.347 -2.465,25.116 3.424,5.919 13.533,8.289 23.308,10.581 m 27.879,37.881 c -1.946,-8.301 -3.962,-16.871 -8.133,-21.242 -0.072,-0.069 -0.148,-0.131 -0.22,-0.202 -0.056,-0.056 -0.101,-0.119 -0.156,-0.176 -4.363,-4.189 -12.952,-6.209 -21.27,-8.159 -3.883,-0.91 -7.806,-1.838 -11.507,-3.007 12.241,17.072 27.221,32.052 44.293,44.293 -1.168,-3.7 -2.096,-7.623 -3.007,-11.507 m 7.523,-24.692 c 3.534,0 7.415,-0.41 11.524,-0.844 3.596,-0.38 7.289,-0.753 10.821,-0.854 -2.076,-5.185 -2.231,-11.986 -2.369,-18.649 -0.14,-6.721 -0.298,-14.339 -2.734,-16.993 -2.626,-2.861 -10.424,-3.722 -17.306,-4.481 -3.882,-0.427 -7.809,-0.867 -11.383,-1.67 1.049,5.732 0.336,12.458 -0.37,19.032 -0.941,8.757 -1.903,17.797 1.691,21.665 0.053,0.051 0.111,0.097 0.161,0.148 0.051,0.051 0.096,0.106 0.146,0.156 1.799,1.67 5.007,2.49 9.819,2.49 m 36.276,43.635 c 4.95,-1.484 10.013,-2.987 14.898,-3.778 -3.002,-4.247 -5.351,-9.541 -7.656,-14.752 -3.141,-7.104 -6.388,-14.451 -10.522,-16.834 -1.972,-1.138 -4.904,-1.69 -8.963,-1.69 -3.587,0 -7.678,0.432 -11.635,0.85 -4.142,0.438 -8.425,0.89 -12.398,0.89 -1.072,0 -2.257,-0.031 -3.497,-0.131 1.715,4.56 2.908,9.622 4.076,14.603 2.292,9.775 4.662,19.883 10.58,23.307 1.736,1.004 3.879,1.492 6.556,1.492 5.37,0 12.075,-2.011 18.561,-3.957 m 25.495,4.47 c -1.246,-0.333 -2.677,-0.502 -4.253,-0.502 -5.506,0 -12.29,2.035 -18.851,4.003 -3.751,1.125 -7.566,2.26 -11.31,3.086 18.777,8.592 39.176,14.228 60.601,16.313 -2.977,-2.704 -5.844,-5.748 -8.675,-8.765 -5.818,-6.203 -11.835,-12.617 -17.512,-14.135 m 19.776,-37.933 c -3.596,-5.915 -7.671,-12.621 -11.375,-13.791 -0.448,-0.142 -0.994,-0.214 -1.621,-0.214 -3.789,0 -9.455,2.5 -14.935,4.918 -3.771,1.664 -7.617,3.357 -11.325,4.476 3.598,4.344 6.251,10.327 8.838,16.179 3.661,8.283 7.448,16.848 12.815,18.286 0.582,0.155 1.179,0.231 1.827,0.231 5.192,0 11.914,-4.911 18.414,-9.66 2.776,-2.028 5.59,-4.082 8.419,-5.853 -4.237,-3.376 -7.687,-9.028 -11.057,-14.572 m 32.289,-3.408 c 3.879,-5.299 7.606,-10.376 11.9,-13.366 -2.485,-2.16 -4.956,-4.844 -7.489,-7.596 -3.598,-3.912 -9.038,-9.823 -11.626,-9.825 -2.359,0 -7.629,5.744 -11.116,9.545 -4.287,4.673 -8.403,9.145 -12.729,11.289 2.072,2.779 3.992,5.928 5.882,9.039 3.662,6.025 8.219,13.522 11.906,13.679 l 0.13,0.003 c 3.796,0 8.978,-7.079 13.142,-12.768 m 33.805,33.496 c 0.59,0 1.133,-0.069 1.658,-0.211 5.152,-1.385 8.887,-9.826 12.499,-17.988 1.437,-3.246 2.894,-6.532 4.518,-9.568 -5.409,-0.819 -11.292,-4.048 -17.008,-7.19 -5.659,-3.11 -11.511,-6.327 -15.386,-6.327 -0.394,0 -0.757,0.036 -1.078,0.108 -3.67,0.813 -8.251,7.072 -12.293,12.594 -2.363,3.229 -4.762,6.493 -7.31,9.243 5.583,1.965 11.125,5.985 16.536,9.919 6.366,4.631 12.949,9.42 17.864,9.42 m 26.923,11.346 c -6.562,-1.968 -13.347,-4.003 -18.851,-4.003 -1.576,0 -3.007,0.169 -4.255,0.502 -5.676,1.518 -11.692,7.932 -17.51,14.135 -2.831,3.017 -5.698,6.061 -8.676,8.765 21.425,-2.085 41.824,-7.721 60.601,-16.313 -3.743,-0.826 -7.559,-1.961 -11.309,-3.086 m 38.488,-43.21 c -4.033,0 -8.367,-0.466 -12.559,-0.916 -4.144,-0.444 -8.058,-0.865 -11.625,-0.865 -3.931,0 -6.764,0.532 -8.659,1.626 -4.292,2.477 -7.601,9.956 -10.802,17.187 -2.249,5.083 -4.541,10.248 -7.44,14.414 4.912,0.788 10.007,2.299 14.987,3.793 6.486,1.946 13.192,3.957 18.563,3.957 2.676,0 4.819,-0.488 6.555,-1.492 5.918,-3.424 8.288,-13.532 10.581,-23.307 1.161,-4.957 2.348,-9.996 4.05,-14.538 -1.296,0.109 -2.534,0.141 -3.651,0.141 m 9.994,-10.88 c 0.052,-0.052 0.098,-0.11 0.15,-0.162 0.049,-0.05 0.104,-0.094 0.155,-0.142 3.496,-3.761 2.559,-12.693 1.645,-21.346 -0.381,-3.62 -0.765,-7.288 -0.864,-10.817 -5.183,2.073 -11.979,2.227 -18.639,2.365 -6.72,0.139 -14.337,0.298 -16.992,2.733 -2.862,2.626 -3.722,10.425 -4.48,17.307 -0.428,3.878 -0.866,7.803 -1.669,11.375 1.93,-0.354 4.075,-0.535 6.516,-0.535 4.012,0 8.334,0.463 12.514,0.913 3.974,0.426 8.082,0.868 11.67,0.868 4.948,0 8.126,-0.82 9.994,-2.559 m 27.487,-2.603 c -8.324,1.951 -16.919,3.973 -21.28,8.168 -0.057,0.06 -0.104,0.126 -0.164,0.184 -0.065,0.066 -0.137,0.122 -0.203,0.187 -4.17,4.372 -6.186,12.94 -8.132,21.24 -0.911,3.883 -1.838,7.806 -3.007,11.507 17.072,-12.241 32.051,-27.221 44.293,-44.293 -3.701,1.169 -7.623,2.096 -11.507,3.007 m 15.157,-58.692 c -4.245,2.999 -9.536,5.348 -14.744,7.651 -7.105,3.14 -14.451,6.387 -16.833,10.52 -2.549,4.422 -1.681,12.647 -0.84,20.599 0.572,5.423 1.151,10.935 0.747,15.9 4.561,-1.717 9.63,-2.912 14.613,-4.08 9.776,-2.292 19.884,-4.662 23.308,-10.581 3.338,-5.769 0.388,-15.604 -2.465,-25.116 -1.488,-4.963 -2.996,-10.013 -3.786,-14.893 m -29.677,-30.379 c -5.916,3.597 -12.622,7.672 -13.792,11.375 -1.085,3.436 1.99,10.406 4.705,16.556 1.671,3.787 3.355,7.625 4.474,11.327 4.342,-3.598 10.329,-6.252 16.181,-8.84 8.283,-3.661 16.848,-7.447 18.286,-12.814 1.438,-5.368 -4.086,-12.929 -9.428,-20.241 -2.03,-2.777 -4.082,-5.59 -5.854,-8.418 -3.377,4.237 -9.028,7.685 -14.572,11.055 M -60.254,72.061 c 0.814,3.668 7.073,8.25 12.596,12.292 3.228,2.363 6.493,4.761 9.241,7.309 1.967,-5.583 5.986,-11.125 9.921,-16.535 5.189,-7.135 10.556,-14.513 9.208,-19.522 -1.385,-5.152 -9.825,-8.887 -17.988,-12.5 -3.249,-1.437 -6.538,-2.895 -9.578,-4.522 -0.82,5.416 -4.027,11.276 -7.179,17.013 -3.297,5.998 -7.034,12.795 -6.221,16.465 M -96.167,50.629 c 0.011,0.018 0.023,0.033 0.034,0.052 0.013,0.022 0.02,0.046 0.032,0.068 1.331,2.128 8.994,3.835 14.082,4.967 6.076,1.351 11.929,2.66 15.887,5.23 1.335,-3.033 3.047,-6.16 4.806,-9.359 3.438,-6.255 7.718,-14.04 5.96,-17.424 -1.7,-3.274 -10.422,-4.236 -17.429,-5.008 -6.338,-0.699 -12.823,-1.423 -17.723,-3.731 -0.636,3.31 -1.754,6.885 -2.904,10.541 -1.56,4.964 -3.907,12.432 -2.745,14.664 m -8.183,19.314 c -2.598,3.133 -6.868,8.28 -7.31,10.376 1.445,1.507 7.476,3.736 11.151,5.092 4.346,1.606 8.568,3.169 11.735,5.126 2.377,-3.349 5.929,-6.623 9.605,-10.005 3.31,-3.045 10.196,-9.381 9.636,-11.465 -0.586,-2.178 -9.503,-4.163 -14.292,-5.228 -4.819,-1.071 -9.481,-2.112 -13.172,-3.791 -1.71,3.081 -4.431,6.373 -7.353,9.895 m 3.65,-51.854 c -3.203,0 -8.076,1.525 -12.788,3.001 -4.614,1.443 -9.358,2.923 -13.498,3.311 0.072,3.577 -0.657,7.862 -1.445,12.457 -0.675,3.938 -1.785,10.4 -1.168,12.442 0.301,0.078 0.905,0.18 1.983,0.18 2.766,0 6.689,-0.672 10.484,-1.324 4.151,-0.712 8.442,-1.448 11.937,-1.448 0.15,0 0.336,0.001 0.536,0.004 0.4,-4.022 1.825,-8.558 3.299,-13.243 1.472,-4.682 4.213,-13.395 2.617,-14.992 -0.179,-0.179 -0.798,-0.388 -1.957,-0.388 M -135.811,2.02 c 1.12,5.036 2.812,12.646 4.856,13.824 0.178,0.102 0.726,0.341 1.989,0.341 3.29,0 8.222,-1.543 12.991,-3.037 5.31,-1.663 10.799,-3.381 15.275,-3.381 0.324,0 0.637,0.017 0.948,0.035 -0.34,-3.206 -0.416,-6.672 -0.49,-10.219 -0.151,-7.246 -0.338,-16.264 -3.709,-18.411 -0.681,-0.434 -1.571,-0.645 -2.723,-0.645 -4.053,0 -9.887,2.575 -15.53,5.065 -5.856,2.584 -11.419,5.034 -16.49,5.53 1.192,3.332 2.047,7.137 2.883,10.898 m -9.094,28.459 c -4.005,3.323 -7.642,6.334 -11.047,7.971 0.397,3.218 0.18,7.347 -0.081,12.103 -0.147,2.686 -0.365,6.691 -0.245,9.238 2.34,-1.182 5.849,-3.472 8.196,-5.001 4.164,-2.716 7.391,-4.774 10.069,-5.938 -0.269,-3.744 0.516,-8.367 1.38,-13.402 0.626,-3.65 1.622,-9.454 1.285,-11.957 -2.306,0.972 -6.756,4.662 -9.557,6.986 m -20.782,-10.245 c 1.358,3.675 3.586,9.706 5.092,11.152 2.097,-0.442 7.244,-4.712 10.377,-7.311 3.586,-2.975 6.875,-5.697 9.957,-7.385 -1.616,-3.616 -2.628,-8.166 -3.673,-12.864 -1.083,-4.868 -3.097,-13.93 -5.419,-14.552 -0.064,-0.017 -0.134,-0.026 -0.215,-0.026 -2.653,0 -8.129,5.969 -11.753,9.919 -3.228,3.519 -6.356,6.926 -9.539,9.249 1.98,3.176 3.555,7.436 5.173,11.818 m -23.307,14.913 c 1.843,2.462 3.63,5.986 5.783,10.231 1.267,2.497 3.162,6.234 4.597,8.429 1.379,-2.146 3.191,-5.723 4.407,-8.123 2.245,-4.432 4.101,-8.086 6.026,-10.608 -2.016,-3.053 -3.598,-7.319 -5.311,-11.958 -1.335,-3.614 -3.473,-9.403 -5.071,-11.303 -1.597,1.899 -3.736,7.689 -5.071,11.303 -1.726,4.676 -3.319,8.972 -5.36,12.029 m -27.81,-18.421 c 3.065,1.69 6.333,4.395 9.897,7.35 3.135,2.6 8.285,6.872 10.375,7.311 1.507,-1.444 3.735,-7.477 5.093,-11.152 1.605,-4.345 3.168,-8.568 5.125,-11.735 -3.349,-2.376 -6.624,-5.93 -10.004,-9.604 -3.536,-3.844 -8.88,-9.652 -11.331,-9.652 -0.07,0 -0.11,0.008 -0.133,0.015 -2.181,0.586 -4.164,9.503 -5.23,14.293 -1.072,4.819 -2.113,9.482 -3.792,13.174 m -24.083,-3.579 c 4.737,1.491 9.635,3.031 12.863,3.031 1.027,0 1.546,-0.161 1.778,-0.267 0.026,-0.015 0.048,-0.036 0.075,-0.052 0.023,-0.012 0.047,-0.021 0.069,-0.034 2.128,-1.333 3.835,-8.993 4.967,-14.081 1.353,-6.079 2.663,-11.937 5.238,-15.896 -3.101,-1.357 -6.259,-3.087 -9.367,-4.795 -5.69,-3.128 -11.573,-6.363 -15.501,-6.363 -0.773,0 -1.402,0.132 -1.923,0.403 -3.275,1.7 -4.236,10.421 -5.008,17.428 -0.7,6.343 -1.425,12.835 -3.738,17.736 3.369,0.642 6.996,1.773 10.547,2.89 m -14.875,20.068 c 1.495,4.775 2.938,9.397 3.318,13.492 0.19,-10e-4 0.368,0 0.514,10e-4 3.494,0.001 7.786,0.737 11.936,1.449 3.795,0.651 7.719,1.324 10.485,1.324 1.078,0 1.681,-0.102 1.983,-0.18 0.616,-2.042 -0.493,-8.504 -1.169,-12.443 -0.79,-4.606 -1.521,-8.902 -1.445,-12.483 -4.06,-0.411 -8.714,-1.864 -13.243,-3.289 -4.757,-1.496 -9.675,-3.043 -12.934,-3.043 -1.203,0 -1.851,0.22 -2.057,0.426 -1.527,1.523 1.269,10.454 2.612,14.746 m -17.262,30.445 c -4.869,1.082 -13.931,3.098 -14.552,5.418 -0.622,2.32 6.219,8.597 9.892,11.969 3.52,3.227 6.926,6.356 9.249,9.539 3.175,-1.981 7.435,-3.556 11.818,-5.174 3.675,-1.357 9.707,-3.586 11.151,-5.092 -0.441,-2.096 -4.711,-7.244 -7.309,-10.377 -2.943,-3.546 -5.68,-6.857 -7.387,-9.955 -3.617,1.616 -8.166,2.628 -12.862,3.672 m -34.936,9.56 c 5.916,-3.596 12.622,-7.671 13.792,-11.375 1.085,-3.435 -1.99,-10.406 -4.705,-16.556 -1.671,-3.787 -3.356,-7.624 -4.473,-11.326 -4.343,3.598 -10.329,6.251 -16.181,8.839 -8.284,3.662 -16.848,7.447 -18.286,12.815 -1.439,5.367 4.085,12.929 9.427,20.241 2.03,2.777 4.083,5.589 5.855,8.417 3.376,-4.236 9.027,-7.686 14.571,-11.055 m 11.088,51.297 c -0.813,-3.669 -7.072,-8.251 -12.595,-12.293 -3.229,-2.364 -6.493,-4.762 -9.241,-7.309 -1.967,5.582 -5.986,11.124 -9.921,16.534 -5.189,7.135 -10.556,14.513 -9.209,19.523 1.386,5.152 9.826,8.887 17.988,12.5 3.25,1.437 6.539,2.895 9.579,4.521 0.82,-5.415 4.027,-11.276 7.179,-17.013 3.297,-5.997 7.033,-12.794 6.22,-16.463 m 35.912,21.429 c -0.01,-0.017 -0.021,-0.032 -0.032,-0.05 -0.013,-0.021 -0.02,-0.043 -0.032,-0.066 -1.328,-2.129 -8.993,-3.836 -14.083,-4.969 -6.075,-1.351 -11.928,-2.66 -15.886,-5.23 -1.335,3.033 -3.048,6.16 -4.806,9.359 -3.438,6.255 -7.718,14.039 -5.96,17.424 1.7,3.274 10.421,4.235 17.428,5.008 6.339,0.699 12.824,1.424 17.723,3.731 0.636,-3.31 1.754,-6.883 2.904,-10.54 1.561,-4.966 3.909,-12.436 2.744,-14.667 m -12.805,-47.651 c 0.002,-2.357 -5.743,-7.629 -9.545,-11.116 -4.497,-4.127 -9.078,-8.344 -11.276,-12.741 -2.782,2.076 -5.936,3.999 -9.052,5.893 -6.024,3.661 -13.521,8.218 -13.678,11.904 -0.163,3.811 7.004,9.058 12.764,13.274 5.299,3.879 10.374,7.605 13.365,11.898 2.165,-2.483 4.849,-4.958 7.597,-7.486 3.912,-3.6 9.823,-9.038 9.825,-11.626 m 20.99,28.339 c 2.598,-3.133 6.868,-8.28 7.309,-10.377 -1.444,-1.506 -7.475,-3.735 -11.15,-5.091 -4.346,-1.605 -8.569,-3.169 -11.735,-5.126 -2.376,3.349 -5.929,6.623 -9.604,10.005 -3.311,3.044 -10.197,9.381 -9.637,11.465 0.586,2.178 9.502,4.163 14.292,5.228 4.818,1.073 9.481,2.113 13.172,3.791 1.71,-3.081 4.431,-6.372 7.353,-9.895 m -3.652,51.855 c 3.204,0 8.077,-1.526 12.79,-3.002 4.613,-1.443 9.358,-2.923 13.498,-3.311 -0.072,-3.575 0.657,-7.862 1.445,-12.456 0.675,-3.939 1.784,-10.401 1.168,-12.443 -0.301,-0.078 -0.905,-0.18 -1.982,-0.18 -2.766,0 -6.691,0.674 -10.485,1.324 -4.151,0.712 -8.443,1.449 -11.938,1.449 -0.149,0 -0.336,-0.001 -0.536,-0.005 -0.4,4.022 -1.825,8.559 -3.299,13.244 -1.471,4.681 -4.212,13.394 -2.618,14.992 0.179,0.178 0.799,0.388 1.957,0.388 m 35.113,16.069 c -1.121,-5.037 -2.812,-12.647 -4.855,-13.825 -0.179,-0.102 -0.728,-0.34 -1.99,-0.34 -3.291,0 -8.223,1.544 -12.991,3.037 -5.31,1.662 -10.801,3.381 -15.277,3.381 -0.324,0 -0.636,-0.017 -0.946,-0.035 0.341,3.205 0.417,6.671 0.49,10.218 0.151,7.246 0.338,16.265 3.708,18.412 0.681,0.434 1.572,0.645 2.724,0.645 4.052,0 9.887,-2.575 15.53,-5.066 5.856,-2.584 11.419,-5.033 16.49,-5.53 -1.193,-3.332 -2.047,-7.137 -2.883,-10.897 m 9.094,-28.46 c 4.003,-3.322 7.642,-6.332 11.046,-7.97 -0.397,-3.219 -0.179,-7.348 0.081,-12.104 0.148,-2.686 0.366,-6.691 0.245,-9.238 -2.34,1.183 -5.85,3.472 -8.196,5.002 -4.164,2.715 -7.391,4.774 -10.068,5.938 0.269,3.742 -0.517,8.366 -1.38,13.401 -0.626,3.65 -1.622,9.453 -1.286,11.956 2.307,-0.972 6.757,-4.662 9.558,-6.985 m 20.782,10.245 c -1.358,-3.675 -3.586,-9.706 -5.092,-11.151 -2.097,0.442 -7.244,4.711 -10.377,7.31 -3.587,2.976 -6.875,5.697 -9.957,7.384 1.616,3.617 2.628,8.168 3.673,12.865 1.083,4.868 3.097,13.931 5.418,14.553 0.064,0.016 0.135,0.025 0.215,0.025 2.653,0 8.129,-5.97 11.753,-9.919 3.229,-3.518 6.357,-6.926 9.54,-9.249 -1.981,-3.175 -3.555,-7.435 -5.173,-11.818 m 23.306,-14.912 c -1.842,-2.462 -3.63,-5.987 -5.782,-10.231 -1.268,-2.499 -3.163,-6.235 -4.598,-8.429 -1.379,2.146 -3.191,5.723 -4.407,8.124 -2.244,4.43 -4.101,8.084 -6.026,10.606 2.017,3.053 3.598,7.319 5.312,11.959 1.335,3.613 3.473,9.403 5.07,11.302 1.598,-1.899 3.737,-7.689 5.072,-11.303 1.726,-4.675 3.319,-8.971 5.359,-12.028 m 27.811,18.421 c -3.066,-1.69 -6.334,-4.395 -9.898,-7.351 -3.135,-2.6 -8.285,-6.872 -10.374,-7.31 -1.507,1.444 -3.735,7.476 -5.093,11.152 -1.605,4.345 -3.168,8.568 -5.125,11.735 3.349,2.376 6.623,5.929 10.004,9.604 3.536,3.842 8.881,9.651 11.331,9.651 0.07,0 0.11,-0.009 0.134,-0.015 2.18,-0.587 4.164,-9.502 5.23,-14.292 1.072,-4.819 2.112,-9.482 3.791,-13.174 m 24.082,3.578 c -4.737,-1.491 -9.634,-3.031 -12.862,-3.031 -1.028,0 -1.547,0.162 -1.778,0.267 -0.027,0.016 -0.049,0.036 -0.076,0.052 -0.023,0.012 -0.046,0.021 -0.068,0.034 -2.128,1.332 -3.835,8.993 -4.966,14.081 -1.353,6.08 -2.663,11.938 -5.239,15.896 3.101,1.357 6.258,3.087 9.367,4.795 5.689,3.128 11.573,6.363 15.5,6.363 0.774,0 1.403,-0.132 1.924,-0.403 3.275,-1.7 4.236,-10.421 5.008,-17.428 0.7,-6.344 1.425,-12.835 3.738,-17.737 -3.369,-0.641 -6.996,-1.772 -10.548,-2.889 m 14.876,-20.069 c -1.496,-4.777 -2.939,-9.401 -3.318,-13.497 -0.192,0.003 -0.37,0.004 -0.513,0.004 -3.496,0 -7.787,-0.736 -11.938,-1.448 -3.794,-0.65 -7.717,-1.323 -10.483,-1.323 -1.078,0 -1.682,0.102 -1.984,0.18 -0.616,2.041 0.493,8.504 1.169,12.443 0.79,4.605 1.521,8.901 1.445,12.482 4.06,0.41 8.714,1.865 13.242,3.289 4.757,1.496 9.676,3.042 12.935,3.042 1.203,0 1.851,-0.219 2.058,-0.425 1.526,-1.523 -1.27,-10.454 -2.613,-14.747 m -24.29,-69.721 c -2.497,1.266 -6.234,3.162 -8.428,4.597 2.145,1.378 5.723,3.191 8.123,4.407 4.289,2.172 8.002,4.063 10.594,6.036 3.053,-2.022 7.326,-3.605 11.972,-5.322 3.614,-1.335 9.404,-3.472 11.302,-5.07 -1.898,-1.598 -7.688,-3.736 -11.302,-5.07 -4.685,-1.731 -8.989,-3.327 -12.047,-5.373 -2.53,1.889 -6.102,3.71 -10.214,5.795 m -14.396,-17.596 c 0.538,0.032 1.205,0.054 2.028,0.054 2.195,0 4.851,-0.147 7.418,-0.288 2.687,-0.148 5.464,-0.301 7.899,-0.301 1.106,0 2.528,0.003 3.982,0.175 1.646,-3.42 4.668,-7.076 7.967,-11.053 2.314,-2.789 5.981,-7.21 6.973,-9.527 -0.342,-0.042 -0.803,-0.075 -1.413,-0.075 -2.786,0 -6.723,0.676 -10.53,1.328 -4.137,0.711 -8.417,1.445 -11.891,1.445 -0.456,0 -0.959,-0.018 -1.478,-0.051 -1.258,2.933 -3.469,6.333 -6.022,10.24 -1.505,2.304 -3.752,5.744 -4.933,8.053 m -6.143,-6.1 c 1.138,-1.953 2.541,-4.104 4.109,-6.504 0.824,-1.261 1.868,-2.861 2.841,-4.43 -1.525,0.944 -3.071,1.953 -4.295,2.751 -2.531,1.65 -4.721,3.061 -6.654,4.181 1.419,1.246 2.753,2.583 3.999,4.002 m 4.157,63.369 c -1.601,-2.454 -3.032,-4.652 -4.188,-6.645 -1.247,1.418 -2.584,2.753 -4.004,3.997 1.896,1.106 4.039,2.487 6.511,4.103 1.265,0.826 2.868,1.874 4.437,2.847 -0.947,-1.527 -1.957,-3.076 -2.756,-4.302 m 11.208,-12.495 c -2.541,-0.139 -5.169,-0.283 -7.331,-0.283 h -0.002 c -0.764,0 -1.39,0.019 -1.902,0.048 1.185,2.339 3.469,5.843 4.998,8.185 2.499,3.833 4.67,7.174 5.92,10.061 0.539,-0.037 1.058,-0.054 1.529,-0.054 3.474,0 7.753,0.734 11.89,1.444 3.807,0.652 7.744,1.328 10.531,1.328 0.61,0 1.071,-0.032 1.413,-0.075 -0.992,-2.317 -4.659,-6.738 -6.973,-9.527 -3.29,-3.966 -6.305,-7.612 -7.953,-11.024 -1.53,0.191 -3.034,0.196 -4.198,0.196 -2.452,0 -5.233,-0.151 -7.922,-0.299 m 1.41,-34.599 c 1.307,-0.663 2.958,-1.501 4.543,-2.351 -1.68,0.053 -3.496,0.153 -5.271,0.25 -2.605,0.144 -5.293,0.29 -7.668,0.298 0.604,1.769 1.103,3.586 1.474,5.448 1.991,-1.142 4.32,-2.326 6.922,-3.645 m -8.415,26 c 2.313,0.011 4.923,0.152 7.46,0.29 1.982,0.108 4.017,0.22 5.863,0.265 -1.786,-0.973 -3.718,-1.952 -5.21,-2.708 -2.472,-1.252 -4.689,-2.378 -6.599,-3.465 -0.378,1.922 -0.889,3.795 -1.514,5.618 m -18.154,45.891 c 3.414,1.633 7.062,4.654 11.08,7.986 2.805,2.327 7.262,6.024 9.559,6.99 0.338,-2.501 -0.659,-8.308 -1.285,-11.959 -0.86,-5.014 -1.643,-9.62 -1.385,-13.355 -2.722,-1.168 -6.002,-3.262 -10.25,-6.037 -2.32,-1.516 -5.794,-3.785 -8.061,-4.956 -0.135,2.588 0.092,6.712 0.244,9.471 0.256,4.65 0.472,8.694 0.098,11.86 m -14.154,-17.598 c 1.143,1.992 2.327,4.321 3.647,6.923 0.661,1.303 1.497,2.951 2.345,4.532 -0.057,-1.846 -0.163,-3.754 -0.246,-5.259 -0.156,-2.853 -0.294,-5.409 -0.305,-7.666 -1.767,0.603 -3.58,1.1 -5.441,1.47 m -22.903,11.82 c 0.971,-1.783 1.946,-3.709 2.7,-5.198 1.254,-2.473 2.381,-4.691 3.468,-6.602 -1.919,-0.377 -3.791,-0.886 -5.61,-1.511 -0.014,2.202 -0.147,4.687 -0.299,7.458 -0.091,1.667 -0.209,3.823 -0.259,5.853 m -45.375,-76.678 c 1.519,-0.189 3.011,-0.195 4.171,-0.195 h 0.023 c 2.453,10e-4 5.235,0.152 7.925,0.3 2.543,0.138 5.172,0.283 7.334,0.283 0.764,0 1.389,-0.019 1.9,-0.047 -1.184,-2.34 -3.468,-5.843 -4.996,-8.185 -2.5,-3.833 -4.67,-7.174 -5.92,-10.062 -0.539,0.037 -1.057,0.055 -1.528,0.055 -3.474,0 -7.754,-0.735 -11.892,-1.445 -3.807,-0.652 -7.744,-1.328 -10.53,-1.329 -0.61,0 -1.071,0.034 -1.412,0.075 0.992,2.317 4.659,6.738 6.973,9.527 3.289,3.966 6.303,7.611 7.952,11.023 m 6.944,27.283 c 2.498,-1.267 6.235,-3.163 8.429,-4.597 -2.146,-1.379 -5.724,-3.192 -8.124,-4.407 -4.288,-2.173 -8.002,-4.063 -10.593,-6.036 -3.053,2.021 -7.326,3.605 -11.971,5.321 -3.615,1.335 -9.405,3.472 -11.303,5.07 1.898,1.598 7.689,3.736 11.303,5.071 4.684,1.731 8.988,3.328 12.046,5.372 2.53,-1.888 6.102,-3.709 10.213,-5.794 m 3.765,7.421 c -1.307,0.663 -2.959,1.5 -4.543,2.351 1.68,-0.053 3.495,-0.152 5.271,-0.25 2.605,-0.144 5.293,-0.29 7.668,-0.298 -0.604,-1.769 -1.102,-3.586 -1.473,-5.45 -1.992,1.143 -4.321,2.327 -6.923,3.647 m 8.416,-25.999 c -2.313,-0.012 -4.925,-0.152 -7.461,-0.291 -1.982,-0.109 -4.017,-0.22 -5.862,-0.265 1.786,0.972 3.716,1.95 5.209,2.707 2.472,1.253 4.689,2.379 6.6,3.467 0.378,-1.922 0.888,-3.796 1.514,-5.618 m 2.216,36.174 c -0.538,-0.032 -1.205,-0.054 -2.028,-0.054 -2.196,0 -4.851,0.147 -7.419,0.289 -2.687,0.147 -5.463,0.3 -7.898,0.3 -1.107,0 -2.527,-0.003 -3.981,-0.174 -1.647,3.419 -4.668,7.075 -7.967,11.052 -2.314,2.789 -5.981,7.211 -6.973,9.527 0.342,0.043 0.802,0.075 1.412,0.075 2.786,0 6.724,-0.675 10.531,-1.328 4.137,-0.71 8.417,-1.445 11.892,-1.445 0.455,0 0.957,0.017 1.477,0.051 1.258,-2.932 3.469,-6.333 6.021,-10.24 1.505,-2.304 3.752,-5.744 4.933,-8.053 m 6.175,-50.623 c 1.246,-1.419 2.583,-2.753 4.004,-3.998 -1.897,-1.104 -4.04,-2.487 -6.513,-4.102 -1.264,-0.827 -2.868,-1.874 -4.436,-2.849 0.947,1.527 1.957,3.077 2.756,4.304 1.602,2.454 3.032,4.653 4.189,6.645 m -6.982,67.658 c 1.525,-0.944 3.071,-1.953 4.294,-2.751 2.532,-1.651 4.722,-3.062 6.656,-4.182 -1.419,-1.246 -2.754,-2.583 -4,-4.003 -1.138,1.954 -2.542,4.105 -4.109,6.505 -0.823,1.261 -1.868,2.86 -2.841,4.431 m 16.744,-99.1 c -3.414,-1.634 -7.062,-4.655 -11.08,-7.987 -2.804,-2.327 -7.261,-6.023 -9.558,-6.99 -0.338,2.502 0.658,8.308 1.285,11.96 0.86,5.013 1.643,9.619 1.385,13.354 2.722,1.169 6.001,3.263 10.248,6.038 2.321,1.515 5.796,3.785 8.062,4.956 0.136,-2.588 -0.092,-6.713 -0.243,-9.472 -0.256,-4.65 -0.472,-8.693 -0.099,-11.859 m 14.154,17.597 c -1.144,-1.991 -2.327,-4.321 -3.647,-6.922 -0.661,-1.304 -1.496,-2.951 -2.345,-4.532 0.057,1.846 0.163,3.754 0.246,5.258 0.157,2.854 0.295,5.41 0.306,7.667 1.766,-0.603 3.58,-1.1 5.44,-1.471 m 22.904,-11.821 c -0.972,1.783 -1.947,3.71 -2.702,5.199 -1.252,2.473 -2.379,4.691 -3.467,6.602 1.92,0.378 3.791,0.887 5.61,1.511 0.014,-2.202 0.148,-4.687 0.299,-7.457 0.092,-1.668 0.209,-3.825 0.26,-5.855 m -14.481,19.31 c -19.153,0 -34.735,15.582 -34.735,34.735 0,19.152 15.582,34.734 34.735,34.734 19.154,0 34.735,-15.582 34.735,-34.734 0,-19.153 -15.581,-34.735 -34.735,-34.735 m 94.462,69.363 c 4.87,-1.083 13.931,-3.098 14.553,-5.418 0.621,-2.32 -6.219,-8.597 -9.893,-11.969 -3.519,-3.228 -6.927,-6.357 -9.249,-9.54 -3.176,1.982 -7.436,3.556 -11.818,5.175 -3.675,1.356 -9.707,3.585 -11.151,5.091 0.441,2.097 4.711,7.244 7.31,10.377 2.942,3.547 5.679,6.858 7.387,9.956 3.615,-1.615 8.165,-2.628 12.861,-3.672 m 21.562,-10.779 c 2.782,-2.076 5.935,-3.999 9.052,-5.893 6.024,-3.661 13.521,-8.218 13.678,-11.903 0.163,-3.812 -7.004,-9.059 -12.765,-13.275 -5.298,-3.878 -10.373,-7.605 -13.364,-11.898 -2.165,2.483 -4.849,4.958 -7.597,7.487 -3.912,3.599 -9.823,9.038 -9.825,11.625 -0.001,2.359 5.744,7.63 9.545,11.118 4.496,4.125 9.078,8.343 11.276,12.739 m -27.52,54.96 c 3.203,-0.339 6.662,-0.415 10.203,-0.49 7.246,-0.15 16.263,-0.337 18.411,-3.708 2.147,-3.371 -1.494,-11.623 -4.421,-18.254 -2.573,-5.832 -5.035,-11.431 -5.531,-16.489 -3.332,1.193 -7.136,2.046 -10.897,2.883 -5.036,1.12 -12.646,2.813 -13.824,4.856 -1.292,2.241 1.108,9.907 2.696,14.979 1.842,5.885 3.611,11.559 3.363,16.223 M -267.066,19.479 c -3.202,0.339 -6.662,0.416 -10.202,0.489 -7.246,0.15 -16.264,0.338 -18.412,3.709 -2.147,3.37 1.494,11.622 4.42,18.253 2.574,5.832 5.036,11.431 5.532,16.49 3.332,-1.193 7.137,-2.047 10.897,-2.884 5.036,-1.119 12.646,-2.811 13.824,-4.854 1.292,-2.242 -1.108,-9.908 -2.696,-14.981 -1.842,-5.885 -3.611,-11.558 -3.363,-16.222 m -101.726,97.466 c 2.085,21.424 7.72,41.823 16.311,60.599 0.824,-3.734 1.958,-7.541 3.087,-11.307 2.515,-8.387 5.117,-17.059 3.5,-23.105 -1.516,-5.676 -7.931,-11.693 -14.133,-17.511 -3.018,-2.831 -6.063,-5.697 -8.765,-8.676 m 19.398,-86.605 c -1.129,-3.766 -2.263,-7.572 -3.087,-11.307 -8.591,18.777 -14.226,39.175 -16.311,60.599 2.702,-2.98 5.747,-5.846 8.765,-8.677 6.203,-5.818 12.617,-11.835 14.133,-17.51 1.617,-6.046 -0.985,-14.718 -3.5,-23.105 m -4.94,46.684 c -7.425,6.964 -15.103,14.166 -15.103,21.264 0,7.098 7.678,14.299 15.102,21.264 3.627,3.401 7.311,6.863 10.33,10.507 2.132,-4.538 5.414,-9.06 8.647,-13.504 4.703,-6.468 9.568,-13.156 9.571,-18.26 0.003,-4.771 -4.735,-11.256 -9.317,-17.527 -3.39,-4.64 -6.828,-9.363 -9.001,-14.126 -3,3.597 -6.644,7.019 -10.229,10.382 M 11.667,79.632 C 9.582,58.208 3.947,37.81 -4.644,19.032 c -0.824,3.736 -1.958,7.542 -3.087,11.308 -2.515,8.387 -5.117,17.059 -3.5,23.105 1.516,5.675 7.93,11.692 14.133,17.51 3.018,2.831 6.063,5.697 8.765,8.677 M -2.79,77.025 c -3.627,-3.402 -7.312,-6.865 -10.331,-10.507 -2.131,4.538 -5.412,9.059 -8.646,13.503 -4.704,6.468 -9.568,13.156 -9.571,18.26 -0.003,4.772 4.735,11.257 9.317,17.529 3.39,4.638 6.828,9.361 9.001,14.124 3,-3.597 6.644,-7.019 10.229,-10.382 7.425,-6.964 15.102,-14.166 15.102,-21.264 0,-7.098 -7.677,-14.299 -15.101,-21.263 m 2.789,119.552 C 15.49,168.551 24.575,136.515 25.261,102.449 h -4.412 c -0.685,33.263 -9.555,64.545 -24.67,91.922 z m -178.562,113.909 c -117.005,0 -212.197,-95.191 -212.197,-212.198 0,-117.006 95.192,-212.196 212.197,-212.196 117.006,0 212.198,95.19 212.198,212.196 0,117.007 -95.192,212.198 -212.198,212.198"
               style="fill:#231f20;fill-opacity:1;fill-rule:nonzero;stroke:none"
               id="path51" />
          </g>
        </g>
      </g>
    </g>
  </g>
</svg>
