<?xml version="1.0" encoding="UTF-8" standalone="no"?>
<!-- Created with Inkscape (http://www.inkscape.org/) -->

<svg
   width="210mm"
   height="297mm"
   viewBox="0 0 210 297"
   version="1.1"
   id="svg2408"
   inkscape:version="1.1 (c4e8f9e, 2021-05-24)"
   sodipodi:docname="drawing.svg"
   xmlns:inkscape="http://www.inkscape.org/namespaces/inkscape"
   xmlns:sodipodi="http://sodipodi.sourceforge.net/DTD/sodipodi-0.dtd"
   xmlns="http://www.w3.org/2000/svg"
   xmlns:svg="http://www.w3.org/2000/svg">
  <sodipodi:namedview
     id="namedview2410"
     pagecolor="#ffffff"
     bordercolor="#666666"
     borderopacity="1.0"
     inkscape:pageshadow="2"
     inkscape:pageopacity="0.0"
     inkscape:pagecheckerboard="0"
     inkscape:document-units="mm"
     showgrid="false"
     inkscape:zoom="0.67081229"
     inkscape:cx="396.53418"
     inkscape:cy="321.99768"
     inkscape:window-width="1759"
     inkscape:window-height="1384"
     inkscape:window-x="2240"
     inkscape:window-y="0"
     inkscape:window-maximized="0"
     inkscape:current-layer="layer1" />
  <defs
     id="defs2405">
    <clipPath
       clipPathUnits="userSpaceOnUse"
       id="clipPath325">
      <path
         d="M 22.5205,936.586 H 446.915 V 512.191 H 22.5205 Z"
         id="path323" />
    </clipPath>
  </defs>
  <g
     inkscape:label="Layer 1"
     inkscape:groupmode="layer"
     id="layer1">
    <g
       id="g319"
       transform="matrix(0.35277777,0,0,-0.35277777,8.3082608,339.95461)">
      <g
         id="g321" />
      <g
         id="g333">
        <g
           clip-path="url(#clipPath325)"
           opacity="0.5"
           id="g331">
          <g
             transform="translate(386.167,624.4297)"
             id="g329">
            <path
               d="M 0,0 C -3.487,14.631 -7.093,29.76 -3.407,38.647 0.046,46.974 12.918,54.816 25.367,62.401 34.949,68.238 44.704,74.188 51.54,81.027 47.638,38.848 30.839,0.354 5.125,-30.464 5.041,-21.166 2.5,-10.487 0,0 m -113.893,-76.858 c 7.584,12.449 15.428,25.322 23.754,28.774 2.51,1.041 5.599,1.547 9.443,1.547 8.418,0 18.986,-2.519 29.206,-4.955 10.444,-2.489 21.233,-5.056 30.434,-5.149 -30.813,-25.7 -69.297,-42.488 -111.463,-46.389 6.84,6.835 12.79,16.591 18.626,26.172 m -68.007,4.329 c -3.889,6.383 -7.683,12.6 -11.663,17.928 13.425,-3.662 27.543,-5.628 42.114,-5.628 14.57,0 28.687,1.966 42.113,5.628 -3.979,-5.328 -7.773,-11.545 -11.663,-17.928 -9.401,-15.431 -19.123,-31.388 -30.45,-31.388 -11.328,0 -21.049,15.957 -30.451,31.388 m -69.507,21.038 c 10.219,2.435 20.787,4.954 29.204,4.954 3.845,0 6.933,-0.506 9.443,-1.547 8.326,-3.452 16.169,-16.325 23.754,-28.774 5.837,-9.581 11.786,-19.337 18.625,-26.172 -42.166,3.901 -80.648,20.689 -111.462,46.389 9.202,0.094 19.992,2.661 30.436,5.15 M -328.267,62.4 c 12.45,-7.584 25.323,-15.426 28.776,-23.752 3.684,-8.888 0.079,-24.017 -3.408,-38.647 -2.5,-10.488 -5.04,-21.167 -5.124,-30.465 -25.715,30.818 -42.513,69.312 -46.415,111.491 6.834,-6.839 16.59,-12.789 26.171,-18.627 m 4.33,68.009 c 6.384,3.89 12.6,7.684 17.928,11.663 -3.662,-13.426 -5.629,-27.543 -5.629,-42.114 0,-14.57 1.967,-28.687 5.629,-42.112 -5.328,3.978 -11.544,7.772 -17.928,11.662 -15.431,9.4 -31.388,19.123 -31.388,30.45 0,11.328 15.957,21.05 31.388,30.451 m 21.038,69.507 c 3.487,-14.63 7.092,-29.76 3.407,-38.647 -3.453,-8.327 -16.325,-16.169 -28.775,-23.753 -9.581,-5.838 -19.336,-11.787 -26.171,-18.626 3.902,42.179 20.7,80.673 46.415,111.491 0.084,-9.299 2.624,-19.977 5.124,-30.465 m 113.893,76.859 c -7.585,-12.449 -15.428,-25.322 -23.754,-28.774 -2.51,-1.041 -5.598,-1.547 -9.443,-1.547 -8.418,0 -18.986,2.519 -29.205,4.955 -10.445,2.489 -21.235,5.056 -30.435,5.149 30.813,25.7 69.296,42.489 111.462,46.389 -6.839,-6.835 -12.788,-16.59 -18.625,-26.172 m 68.007,-4.329 c 3.89,-6.383 7.684,-12.6 11.663,-17.927 -13.426,3.662 -27.543,5.627 -42.113,5.627 -14.571,0 -28.689,-1.965 -42.114,-5.627 3.98,5.327 7.774,11.544 11.663,17.927 9.402,15.432 19.123,31.389 30.451,31.389 11.327,0 21.049,-15.957 30.45,-31.389 m 69.507,-21.038 c -10.219,-2.435 -20.786,-4.954 -29.203,-4.954 -3.845,0 -6.934,0.506 -9.444,1.547 -8.326,3.452 -16.17,16.325 -23.754,28.774 -5.836,9.582 -11.786,19.337 -18.626,26.172 42.167,-3.9 80.65,-20.689 111.463,-46.389 -9.202,-0.093 -19.991,-2.661 -30.436,-5.15 m 76.86,-113.893 c -12.449,7.585 -25.322,15.427 -28.774,23.754 -3.686,8.887 -0.08,24.016 3.407,38.647 2.5,10.488 5.04,21.166 5.125,30.464 25.713,-30.817 42.512,-69.312 46.414,-111.49 -6.836,6.839 -16.591,12.788 -26.172,18.625 m -22.259,4.557 c 5.329,-3.98 11.545,-7.774 17.93,-11.664 15.431,-9.401 31.388,-19.122 31.388,-30.45 0,-11.327 -15.957,-21.049 -31.389,-30.45 -6.384,-3.89 -12.6,-7.684 -17.928,-11.663 3.662,13.426 5.628,27.543 5.628,42.113 0,14.57 -1.966,28.688 -5.629,42.114 M -78.958,-7.023 c -0.066,12.323 -0.143,26.291 4.02,30.458 4.42,4.421 19.37,4.421 28.3,4.421 l 6.605,-0.009 c 8.661,0 16.665,0.2 23.054,1.599 -14.278,-27.118 -36.516,-49.414 -63.591,-63.764 1.716,7.582 1.667,17.288 1.612,27.295 m -97.947,-20.448 c 8.966,9.008 19.128,19.217 25.466,19.217 5.889,-0.003 15.71,-9.933 24.376,-18.694 7.079,-7.156 13.908,-14.058 20.513,-18.184 -14.196,-4.402 -29.275,-6.776 -44.899,-6.776 -15.754,0 -30.954,2.413 -45.253,6.886 6.344,4.037 12.952,10.674 19.797,17.551 m -86.57,54.919 c 1.675,0 3.361,0.01 5.043,0.019 1.661,0.009 3.322,0.017 4.964,0.017 7.497,0 21.452,0 25.494,-4.038 4.481,-4.477 4.448,-18.883 4.418,-31.592 -0.022,-9.647 -0.044,-19.009 1.564,-26.349 -27.113,14.282 -49.404,36.523 -63.747,63.599 6.34,-1.445 14.138,-1.656 22.264,-1.656 m -32.961,117.749 c 4.052,-6.341 10.704,-12.962 17.557,-19.783 9.009,-8.968 19.219,-19.131 19.217,-25.466 -0.003,-5.889 -9.933,-15.712 -18.694,-24.379 -7.132,-7.054 -14.047,-13.898 -18.19,-20.489 -4.398,14.191 -6.77,29.262 -6.77,44.878 0,15.749 2.411,30.944 6.88,45.239 m 72.495,61.743 c 0.067,-12.323 0.142,-26.291 -4.02,-30.458 -4.42,-4.422 -19.37,-4.422 -28.303,-4.422 l -6.6,0.01 c -8.662,0 -16.666,-0.201 -23.056,-1.6 14.277,27.119 36.517,49.416 63.592,63.765 -1.718,-7.582 -1.668,-17.288 -1.613,-27.295 m 97.947,20.447 c -8.966,-9.006 -19.128,-19.215 -25.465,-19.215 -5.891,0.002 -15.713,9.932 -24.38,18.694 -7.076,7.155 -13.906,14.057 -20.512,18.183 14.197,4.402 29.277,6.776 44.902,6.776 15.753,0 30.954,-2.412 45.253,-6.886 -6.344,-4.037 -12.952,-10.675 -19.798,-17.552 m 86.567,-54.919 c -1.673,0 -3.357,-0.009 -5.039,-0.018 -1.662,-0.01 -3.321,-0.018 -4.964,-0.018 -7.498,0 -21.454,0.001 -25.495,4.038 -4.481,4.477 -4.448,18.884 -4.418,31.594 0.023,9.646 0.044,19.008 -1.563,26.348 27.113,-14.283 49.403,-36.523 63.746,-63.6 -6.34,1.446 -14.14,1.656 -22.267,1.656 M -6.464,54.719 c -4.051,6.341 -10.703,12.962 -17.557,19.784 -9.007,8.967 -19.218,19.13 -19.215,25.466 0.003,5.888 9.932,15.711 18.693,24.377 7.133,7.055 14.048,13.899 18.19,20.49 4.398,-14.19 6.77,-29.262 6.77,-44.878 0,-15.748 -2.411,-30.944 -6.881,-45.239 m -80.367,1.205 c -4.956,7.222 -13.232,19.284 -12.712,22.483 2.061,2.521 15.839,5.059 24.104,6.581 9.292,1.713 17.568,3.241 23.401,5.566 -1.93,-20.558 -10.113,-39.323 -22.629,-54.366 -2.447,5.571 -7.028,12.251 -12.164,19.736 m -49.648,-31.975 c 1.515,8.227 4.038,21.915 6.545,24.073 0.02,0.001 0.043,0.002 0.069,0.002 3.965,0 14.65,-7.332 22.452,-12.686 8.293,-5.691 14.64,-9.911 19.726,-12.168 -15.042,-12.513 -33.804,-20.693 -54.358,-22.623 2.325,5.834 3.854,14.11 5.566,23.402 m -59.005,11.391 c 7.801,5.353 18.487,12.684 22.451,12.684 0.025,0 0.049,0 0.067,-10e-4 2.509,-2.157 5.031,-15.846 6.547,-24.073 1.712,-9.293 3.24,-17.569 5.565,-23.403 -20.554,1.93 -39.317,10.111 -54.359,22.623 5.088,2.258 11.434,6.478 19.729,12.17 m -31.974,49.648 c 8.238,-1.517 21.957,-4.046 24.083,-6.557 0.438,-3.369 -7.768,-15.327 -12.693,-22.507 -5.136,-7.485 -9.717,-14.165 -12.164,-19.736 -12.516,15.043 -20.7,33.808 -22.629,54.366 5.834,-2.325 14.11,-3.854 23.403,-5.566 m 11.39,59.005 c 4.956,-7.223 13.231,-19.283 12.713,-22.483 -2.061,-2.521 -15.839,-5.059 -24.102,-6.581 -9.294,-1.713 -17.57,-3.241 -23.404,-5.566 1.929,20.557 10.113,39.322 22.629,54.366 2.448,-5.572 7.028,-12.251 12.164,-19.736 m 49.649,31.974 c -1.516,-8.226 -4.038,-21.915 -6.546,-24.072 -0.019,-0.001 -0.043,-0.002 -0.068,-0.002 -3.965,0 -14.651,7.332 -22.452,12.685 -8.294,5.692 -14.64,9.911 -19.728,12.169 15.043,12.513 33.805,20.693 54.359,22.623 -2.325,-5.834 -3.853,-14.11 -5.565,-23.403 m 59.001,-11.391 c -7.801,-5.352 -18.484,-12.683 -22.447,-12.683 -0.027,0 -0.049,0.001 -0.069,0.001 -2.507,2.157 -5.03,15.846 -6.545,24.073 -1.712,9.293 -3.241,17.569 -5.566,23.403 20.554,-1.93 39.316,-10.11 54.358,-22.623 -5.088,-2.258 -11.435,-6.478 -19.731,-12.171 m 31.978,-49.648 c -8.24,1.518 -21.959,4.046 -24.083,6.558 -0.441,3.368 7.766,15.327 12.693,22.507 5.136,7.485 9.716,14.164 12.164,19.736 12.515,-15.044 20.698,-33.809 22.628,-54.366 -5.833,2.325 -14.109,3.853 -23.402,5.565 m -20.934,-3.937 c 4.908,-1.508 11.371,-2.762 19.426,-4.247 8.427,-1.553 22.255,-4.1 25.1,-6.786 -2.845,-2.686 -16.673,-5.232 -25.1,-6.785 -8.054,-1.485 -14.518,-2.739 -19.426,-4.247 0.714,3.569 1.095,7.257 1.095,11.032 0,3.776 -0.381,7.464 -1.095,11.033 m -8.419,-42.272 c 2.478,-4.807 6.329,-10.549 11.102,-17.503 4.568,-6.659 11.996,-17.483 12.558,-21.534 -4.292,0.661 -14.222,7.475 -21.572,12.518 -7.101,4.872 -12.787,8.679 -17.489,11.112 6.078,4.086 11.316,9.327 15.401,15.407 m -77.911,-15.407 c -4.702,-2.433 -10.389,-6.239 -17.488,-11.111 -7.349,-5.043 -17.28,-11.856 -21.575,-12.518 0.564,4.052 7.991,14.875 12.56,21.532 4.771,6.955 8.623,12.697 11.102,17.504 4.084,-6.08 9.322,-11.321 15.401,-15.407 m -23.82,35.614 c -4.91,1.507 -11.372,2.762 -19.426,4.246 -8.428,1.553 -22.255,4.1 -25.102,6.786 2.847,2.686 16.674,5.234 25.102,6.787 8.054,1.484 14.516,2.738 19.426,4.246 -0.715,-3.569 -1.095,-7.257 -1.095,-11.033 0,-3.775 0.38,-7.464 1.095,-11.032 m 8.419,42.271 c -2.478,4.808 -6.331,10.55 -11.101,17.504 -4.57,6.659 -11.997,17.482 -12.56,21.534 4.292,-0.661 14.223,-7.475 21.573,-12.518 7.1,-4.872 12.787,-8.679 17.489,-11.113 -6.079,-4.085 -11.317,-9.327 -15.401,-15.407 m 77.91,15.408 c 4.701,2.433 10.386,6.239 17.485,11.109 7.351,5.045 17.284,11.861 21.577,12.521 -0.562,-4.051 -7.989,-14.875 -12.558,-21.534 -4.773,-6.954 -8.624,-12.696 -11.102,-17.504 -4.085,6.08 -9.323,11.322 -15.402,15.408 M -151.449,52.11 c -26.384,0 -47.849,21.464 -47.849,47.848 0,26.384 21.465,47.849 47.849,47.849 26.383,0 47.848,-21.465 47.848,-47.849 0,-26.384 -21.465,-47.848 -47.848,-47.848 m 0,147.451 c 2.685,-2.847 5.233,-16.673 6.786,-25.101 1.483,-8.055 2.738,-14.518 4.246,-19.426 -3.568,0.714 -7.257,1.095 -11.032,1.095 -3.776,0 -7.463,-0.381 -11.032,-1.095 1.506,4.908 2.762,11.372 4.246,19.426 1.552,8.428 4.1,22.254 6.786,25.101 m 0,-199.205 c -2.686,2.847 -5.234,16.674 -6.786,25.102 -1.485,8.054 -2.74,14.517 -4.246,19.425 3.568,-0.714 7.255,-1.094 11.032,-1.094 3.775,0 7.464,0.38 11.032,1.094 -1.507,-4.908 -2.763,-11.371 -4.246,-19.425 -1.553,-8.428 -4.101,-22.255 -6.786,-25.102 m 140.261,157.811 c 0.027,-0.067 0.054,-0.136 0.082,-0.203 2.394,-6.25 -9.621,-18.137 -19.289,-27.702 -5.136,-5.081 -10.137,-10.029 -13.988,-14.822 -2.633,18.291 -9.851,35.119 -20.46,49.272 6.19,-0.679 13.27,-0.622 20.423,-0.583 1.666,0.009 3.335,0.017 4.993,0.017 8.959,0 25.588,-10e-4 28.239,-5.979 m -82.22,82.121 c 0.054,-0.023 0.11,-0.045 0.165,-0.067 5.645,-2.514 5.61,-18.929 5.579,-32.137 -0.018,-7.587 -0.027,-14.96 0.738,-21.349 -14.024,10.455 -30.658,17.591 -48.73,20.246 5.039,3.97 10.228,9.18 15.559,14.536 8.888,8.929 18.962,19.049 25.167,19.049 0.556,0 1.053,-0.095 1.522,-0.278 M -215.62,206.985 c -0.073,13.609 -0.163,30.522 5.96,33.234 0.057,0.023 0.115,0.046 0.172,0.07 0.543,0.213 1.114,0.324 1.749,0.324 6.597,0 16.897,-10.413 25.984,-19.599 5.082,-5.137 10.03,-10.138 14.824,-13.989 -18.301,-2.634 -35.138,-9.86 -49.296,-20.478 0.676,6.13 0.647,13.182 0.607,20.438 m -76.174,-49.024 c 0.028,0.069 0.057,0.14 0.085,0.209 2.499,5.576 18.975,5.579 28.845,5.579 l 6.6,-0.011 c 6.529,0 12.663,0.1 18.034,0.739 -10.454,-14.024 -17.587,-30.656 -20.243,-48.726 -3.969,5.04 -9.179,10.229 -14.536,15.561 -9.35,9.307 -20.967,20.874 -18.785,26.649 m 0.085,-116.214 c -0.028,0.069 -0.056,0.138 -0.085,0.207 -2.391,6.251 9.621,18.137 19.29,27.699 5.137,5.082 10.138,10.031 13.987,14.824 2.634,-18.291 9.853,-35.121 20.461,-49.273 -6.19,0.679 -13.27,0.622 -20.422,0.584 -1.667,-0.009 -3.337,-0.017 -4.997,-0.017 -8.957,0 -25.582,10e-4 -28.234,5.976 m 82.224,-82.12 c -0.058,0.024 -0.117,0.048 -0.175,0.071 -5.641,2.523 -5.606,18.931 -5.574,32.136 0.017,7.586 0.027,14.959 -0.739,21.347 14.025,-10.454 30.659,-17.59 48.731,-20.245 -5.04,-3.97 -10.23,-9.18 -15.561,-14.536 -8.887,-8.929 -18.962,-19.049 -25.167,-19.05 -0.552,0 -1.047,0.095 -1.515,0.277 m 122.206,33.305 c 0.074,-13.609 0.163,-30.523 -5.961,-33.234 -0.056,-0.023 -0.114,-0.046 -0.17,-0.069 -0.543,-0.213 -1.114,-0.324 -1.75,-0.325 -6.599,-0.001 -16.899,10.412 -25.986,19.6 -5.081,5.137 -10.029,10.138 -14.823,13.988 18.302,2.634 35.139,9.86 49.296,20.478 -0.676,-6.13 -0.645,-13.183 -0.606,-20.438 m 47.246,43.236 -6.605,0.011 c -6.527,0 -12.661,-0.099 -18.03,-0.739 10.452,14.024 17.587,30.656 20.241,48.725 3.971,-5.039 9.18,-10.228 14.536,-15.56 9.357,-9.313 20.982,-20.888 18.782,-26.661 -0.026,-0.062 -0.051,-0.126 -0.078,-0.189 -2.485,-5.585 -18.971,-5.587 -28.846,-5.587 M -6.31,242.982 c 6.102,-8.027 2.1,-24.842 -1.784,-41.136 -1.772,-7.438 -3.561,-14.988 -4.497,-22.088 -14.128,24.489 -34.546,44.91 -59.031,59.043 7.08,0.943 14.656,2.748 22.059,4.512 10.171,2.424 20.688,4.932 29.022,4.932 5.338,0 9.308,-1.022 12.078,-3.11 0.724,-0.712 1.441,-1.43 2.153,-2.153 m -288.126,2.154 c 2.771,2.088 6.741,3.109 12.079,3.109 8.333,0 18.848,-2.507 29.019,-4.931 7.403,-1.764 14.981,-3.569 22.062,-4.512 -24.486,-14.133 -44.905,-34.555 -59.033,-59.044 -0.934,7.1 -2.723,14.65 -4.497,22.088 -3.882,16.294 -7.884,33.109 -1.783,41.136 0.713,0.724 1.431,1.441 2.153,2.154 m -2.152,-288.203 c -6.102,8.026 -2.1,24.843 1.783,41.138 1.773,7.437 3.562,14.987 4.497,22.087 14.128,-24.488 34.546,-44.91 59.032,-59.043 -7.08,-0.942 -14.658,-2.747 -22.061,-4.511 -10.17,-2.425 -20.686,-4.931 -29.02,-4.932 -5.338,0 -9.308,1.022 -12.079,3.11 -0.723,0.711 -1.44,1.428 -2.152,2.151 M -8.465,-45.22 c -2.77,-2.087 -6.739,-3.108 -12.076,-3.108 -8.333,0 -18.85,2.507 -29.02,4.931 -7.404,1.765 -14.98,3.57 -22.062,4.512 24.485,14.133 44.904,34.555 59.032,59.043 0.935,-7.1 2.724,-14.65 4.497,-22.087 3.883,-16.292 7.884,-33.106 1.786,-41.134 -0.713,-0.725 -1.432,-1.444 -2.157,-2.157 m 8.461,-3.293 c 37.554,38.299 60.752,90.723 60.752,148.471 0,57.749 -23.198,110.173 -60.753,148.472 -0.436,0.542 -0.894,1.072 -1.397,1.575 -0.505,0.505 -1.041,0.972 -1.595,1.417 -38.297,37.543 -90.714,60.734 -148.452,60.734 -57.739,0 -110.155,-23.19 -148.451,-60.732 -0.554,-0.446 -1.09,-0.913 -1.596,-1.419 -0.503,-0.503 -0.961,-1.032 -1.398,-1.574 -37.554,-38.299 -60.752,-90.724 -60.752,-148.473 0,-57.749 23.199,-110.174 60.754,-148.474 0.436,-0.541 0.894,-1.069 1.396,-1.572 0.504,-0.504 1.039,-0.97 1.592,-1.414 38.297,-37.545 90.715,-60.736 148.455,-60.736 57.737,0 110.152,23.189 148.45,60.73 0.554,0.446 1.091,0.914 1.596,1.42 0.504,0.503 0.962,1.033 1.399,1.575"
               style="fill:#231f20;fill-opacity:1;fill-rule:nonzero;stroke:none"
               id="path327" />
          </g>
        </g>
      </g>
    </g>
  </g>
</svg>
