<?xml version="1.0" encoding="iso-8859-1"?>
<!-- Generator: Adobe Illustrator 17.1.0, SVG Export Plug-In . SVG Version: 6.00 Build 0)  -->
<!DOCTYPE svg PUBLIC "-//W3C//DTD SVG 1.1//EN" "http://www.w3.org/Graphics/SVG/1.1/DTD/svg11.dtd">
<svg version="1.1" id="Capa_1" xmlns="http://www.w3.org/2000/svg" xmlns:xlink="http://www.w3.org/1999/xlink" x="0px" y="0px"
	 viewBox="0 0 385.606 385.606" style="enable-background:new 0 0 385.606 385.606;" xml:space="preserve">
<path d="M384.304,35.021c-1.767-2.137-4.478-2.137-5.368-2.137c-12.42,0-83.6,20.712-149.44,53.369l-2.994,1.485l0.228,3.334
	c0.148,2.179,0.612,4.563,1.176,6.865c-3.113-1.538-6.668-3.108-10.163-4.114l-1.948-0.561l-1.788,0.955
	c-24.873,13.27-45.873,26.933-62.418,40.609c-3.196,2.644-6.426,5.459-9.598,8.368l-1.973,1.81l0.412,2.646
	c2.252,14.443,3.089,24.737,3.198,29.941c-4.282-0.894-12.032-2.985-23.099-6.76l-3.379-1.152l-2.188,2.822
	c-22.801,29.419-33.375,57.777-38.23,76.386c-2.13,8.162-3.742,17.006-4.361,24.586c-1.064,0.86-2.126,1.723-3.184,2.593
	c-9.839,8.142-19.339,16.694-27.848,25.192c-8.525,8.478-16.09,16.865-22.276,24.415c-6.194,7.54-10.998,14.256-14.217,19.131
	c-1.616,2.429-2.825,4.412-3.633,5.784C0.406,351.96,0,352.721,0,352.721s0.825-0.255,2.324-0.79c1.499-0.536,3.674-1.35,6.364-2.48
	c5.393-2.245,12.893-5.7,21.463-10.366c8.579-4.655,18.239-10.508,28.169-17.287c9.946-6.759,20.132-14.481,29.979-22.613
	c1.191-0.989,2.377-1.985,3.558-2.985c5.751,0.533,11.115,0.588,13.031,0.588c0.002,0,0.001,0,0.003,0
	c10.482,0,27.195-1.042,47.285-6.001l6.949-1.715l-12.045-17.86l51.335,2.468l1.184-0.603c15.093-7.688,29.532-17.196,42.915-28.261
	c7.099-5.868,14.448-12.633,21.844-20.108l2.883-2.914l-18.61-27.592l41.417,1.991l1.594-1.943
	c14.239-17.356,28.572-37.043,42.601-58.517l1.915-2.931l-11.669-15.573l19.872,2.628l1.699-2.764
	c11.393-18.529,21.921-37.347,29.645-52.987c3.347-6.777,6.001-12.643,7.677-16.962C385.748,41.037,386.49,37.666,384.304,35.021z"
	/>
<g>
</g>
<g>
</g>
<g>
</g>
<g>
</g>
<g>
</g>
<g>
</g>
<g>
</g>
<g>
</g>
<g>
</g>
<g>
</g>
<g>
</g>
<g>
</g>
<g>
</g>
<g>
</g>
<g>
</g>
</svg>
