<?xml version='1.0' encoding='us-ascii'?>
<svg height="597.00mm" viewBox="0.0 0.0 521.90 597.00" width="521.90mm" xmlns="http://www.w3.org/2000/svg" xmlns:cc="http://creativecommons.org/ns#" xmlns:dc="http://purl.org/dc/elements/1.1/" xmlns:inkscape="http://www.inkscape.org/namespaces/inkscape" xmlns:rdf="http://www.w3.org/1999/02/22-rdf-syntax-ns#" xmlns:svg="http://www.w3.org/2000/svg" xmlns:xlink="http://www.w3.org/1999/xlink">
<!--
UniversalBox - Box with various options for different styles and lids

Created with Boxes.py (https://festi.info/boxes.py)
Creation date: 2021-10-15 14:22:49
Command line (remove spaces between dashes): boxes UniversalBox - -FingerJoint_angle=90.0 - -FingerJoint_style=rectangular - -FingerJoint_surroundingspaces=2.0 - -FingerJoint_edge_width=1.0 - -FingerJoint_finger=2.0 - -FingerJoint_play=0.0 - -FingerJoint_space=2.0 - -FingerJoint_width=1.0 - -Stackable_angle=60 - -Stackable_height=2.0 - -Stackable_holedistance=1.0 - -Stackable_width=4.0 - -Hinge_grip_percentage=0 - -Hinge_outset=0 - -Hinge_outset=1 - -Hinge_pinwidth=0.5 - -Hinge_style=outset - -Hinge_axle=2 - -Hinge_grip_length=0 - -Hinge_hingestrength=1 - -CabinetHinge_bore=3.2 - -CabinetHinge_eyes_per_hinge=5 - -CabinetHinge_hinges=2 - -CabinetHinge_style=inside - -CabinetHinge_eye=1.5 - -CabinetHinge_play=0.05 - -CabinetHinge_spacing=2.0 - -Lid_angle=90 - -Lid_hole_width=0 - -Lid_second_pin=0 - -Lid_second_pin=1 - -Lid_spring=none - -Lid_style=rectangular - -Lid_surroundingspaces=2.0 - -Lid_edge_width=1.0 - -Lid_finger=3.0 - -Lid_play=0.05 - -Lid_space=2.0 - -Lid_width=1.0 - -Click_angle=5.0 - -Click_bottom_radius=0.1 - -Click_depth=3.0 - -RoundedTriangleEdge_height=150.0 - -RoundedTriangleEdge_r_hole=2.0 - -RoundedTriangleEdge_radius=30.0 - -RoundedTriangleEdge_outset=1 - -Flex_stretch=1.05 - -Flex_connection=1.0 - -Flex_distance=0.5 - -Flex_width=5.0 - -top_edge=L - -bottom_edge=h - -x=300.0 - -y=200.0 - -h=80.0 - -outside=0 - -outside=1 '- -vertical_edges=finger joints' '- -lid=default (none)' - -thickness=3.0 - -format=svg - -tabs=0.0 - -debug=0 - -labels=0 - -labels=1 - -reference=100 - -burn=0.1
Url: http://www.festi.info/UniversalBox?FingerJoint_angle=90.0&FingerJoint_style=rectangular&FingerJoint_surroundingspaces=2.0&FingerJoint_edge_width=1.0&FingerJoint_finger=2.0&FingerJoint_play=0.0&FingerJoint_space=2.0&FingerJoint_width=1.0&Stackable_angle=60&Stackable_height=2.0&Stackable_holedistance=1.0&Stackable_width=4.0&Hinge_grip_percentage=0&Hinge_outset=0&Hinge_outset=1&Hinge_pinwidth=0.5&Hinge_style=outset&Hinge_axle=2&Hinge_grip_length=0&Hinge_hingestrength=1&CabinetHinge_bore=3.2&CabinetHinge_eyes_per_hinge=5&CabinetHinge_hinges=2&CabinetHinge_style=inside&CabinetHinge_eye=1.5&CabinetHinge_play=0.05&CabinetHinge_spacing=2.0&Lid_angle=90&Lid_hole_width=0&Lid_second_pin=0&Lid_second_pin=1&Lid_spring=none&Lid_style=rectangular&Lid_surroundingspaces=2.0&Lid_edge_width=1.0&Lid_finger=3.0&Lid_play=0.05&Lid_space=2.0&Lid_width=1.0&Click_angle=5.0&Click_bottom_radius=0.1&Click_depth=3.0&RoundedTriangleEdge_height=150.0&RoundedTriangleEdge_r_hole=2.0&RoundedTriangleEdge_radius=30.0&RoundedTriangleEdge_outset=1&Flex_stretch=1.05&Flex_connection=1.0&Flex_distance=0.5&Flex_width=5.0&top_edge=L&bottom_edge=h&x=300.0&y=200.0&h=80.0&outside=0&outside=1&vertical_edges=finger+joints&lid=default+%28none%29&thickness=3.0&format=svg&tabs=0.0&debug=0&labels=0&labels=1&reference=100&burn=0.1&render=1
SettingsUrl: http://www.festi.info/UniversalBox?FingerJoint_angle=90.0&FingerJoint_style=rectangular&FingerJoint_surroundingspaces=2.0&FingerJoint_edge_width=1.0&FingerJoint_finger=2.0&FingerJoint_play=0.0&FingerJoint_space=2.0&FingerJoint_width=1.0&Stackable_angle=60&Stackable_height=2.0&Stackable_holedistance=1.0&Stackable_width=4.0&Hinge_grip_percentage=0&Hinge_outset=0&Hinge_outset=1&Hinge_pinwidth=0.5&Hinge_style=outset&Hinge_axle=2&Hinge_grip_length=0&Hinge_hingestrength=1&CabinetHinge_bore=3.2&CabinetHinge_eyes_per_hinge=5&CabinetHinge_hinges=2&CabinetHinge_style=inside&CabinetHinge_eye=1.5&CabinetHinge_play=0.05&CabinetHinge_spacing=2.0&Lid_angle=90&Lid_hole_width=0&Lid_second_pin=0&Lid_second_pin=1&Lid_spring=none&Lid_style=rectangular&Lid_surroundingspaces=2.0&Lid_edge_width=1.0&Lid_finger=3.0&Lid_play=0.05&Lid_space=2.0&Lid_width=1.0&Click_angle=5.0&Click_bottom_radius=0.1&Click_depth=3.0&RoundedTriangleEdge_height=150.0&RoundedTriangleEdge_r_hole=2.0&RoundedTriangleEdge_radius=30.0&RoundedTriangleEdge_outset=1&Flex_stretch=1.05&Flex_connection=1.0&Flex_distance=0.5&Flex_width=5.0&top_edge=L&bottom_edge=h&x=300.0&y=200.0&h=80.0&outside=0&outside=1&vertical_edges=finger+joints&lid=default+%28none%29&thickness=3.0&format=svg&tabs=0.0&debug=0&labels=0&labels=1&reference=100&burn=0.1
-->
<title>UniversalBox</title>
<metadata>
<rdf:RDF><cc:Work>
<dc:title>Box - UniversalBox</dc:title>
<dc:date>2021-10-15 14:22:49</dc:date>
<dc:source>http://www.festi.info/UniversalBox?FingerJoint_angle=90.0&amp;FingerJoint_style=rectangular&amp;FingerJoint_surroundingspaces=2.0&amp;FingerJoint_edge_width=1.0&amp;FingerJoint_finger=2.0&amp;FingerJoint_play=0.0&amp;FingerJoint_space=2.0&amp;FingerJoint_width=1.0&amp;Stackable_angle=60&amp;Stackable_height=2.0&amp;Stackable_holedistance=1.0&amp;Stackable_width=4.0&amp;Hinge_grip_percentage=0&amp;Hinge_outset=0&amp;Hinge_outset=1&amp;Hinge_pinwidth=0.5&amp;Hinge_style=outset&amp;Hinge_axle=2&amp;Hinge_grip_length=0&amp;Hinge_hingestrength=1&amp;CabinetHinge_bore=3.2&amp;CabinetHinge_eyes_per_hinge=5&amp;CabinetHinge_hinges=2&amp;CabinetHinge_style=inside&amp;CabinetHinge_eye=1.5&amp;CabinetHinge_play=0.05&amp;CabinetHinge_spacing=2.0&amp;Lid_angle=90&amp;Lid_hole_width=0&amp;Lid_second_pin=0&amp;Lid_second_pin=1&amp;Lid_spring=none&amp;Lid_style=rectangular&amp;Lid_surroundingspaces=2.0&amp;Lid_edge_width=1.0&amp;Lid_finger=3.0&amp;Lid_play=0.05&amp;Lid_space=2.0&amp;Lid_width=1.0&amp;Click_angle=5.0&amp;Click_bottom_radius=0.1&amp;Click_depth=3.0&amp;RoundedTriangleEdge_height=150.0&amp;RoundedTriangleEdge_r_hole=2.0&amp;RoundedTriangleEdge_radius=30.0&amp;RoundedTriangleEdge_outset=1&amp;Flex_stretch=1.05&amp;Flex_connection=1.0&amp;Flex_distance=0.5&amp;Flex_width=5.0&amp;top_edge=L&amp;bottom_edge=h&amp;x=300.0&amp;y=200.0&amp;h=80.0&amp;outside=0&amp;outside=1&amp;vertical_edges=finger+joints&amp;lid=default+%28none%29&amp;thickness=3.0&amp;format=svg&amp;tabs=0.0&amp;debug=0&amp;labels=0&amp;labels=1&amp;reference=100&amp;burn=0.1&amp;render=1</dc:source>
<dc:description>Box with various options for different styles and lids

Created with Boxes.py (https://festi.info/boxes.py)
Command line: boxes UniversalBox --FingerJoint_angle=90.0 --FingerJoint_style=rectangular --FingerJoint_surroundingspaces=2.0 --FingerJoint_edge_width=1.0 --FingerJoint_finger=2.0 --FingerJoint_play=0.0 --FingerJoint_space=2.0 --FingerJoint_width=1.0 --Stackable_angle=60 --Stackable_height=2.0 --Stackable_holedistance=1.0 --Stackable_width=4.0 --Hinge_grip_percentage=0 --Hinge_outset=0 --Hinge_outset=1 --Hinge_pinwidth=0.5 --Hinge_style=outset --Hinge_axle=2 --Hinge_grip_length=0 --Hinge_hingestrength=1 --CabinetHinge_bore=3.2 --CabinetHinge_eyes_per_hinge=5 --CabinetHinge_hinges=2 --CabinetHinge_style=inside --CabinetHinge_eye=1.5 --CabinetHinge_play=0.05 --CabinetHinge_spacing=2.0 --Lid_angle=90 --Lid_hole_width=0 --Lid_second_pin=0 --Lid_second_pin=1 --Lid_spring=none --Lid_style=rectangular --Lid_surroundingspaces=2.0 --Lid_edge_width=1.0 --Lid_finger=3.0 --Lid_play=0.05 --Lid_space=2.0 --Lid_width=1.0 --Click_angle=5.0 --Click_bottom_radius=0.1 --Click_depth=3.0 --RoundedTriangleEdge_height=150.0 --RoundedTriangleEdge_r_hole=2.0 --RoundedTriangleEdge_radius=30.0 --RoundedTriangleEdge_outset=1 --Flex_stretch=1.05 --Flex_connection=1.0 --Flex_distance=0.5 --Flex_width=5.0 --top_edge=L --bottom_edge=h --x=300.0 --y=200.0 --h=80.0 --outside=0 --outside=1 '--vertical_edges=finger joints' '--lid=default (none)' --thickness=3.0 --format=svg --tabs=0.0 --debug=0 --labels=0 --labels=1 --reference=100 --burn=0.1
Url: http://www.festi.info/UniversalBox?FingerJoint_angle=90.0&amp;FingerJoint_style=rectangular&amp;FingerJoint_surroundingspaces=2.0&amp;FingerJoint_edge_width=1.0&amp;FingerJoint_finger=2.0&amp;FingerJoint_play=0.0&amp;FingerJoint_space=2.0&amp;FingerJoint_width=1.0&amp;Stackable_angle=60&amp;Stackable_height=2.0&amp;Stackable_holedistance=1.0&amp;Stackable_width=4.0&amp;Hinge_grip_percentage=0&amp;Hinge_outset=0&amp;Hinge_outset=1&amp;Hinge_pinwidth=0.5&amp;Hinge_style=outset&amp;Hinge_axle=2&amp;Hinge_grip_length=0&amp;Hinge_hingestrength=1&amp;CabinetHinge_bore=3.2&amp;CabinetHinge_eyes_per_hinge=5&amp;CabinetHinge_hinges=2&amp;CabinetHinge_style=inside&amp;CabinetHinge_eye=1.5&amp;CabinetHinge_play=0.05&amp;CabinetHinge_spacing=2.0&amp;Lid_angle=90&amp;Lid_hole_width=0&amp;Lid_second_pin=0&amp;Lid_second_pin=1&amp;Lid_spring=none&amp;Lid_style=rectangular&amp;Lid_surroundingspaces=2.0&amp;Lid_edge_width=1.0&amp;Lid_finger=3.0&amp;Lid_play=0.05&amp;Lid_space=2.0&amp;Lid_width=1.0&amp;Click_angle=5.0&amp;Click_bottom_radius=0.1&amp;Click_depth=3.0&amp;RoundedTriangleEdge_height=150.0&amp;RoundedTriangleEdge_r_hole=2.0&amp;RoundedTriangleEdge_radius=30.0&amp;RoundedTriangleEdge_outset=1&amp;Flex_stretch=1.05&amp;Flex_connection=1.0&amp;Flex_distance=0.5&amp;Flex_width=5.0&amp;top_edge=L&amp;bottom_edge=h&amp;x=300.0&amp;y=200.0&amp;h=80.0&amp;outside=0&amp;outside=1&amp;vertical_edges=finger+joints&amp;lid=default+%28none%29&amp;thickness=3.0&amp;format=svg&amp;tabs=0.0&amp;debug=0&amp;labels=0&amp;labels=1&amp;reference=100&amp;burn=0.1&amp;render=1
SettingsUrl: http://www.festi.info/UniversalBox?FingerJoint_angle=90.0&amp;FingerJoint_style=rectangular&amp;FingerJoint_surroundingspaces=2.0&amp;FingerJoint_edge_width=1.0&amp;FingerJoint_finger=2.0&amp;FingerJoint_play=0.0&amp;FingerJoint_space=2.0&amp;FingerJoint_width=1.0&amp;Stackable_angle=60&amp;Stackable_height=2.0&amp;Stackable_holedistance=1.0&amp;Stackable_width=4.0&amp;Hinge_grip_percentage=0&amp;Hinge_outset=0&amp;Hinge_outset=1&amp;Hinge_pinwidth=0.5&amp;Hinge_style=outset&amp;Hinge_axle=2&amp;Hinge_grip_length=0&amp;Hinge_hingestrength=1&amp;CabinetHinge_bore=3.2&amp;CabinetHinge_eyes_per_hinge=5&amp;CabinetHinge_hinges=2&amp;CabinetHinge_style=inside&amp;CabinetHinge_eye=1.5&amp;CabinetHinge_play=0.05&amp;CabinetHinge_spacing=2.0&amp;Lid_angle=90&amp;Lid_hole_width=0&amp;Lid_second_pin=0&amp;Lid_second_pin=1&amp;Lid_spring=none&amp;Lid_style=rectangular&amp;Lid_surroundingspaces=2.0&amp;Lid_edge_width=1.0&amp;Lid_finger=3.0&amp;Lid_play=0.05&amp;Lid_space=2.0&amp;Lid_width=1.0&amp;Click_angle=5.0&amp;Click_bottom_radius=0.1&amp;Click_depth=3.0&amp;RoundedTriangleEdge_height=150.0&amp;RoundedTriangleEdge_r_hole=2.0&amp;RoundedTriangleEdge_radius=30.0&amp;RoundedTriangleEdge_outset=1&amp;Flex_stretch=1.05&amp;Flex_connection=1.0&amp;Flex_distance=0.5&amp;Flex_width=5.0&amp;top_edge=L&amp;bottom_edge=h&amp;x=300.0&amp;y=200.0&amp;h=80.0&amp;outside=0&amp;outside=1&amp;vertical_edges=finger+joints&amp;lid=default+%28none%29&amp;thickness=3.0&amp;format=svg&amp;tabs=0.0&amp;debug=0&amp;labels=0&amp;labels=1&amp;reference=100&amp;burn=0.1
</dc:description>
</cc:Work></rdf:RDF></metadata>
<g id="p-0" style="fill:none;stroke-linecap:round;stroke-linejoin:round;">
  <path d="M 10.100 587.000 H 110.100 V 577.000 H 10.100 V 587.000 Z" stroke="rgb(0,0,0)" stroke-width="0.20" />
  <text alignment-baseline="hanging" font-size="10px" style="font-family: sans-serif ; font-weight: normal; font-style: normal; fill: rgb(0,0,0)" text-anchor="middle" transform="matrix( 1.000 0.000 0.000 1.000 60.100 577.000 )">100mm</text><text alignment-baseline="hanging" font-size="4px" style="font-family: sans-serif ; font-weight: normal; font-style: normal; fill: rgb(255,0,0)" text-anchor="middle" transform="matrix( 1.000 0.000 0.000 1.000 15.100 580.000 )" />
</g>
<g id="p-1" style="fill:none;stroke-linecap:round;stroke-linejoin:round;">
  <path d="M 22.100 572.100 H 19.200 C 19.100 572.100 19.200 572.200 19.200 572.100 V 569.300 C 19.200 569.200 19.100 569.300 19.200 569.300 H 25.000 C 25.100 569.300 25.000 569.200 25.000 569.300 V 572.100 C 25.000 572.200 25.100 572.100 25.000 572.100 H 22.100 Z" stroke="rgb(0,0,255)" stroke-width="0.20" />
  <path d="M 34.100 572.100 H 31.200 C 31.100 572.100 31.200 572.200 31.200 572.100 V 569.300 C 31.200 569.200 31.100 569.300 31.200 569.300 H 37.000 C 37.100 569.300 37.000 569.200 37.000 569.300 V 572.100 C 37.000 572.200 37.100 572.100 37.000 572.100 H 34.100 Z" stroke="rgb(0,0,255)" stroke-width="0.20" />
  <path d="M 46.100 572.100 H 43.200 C 43.100 572.100 43.200 572.200 43.200 572.100 V 569.300 C 43.200 569.200 43.100 569.300 43.200 569.300 H 49.000 C 49.100 569.300 49.000 569.200 49.000 569.300 V 572.100 C 49.000 572.200 49.100 572.100 49.000 572.100 H 46.100 Z" stroke="rgb(0,0,255)" stroke-width="0.20" />
  <path d="M 58.100 572.100 H 55.200 C 55.100 572.100 55.200 572.200 55.200 572.100 V 569.300 C 55.200 569.200 55.100 569.300 55.200 569.300 H 61.000 C 61.100 569.300 61.000 569.200 61.000 569.300 V 572.100 C 61.000 572.200 61.100 572.100 61.000 572.100 H 58.100 Z" stroke="rgb(0,0,255)" stroke-width="0.20" />
  <path d="M 70.100 572.100 H 67.200 C 67.100 572.100 67.200 572.200 67.200 572.100 V 569.300 C 67.200 569.200 67.100 569.300 67.200 569.300 H 73.000 C 73.100 569.300 73.000 569.200 73.000 569.300 V 572.100 C 73.000 572.200 73.100 572.100 73.000 572.100 H 70.100 Z" stroke="rgb(0,0,255)" stroke-width="0.20" />
  <path d="M 82.100 572.100 H 79.200 C 79.100 572.100 79.200 572.200 79.200 572.100 V 569.300 C 79.200 569.200 79.100 569.300 79.200 569.300 H 85.000 C 85.100 569.300 85.000 569.200 85.000 569.300 V 572.100 C 85.000 572.200 85.100 572.100 85.000 572.100 H 82.100 Z" stroke="rgb(0,0,255)" stroke-width="0.20" />
  <path d="M 94.100 572.100 H 91.200 C 91.100 572.100 91.200 572.200 91.200 572.100 V 569.300 C 91.200 569.200 91.100 569.300 91.200 569.300 H 97.000 C 97.100 569.300 97.000 569.200 97.000 569.300 V 572.100 C 97.000 572.200 97.100 572.100 97.000 572.100 H 94.100 Z" stroke="rgb(0,0,255)" stroke-width="0.20" />
  <path d="M 106.100 572.100 H 103.200 C 103.100 572.100 103.200 572.200 103.200 572.100 V 569.300 C 103.200 569.200 103.100 569.300 103.200 569.300 H 109.000 C 109.100 569.300 109.000 569.200 109.000 569.300 V 572.100 C 109.000 572.200 109.100 572.100 109.000 572.100 H 106.100 Z" stroke="rgb(0,0,255)" stroke-width="0.20" />
  <path d="M 118.100 572.100 H 115.200 C 115.100 572.100 115.200 572.200 115.200 572.100 V 569.300 C 115.200 569.200 115.100 569.300 115.200 569.300 H 121.000 C 121.100 569.300 121.000 569.200 121.000 569.300 V 572.100 C 121.000 572.200 121.100 572.100 121.000 572.100 H 118.100 Z" stroke="rgb(0,0,255)" stroke-width="0.20" />
  <path d="M 130.100 572.100 H 127.200 C 127.100 572.100 127.200 572.200 127.200 572.100 V 569.300 C 127.200 569.200 127.100 569.300 127.200 569.300 H 133.000 C 133.100 569.300 133.000 569.200 133.000 569.300 V 572.100 C 133.000 572.200 133.100 572.100 133.000 572.100 H 130.100 Z" stroke="rgb(0,0,255)" stroke-width="0.20" />
  <path d="M 142.100 572.100 H 139.200 C 139.100 572.100 139.200 572.200 139.200 572.100 V 569.300 C 139.200 569.200 139.100 569.300 139.200 569.300 H 145.000 C 145.100 569.300 145.000 569.200 145.000 569.300 V 572.100 C 145.000 572.200 145.100 572.100 145.000 572.100 H 142.100 Z" stroke="rgb(0,0,255)" stroke-width="0.20" />
  <path d="M 154.100 572.100 H 151.200 C 151.100 572.100 151.200 572.200 151.200 572.100 V 569.300 C 151.200 569.200 151.100 569.300 151.200 569.300 H 157.000 C 157.100 569.300 157.000 569.200 157.000 569.300 V 572.100 C 157.000 572.200 157.100 572.100 157.000 572.100 H 154.100 Z" stroke="rgb(0,0,255)" stroke-width="0.20" />
  <path d="M 166.100 572.100 H 163.200 C 163.100 572.100 163.200 572.200 163.200 572.100 V 569.300 C 163.200 569.200 163.100 569.300 163.200 569.300 H 169.000 C 169.100 569.300 169.000 569.200 169.000 569.300 V 572.100 C 169.000 572.200 169.100 572.100 169.000 572.100 H 166.100 Z" stroke="rgb(0,0,255)" stroke-width="0.20" />
  <path d="M 178.100 572.100 H 175.200 C 175.100 572.100 175.200 572.200 175.200 572.100 V 569.300 C 175.200 569.200 175.100 569.300 175.200 569.300 H 181.000 C 181.100 569.300 181.000 569.200 181.000 569.300 V 572.100 C 181.000 572.200 181.100 572.100 181.000 572.100 H 178.100 Z" stroke="rgb(0,0,255)" stroke-width="0.20" />
  <path d="M 190.100 572.100 H 187.200 C 187.100 572.100 187.200 572.200 187.200 572.100 V 569.300 C 187.200 569.200 187.100 569.300 187.200 569.300 H 193.000 C 193.100 569.300 193.000 569.200 193.000 569.300 V 572.100 C 193.000 572.200 193.100 572.100 193.000 572.100 H 190.100 Z" stroke="rgb(0,0,255)" stroke-width="0.20" />
  <path d="M 202.100 572.100 H 199.200 C 199.100 572.100 199.200 572.200 199.200 572.100 V 569.300 C 199.200 569.200 199.100 569.300 199.200 569.300 H 205.000 C 205.100 569.300 205.000 569.200 205.000 569.300 V 572.100 C 205.000 572.200 205.100 572.100 205.000 572.100 H 202.100 Z" stroke="rgb(0,0,255)" stroke-width="0.20" />
  <path d="M 214.100 572.100 H 211.200 C 211.100 572.100 211.200 572.200 211.200 572.100 V 569.300 C 211.200 569.200 211.100 569.300 211.200 569.300 H 217.000 C 217.100 569.300 217.000 569.200 217.000 569.300 V 572.100 C 217.000 572.200 217.100 572.100 217.000 572.100 H 214.100 Z" stroke="rgb(0,0,255)" stroke-width="0.20" />
  <path d="M 226.100 572.100 H 223.200 C 223.100 572.100 223.200 572.200 223.200 572.100 V 569.300 C 223.200 569.200 223.100 569.300 223.200 569.300 H 229.000 C 229.100 569.300 229.000 569.200 229.000 569.300 V 572.100 C 229.000 572.200 229.100 572.100 229.000 572.100 H 226.100 Z" stroke="rgb(0,0,255)" stroke-width="0.20" />
  <path d="M 238.100 572.100 H 235.200 C 235.100 572.100 235.200 572.200 235.200 572.100 V 569.300 C 235.200 569.200 235.100 569.300 235.200 569.300 H 241.000 C 241.100 569.300 241.000 569.200 241.000 569.300 V 572.100 C 241.000 572.200 241.100 572.100 241.000 572.100 H 238.100 Z" stroke="rgb(0,0,255)" stroke-width="0.20" />
  <path d="M 250.100 572.100 H 247.200 C 247.100 572.100 247.200 572.200 247.200 572.100 V 569.300 C 247.200 569.200 247.100 569.300 247.200 569.300 H 253.000 C 253.100 569.300 253.000 569.200 253.000 569.300 V 572.100 C 253.000 572.200 253.100 572.100 253.000 572.100 H 250.100 Z" stroke="rgb(0,0,255)" stroke-width="0.20" />
  <path d="M 262.100 572.100 H 259.200 C 259.100 572.100 259.200 572.200 259.200 572.100 V 569.300 C 259.200 569.200 259.100 569.300 259.200 569.300 H 265.000 C 265.100 569.300 265.000 569.200 265.000 569.300 V 572.100 C 265.000 572.200 265.100 572.100 265.000 572.100 H 262.100 Z" stroke="rgb(0,0,255)" stroke-width="0.20" />
  <path d="M 274.100 572.100 H 271.200 C 271.100 572.100 271.200 572.200 271.200 572.100 V 569.300 C 271.200 569.200 271.100 569.300 271.200 569.300 H 277.000 C 277.100 569.300 277.000 569.200 277.000 569.300 V 572.100 C 277.000 572.200 277.100 572.100 277.000 572.100 H 274.100 Z" stroke="rgb(0,0,255)" stroke-width="0.20" />
  <path d="M 286.100 572.100 H 283.200 C 283.100 572.100 283.200 572.200 283.200 572.100 V 569.300 C 283.200 569.200 283.100 569.300 283.200 569.300 H 289.000 C 289.100 569.300 289.000 569.200 289.000 569.300 V 572.100 C 289.000 572.200 289.100 572.100 289.000 572.100 H 286.100 Z" stroke="rgb(0,0,255)" stroke-width="0.20" />
  <path d="M 298.100 572.100 H 295.200 C 295.100 572.100 295.200 572.200 295.200 572.100 V 569.300 C 295.200 569.200 295.100 569.300 295.200 569.300 H 301.000 C 301.100 569.300 301.000 569.200 301.000 569.300 V 572.100 C 301.000 572.200 301.100 572.100 301.000 572.100 H 298.100 Z" stroke="rgb(0,0,255)" stroke-width="0.20" />
  <text alignment-baseline="hanging" font-size="4px" style="font-family: sans-serif ; font-weight: normal; font-style: normal; fill: rgb(255,0,0)" text-anchor="middle" transform="matrix( 1.000 0.000 0.000 1.000 160.100 533.300 )" /><path d="M 13.100 575.300 H 307.100 H 310.100 C 310.155 575.300 310.200 575.255 310.200 575.200 V 565.200 C 310.200 565.145 310.155 565.100 310.100 565.100 H 307.200 C 307.100 565.100 307.200 565.200 307.200 565.100 V 559.300 C 307.200 559.200 307.100 559.300 307.200 559.300 H 310.100 C 310.155 559.300 310.200 559.255 310.200 559.200 V 553.200 C 310.200 553.145 310.155 553.100 310.100 553.100 H 307.200 C 307.100 553.100 307.200 553.200 307.200 553.100 V 547.300 C 307.200 547.200 307.100 547.300 307.200 547.300 H 310.100 C 310.155 547.300 310.200 547.255 310.200 547.200 V 541.200 C 310.200 541.145 310.155 541.100 310.100 541.100 H 307.200 C 307.100 541.100 307.200 541.200 307.200 541.100 V 535.300 C 307.200 535.200 307.100 535.300 307.200 535.300 H 310.100 C 310.155 535.300 310.200 535.255 310.200 535.200 V 529.200 C 310.200 529.145 310.155 529.100 310.100 529.100 H 307.200 C 307.100 529.100 307.200 529.200 307.200 529.100 V 523.300 C 307.200 523.200 307.100 523.300 307.200 523.300 H 310.100 C 310.155 523.300 310.200 523.255 310.200 523.200 V 517.200 C 310.200 517.145 310.155 517.100 310.100 517.100 H 307.200 C 307.100 517.100 307.200 517.200 307.200 517.100 V 511.300 C 307.200 511.200 307.100 511.300 307.200 511.300 H 310.100 C 310.155 511.300 310.200 511.255 310.200 511.200 V 501.200 V 501.275 C 310.200 501.220 310.155 501.175 310.100 501.175 H 307.100 H 304.050 C 303.950 501.175 304.050 501.275 304.050 501.175 V 498.225 C 304.050 498.125 303.950 498.225 304.050 498.225 H 310.100 C 310.155 498.225 310.200 498.180 310.200 498.125 V 495.200 C 310.200 495.145 310.155 495.100 310.100 495.100 H 30.600 C 30.407 495.100 30.217 495.151 30.050 495.247 C 29.883 495.344 29.744 495.483 29.647 495.650 C 29.551 495.817 29.500 496.007 29.500 496.200 V 501.175 C 29.500 501.275 29.600 501.175 29.500 501.175 H 16.050 C 15.950 501.175 16.050 501.275 16.050 501.175 V 498.225 C 16.050 498.125 15.950 498.225 16.050 498.225 H 20.950 C 21.143 498.225 21.333 498.174 21.500 498.078 C 21.667 497.981 21.806 497.842 21.903 497.675 C 21.999 497.508 22.050 497.318 22.050 497.125 V 496.200 C 22.050 496.007 21.999 495.817 21.903 495.650 C 21.806 495.483 21.667 495.344 21.500 495.247 C 21.333 495.151 21.143 495.100 20.950 495.100 H 13.100 H 10.100 C 10.045 495.100 10.000 495.145 10.000 495.200 V 501.200 V 511.200 C 10.000 511.255 10.045 511.300 10.100 511.300 H 13.000 C 13.100 511.300 13.000 511.200 13.000 511.300 V 517.100 C 13.000 517.200 13.100 517.100 13.000 517.100 H 10.100 C 10.045 517.100 10.000 517.145 10.000 517.200 V 523.200 C 10.000 523.255 10.045 523.300 10.100 523.300 H 13.000 C 13.100 523.300 13.000 523.200 13.000 523.300 V 529.100 C 13.000 529.200 13.100 529.100 13.000 529.100 H 10.100 C 10.045 529.100 10.000 529.145 10.000 529.200 V 535.200 C 10.000 535.255 10.045 535.300 10.100 535.300 H 13.000 C 13.100 535.300 13.000 535.200 13.000 535.300 V 541.100 C 13.000 541.200 13.100 541.100 13.000 541.100 H 10.100 C 10.045 541.100 10.000 541.145 10.000 541.200 V 547.200 C 10.000 547.255 10.045 547.300 10.100 547.300 H 13.000 C 13.100 547.300 13.000 547.200 13.000 547.300 V 553.100 C 13.000 553.200 13.100 553.100 13.000 553.100 H 10.100 C 10.045 553.100 10.000 553.145 10.000 553.200 V 559.200 C 10.000 559.255 10.045 559.300 10.100 559.300 H 13.000 C 13.100 559.300 13.000 559.200 13.000 559.300 V 565.100 C 13.000 565.200 13.100 565.100 13.000 565.100 H 10.100 C 10.045 565.100 10.000 565.145 10.000 565.200 V 575.200 C 10.000 575.255 10.045 575.300 10.100 575.300 H 13.100" stroke="rgb(0,0,0)" stroke-width="0.20" />
</g>
<g id="p-2" style="fill:none;stroke-linecap:round;stroke-linejoin:round;">
  <path d="M 22.100 490.400 H 19.200 C 19.100 490.400 19.200 490.500 19.200 490.400 V 487.600 C 19.200 487.500 19.100 487.600 19.200 487.600 H 25.000 C 25.100 487.600 25.000 487.500 25.000 487.600 V 490.400 C 25.000 490.500 25.100 490.400 25.000 490.400 H 22.100 Z" stroke="rgb(0,0,255)" stroke-width="0.20" />
  <path d="M 34.100 490.400 H 31.200 C 31.100 490.400 31.200 490.500 31.200 490.400 V 487.600 C 31.200 487.500 31.100 487.600 31.200 487.600 H 37.000 C 37.100 487.600 37.000 487.500 37.000 487.600 V 490.400 C 37.000 490.500 37.100 490.400 37.000 490.400 H 34.100 Z" stroke="rgb(0,0,255)" stroke-width="0.20" />
  <path d="M 46.100 490.400 H 43.200 C 43.100 490.400 43.200 490.500 43.200 490.400 V 487.600 C 43.200 487.500 43.100 487.600 43.200 487.600 H 49.000 C 49.100 487.600 49.000 487.500 49.000 487.600 V 490.400 C 49.000 490.500 49.100 490.400 49.000 490.400 H 46.100 Z" stroke="rgb(0,0,255)" stroke-width="0.20" />
  <path d="M 58.100 490.400 H 55.200 C 55.100 490.400 55.200 490.500 55.200 490.400 V 487.600 C 55.200 487.500 55.100 487.600 55.200 487.600 H 61.000 C 61.100 487.600 61.000 487.500 61.000 487.600 V 490.400 C 61.000 490.500 61.100 490.400 61.000 490.400 H 58.100 Z" stroke="rgb(0,0,255)" stroke-width="0.20" />
  <path d="M 70.100 490.400 H 67.200 C 67.100 490.400 67.200 490.500 67.200 490.400 V 487.600 C 67.200 487.500 67.100 487.600 67.200 487.600 H 73.000 C 73.100 487.600 73.000 487.500 73.000 487.600 V 490.400 C 73.000 490.500 73.100 490.400 73.000 490.400 H 70.100 Z" stroke="rgb(0,0,255)" stroke-width="0.20" />
  <path d="M 82.100 490.400 H 79.200 C 79.100 490.400 79.200 490.500 79.200 490.400 V 487.600 C 79.200 487.500 79.100 487.600 79.200 487.600 H 85.000 C 85.100 487.600 85.000 487.500 85.000 487.600 V 490.400 C 85.000 490.500 85.100 490.400 85.000 490.400 H 82.100 Z" stroke="rgb(0,0,255)" stroke-width="0.20" />
  <path d="M 94.100 490.400 H 91.200 C 91.100 490.400 91.200 490.500 91.200 490.400 V 487.600 C 91.200 487.500 91.100 487.600 91.200 487.600 H 97.000 C 97.100 487.600 97.000 487.500 97.000 487.600 V 490.400 C 97.000 490.500 97.100 490.400 97.000 490.400 H 94.100 Z" stroke="rgb(0,0,255)" stroke-width="0.20" />
  <path d="M 106.100 490.400 H 103.200 C 103.100 490.400 103.200 490.500 103.200 490.400 V 487.600 C 103.200 487.500 103.100 487.600 103.200 487.600 H 109.000 C 109.100 487.600 109.000 487.500 109.000 487.600 V 490.400 C 109.000 490.500 109.100 490.400 109.000 490.400 H 106.100 Z" stroke="rgb(0,0,255)" stroke-width="0.20" />
  <path d="M 118.100 490.400 H 115.200 C 115.100 490.400 115.200 490.500 115.200 490.400 V 487.600 C 115.200 487.500 115.100 487.600 115.200 487.600 H 121.000 C 121.100 487.600 121.000 487.500 121.000 487.600 V 490.400 C 121.000 490.500 121.100 490.400 121.000 490.400 H 118.100 Z" stroke="rgb(0,0,255)" stroke-width="0.20" />
  <path d="M 130.100 490.400 H 127.200 C 127.100 490.400 127.200 490.500 127.200 490.400 V 487.600 C 127.200 487.500 127.100 487.600 127.200 487.600 H 133.000 C 133.100 487.600 133.000 487.500 133.000 487.600 V 490.400 C 133.000 490.500 133.100 490.400 133.000 490.400 H 130.100 Z" stroke="rgb(0,0,255)" stroke-width="0.20" />
  <path d="M 142.100 490.400 H 139.200 C 139.100 490.400 139.200 490.500 139.200 490.400 V 487.600 C 139.200 487.500 139.100 487.600 139.200 487.600 H 145.000 C 145.100 487.600 145.000 487.500 145.000 487.600 V 490.400 C 145.000 490.500 145.100 490.400 145.000 490.400 H 142.100 Z" stroke="rgb(0,0,255)" stroke-width="0.20" />
  <path d="M 154.100 490.400 H 151.200 C 151.100 490.400 151.200 490.500 151.200 490.400 V 487.600 C 151.200 487.500 151.100 487.600 151.200 487.600 H 157.000 C 157.100 487.600 157.000 487.500 157.000 487.600 V 490.400 C 157.000 490.500 157.100 490.400 157.000 490.400 H 154.100 Z" stroke="rgb(0,0,255)" stroke-width="0.20" />
  <path d="M 166.100 490.400 H 163.200 C 163.100 490.400 163.200 490.500 163.200 490.400 V 487.600 C 163.200 487.500 163.100 487.600 163.200 487.600 H 169.000 C 169.100 487.600 169.000 487.500 169.000 487.600 V 490.400 C 169.000 490.500 169.100 490.400 169.000 490.400 H 166.100 Z" stroke="rgb(0,0,255)" stroke-width="0.20" />
  <path d="M 178.100 490.400 H 175.200 C 175.100 490.400 175.200 490.500 175.200 490.400 V 487.600 C 175.200 487.500 175.100 487.600 175.200 487.600 H 181.000 C 181.100 487.600 181.000 487.500 181.000 487.600 V 490.400 C 181.000 490.500 181.100 490.400 181.000 490.400 H 178.100 Z" stroke="rgb(0,0,255)" stroke-width="0.20" />
  <path d="M 190.100 490.400 H 187.200 C 187.100 490.400 187.200 490.500 187.200 490.400 V 487.600 C 187.200 487.500 187.100 487.600 187.200 487.600 H 193.000 C 193.100 487.600 193.000 487.500 193.000 487.600 V 490.400 C 193.000 490.500 193.100 490.400 193.000 490.400 H 190.100 Z" stroke="rgb(0,0,255)" stroke-width="0.20" />
  <path d="M 202.100 490.400 H 199.200 C 199.100 490.400 199.200 490.500 199.200 490.400 V 487.600 C 199.200 487.500 199.100 487.600 199.200 487.600 H 205.000 C 205.100 487.600 205.000 487.500 205.000 487.600 V 490.400 C 205.000 490.500 205.100 490.400 205.000 490.400 H 202.100 Z" stroke="rgb(0,0,255)" stroke-width="0.20" />
  <path d="M 214.100 490.400 H 211.200 C 211.100 490.400 211.200 490.500 211.200 490.400 V 487.600 C 211.200 487.500 211.100 487.600 211.200 487.600 H 217.000 C 217.100 487.600 217.000 487.500 217.000 487.600 V 490.400 C 217.000 490.500 217.100 490.400 217.000 490.400 H 214.100 Z" stroke="rgb(0,0,255)" stroke-width="0.20" />
  <path d="M 226.100 490.400 H 223.200 C 223.100 490.400 223.200 490.500 223.200 490.400 V 487.600 C 223.200 487.500 223.100 487.600 223.200 487.600 H 229.000 C 229.100 487.600 229.000 487.500 229.000 487.600 V 490.400 C 229.000 490.500 229.100 490.400 229.000 490.400 H 226.100 Z" stroke="rgb(0,0,255)" stroke-width="0.20" />
  <path d="M 238.100 490.400 H 235.200 C 235.100 490.400 235.200 490.500 235.200 490.400 V 487.600 C 235.200 487.500 235.100 487.600 235.200 487.600 H 241.000 C 241.100 487.600 241.000 487.500 241.000 487.600 V 490.400 C 241.000 490.500 241.100 490.400 241.000 490.400 H 238.100 Z" stroke="rgb(0,0,255)" stroke-width="0.20" />
  <path d="M 250.100 490.400 H 247.200 C 247.100 490.400 247.200 490.500 247.200 490.400 V 487.600 C 247.200 487.500 247.100 487.600 247.200 487.600 H 253.000 C 253.100 487.600 253.000 487.500 253.000 487.600 V 490.400 C 253.000 490.500 253.100 490.400 253.000 490.400 H 250.100 Z" stroke="rgb(0,0,255)" stroke-width="0.20" />
  <path d="M 262.100 490.400 H 259.200 C 259.100 490.400 259.200 490.500 259.200 490.400 V 487.600 C 259.200 487.500 259.100 487.600 259.200 487.600 H 265.000 C 265.100 487.600 265.000 487.500 265.000 487.600 V 490.400 C 265.000 490.500 265.100 490.400 265.000 490.400 H 262.100 Z" stroke="rgb(0,0,255)" stroke-width="0.20" />
  <path d="M 274.100 490.400 H 271.200 C 271.100 490.400 271.200 490.500 271.200 490.400 V 487.600 C 271.200 487.500 271.100 487.600 271.200 487.600 H 277.000 C 277.100 487.600 277.000 487.500 277.000 487.600 V 490.400 C 277.000 490.500 277.100 490.400 277.000 490.400 H 274.100 Z" stroke="rgb(0,0,255)" stroke-width="0.20" />
  <path d="M 286.100 490.400 H 283.200 C 283.100 490.400 283.200 490.500 283.200 490.400 V 487.600 C 283.200 487.500 283.100 487.600 283.200 487.600 H 289.000 C 289.100 487.600 289.000 487.500 289.000 487.600 V 490.400 C 289.000 490.500 289.100 490.400 289.000 490.400 H 286.100 Z" stroke="rgb(0,0,255)" stroke-width="0.20" />
  <path d="M 298.100 490.400 H 295.200 C 295.100 490.400 295.200 490.500 295.200 490.400 V 487.600 C 295.200 487.500 295.100 487.600 295.200 487.600 H 301.000 C 301.100 487.600 301.000 487.500 301.000 487.600 V 490.400 C 301.000 490.500 301.100 490.400 301.000 490.400 H 298.100 Z" stroke="rgb(0,0,255)" stroke-width="0.20" />
  <text alignment-baseline="hanging" font-size="4px" style="font-family: sans-serif ; font-weight: normal; font-style: normal; fill: rgb(255,0,0)" text-anchor="middle" transform="matrix( 1.000 0.000 0.000 1.000 160.100 451.600 )" /><path d="M 13.100 493.600 H 307.100 H 310.100 C 310.155 493.600 310.200 493.555 310.200 493.500 V 483.500 C 310.200 483.445 310.155 483.400 310.100 483.400 H 307.200 C 307.100 483.400 307.200 483.500 307.200 483.400 V 477.600 C 307.200 477.500 307.100 477.600 307.200 477.600 H 310.100 C 310.155 477.600 310.200 477.555 310.200 477.500 V 471.500 C 310.200 471.445 310.155 471.400 310.100 471.400 H 307.200 C 307.100 471.400 307.200 471.500 307.200 471.400 V 465.600 C 307.200 465.500 307.100 465.600 307.200 465.600 H 310.100 C 310.155 465.600 310.200 465.555 310.200 465.500 V 459.500 C 310.200 459.445 310.155 459.400 310.100 459.400 H 307.200 C 307.100 459.400 307.200 459.500 307.200 459.400 V 453.600 C 307.200 453.500 307.100 453.600 307.200 453.600 H 310.100 C 310.155 453.600 310.200 453.555 310.200 453.500 V 447.500 C 310.200 447.445 310.155 447.400 310.100 447.400 H 307.200 C 307.100 447.400 307.200 447.500 307.200 447.400 V 441.600 C 307.200 441.500 307.100 441.600 307.200 441.600 H 310.100 C 310.155 441.600 310.200 441.555 310.200 441.500 V 435.500 C 310.200 435.445 310.155 435.400 310.100 435.400 H 307.200 C 307.100 435.400 307.200 435.500 307.200 435.400 V 429.600 C 307.200 429.500 307.100 429.600 307.200 429.600 H 310.100 C 310.155 429.600 310.200 429.555 310.200 429.500 V 419.500 V 413.500 C 310.200 413.445 310.155 413.400 310.100 413.400 H 307.100 H 299.250 C 299.057 413.400 298.867 413.451 298.700 413.547 C 298.533 413.644 298.394 413.783 298.297 413.950 C 298.201 414.117 298.150 414.307 298.150 414.500 V 415.425 C 298.150 415.618 298.201 415.808 298.297 415.975 C 298.394 416.142 298.533 416.281 298.700 416.378 C 298.867 416.474 299.057 416.525 299.250 416.525 H 304.150 C 304.250 416.525 304.150 416.425 304.150 416.525 V 419.475 C 304.150 419.575 304.250 419.475 304.150 419.475 H 290.700 C 290.600 419.475 290.700 419.575 290.700 419.475 V 414.500 C 290.700 414.307 290.649 414.117 290.553 413.950 C 290.456 413.783 290.317 413.644 290.150 413.547 C 289.983 413.451 289.793 413.400 289.600 413.400 H 10.100 C 10.045 413.400 10.000 413.445 10.000 413.500 V 416.425 C 10.000 416.480 10.045 416.525 10.100 416.525 H 16.150 C 16.250 416.525 16.150 416.425 16.150 416.525 V 419.475 C 16.150 419.575 16.250 419.475 16.150 419.475 H 13.100 H 10.100 C 10.045 419.475 10.000 419.520 10.000 419.575 V 419.500 V 429.500 C 10.000 429.555 10.045 429.600 10.100 429.600 H 13.000 C 13.100 429.600 13.000 429.500 13.000 429.600 V 435.400 C 13.000 435.500 13.100 435.400 13.000 435.400 H 10.100 C 10.045 435.400 10.000 435.445 10.000 435.500 V 441.500 C 10.000 441.555 10.045 441.600 10.100 441.600 H 13.000 C 13.100 441.600 13.000 441.500 13.000 441.600 V 447.400 C 13.000 447.500 13.100 447.400 13.000 447.400 H 10.100 C 10.045 447.400 10.000 447.445 10.000 447.500 V 453.500 C 10.000 453.555 10.045 453.600 10.100 453.600 H 13.000 C 13.100 453.600 13.000 453.500 13.000 453.600 V 459.400 C 13.000 459.500 13.100 459.400 13.000 459.400 H 10.100 C 10.045 459.400 10.000 459.445 10.000 459.500 V 465.500 C 10.000 465.555 10.045 465.600 10.100 465.600 H 13.000 C 13.100 465.600 13.000 465.500 13.000 465.600 V 471.400 C 13.000 471.500 13.100 471.400 13.000 471.400 H 10.100 C 10.045 471.400 10.000 471.445 10.000 471.500 V 477.500 C 10.000 477.555 10.045 477.600 10.100 477.600 H 13.000 C 13.100 477.600 13.000 477.500 13.000 477.600 V 483.400 C 13.000 483.500 13.100 483.400 13.000 483.400 H 10.100 C 10.045 483.400 10.000 483.445 10.000 483.500 V 493.500 C 10.000 493.555 10.045 493.600 10.100 493.600 H 13.100" stroke="rgb(0,0,0)" stroke-width="0.20" />
</g>
<g id="p-3" style="fill:none;stroke-linecap:round;stroke-linejoin:round;">
  <text alignment-baseline="hanging" font-size="4px" style="font-family: sans-serif ; font-weight: normal; font-style: normal; fill: rgb(255,0,0)" text-anchor="middle" transform="matrix( 1.000 0.000 0.000 1.000 160.100 309.900 )" /><path d="M 13.100 408.900 H 19.000 C 19.100 408.900 19.000 408.800 19.000 408.900 V 411.800 C 19.000 411.855 19.045 411.900 19.100 411.900 H 25.100 C 25.155 411.900 25.200 411.855 25.200 411.800 V 408.900 C 25.200 408.800 25.100 408.900 25.200 408.900 H 31.000 C 31.100 408.900 31.000 408.800 31.000 408.900 V 411.800 C 31.000 411.855 31.045 411.900 31.100 411.900 H 37.100 C 37.155 411.900 37.200 411.855 37.200 411.800 V 408.900 C 37.200 408.800 37.100 408.900 37.200 408.900 H 43.000 C 43.100 408.900 43.000 408.800 43.000 408.900 V 411.800 C 43.000 411.855 43.045 411.900 43.100 411.900 H 49.100 C 49.155 411.900 49.200 411.855 49.200 411.800 V 408.900 C 49.200 408.800 49.100 408.900 49.200 408.900 H 55.000 C 55.100 408.900 55.000 408.800 55.000 408.900 V 411.800 C 55.000 411.855 55.045 411.900 55.100 411.900 H 61.100 C 61.155 411.900 61.200 411.855 61.200 411.800 V 408.900 C 61.200 408.800 61.100 408.900 61.200 408.900 H 67.000 C 67.100 408.900 67.000 408.800 67.000 408.900 V 411.800 C 67.000 411.855 67.045 411.900 67.100 411.900 H 73.100 C 73.155 411.900 73.200 411.855 73.200 411.800 V 408.900 C 73.200 408.800 73.100 408.900 73.200 408.900 H 79.000 C 79.100 408.900 79.000 408.800 79.000 408.900 V 411.800 C 79.000 411.855 79.045 411.900 79.100 411.900 H 85.100 C 85.155 411.900 85.200 411.855 85.200 411.800 V 408.900 C 85.200 408.800 85.100 408.900 85.200 408.900 H 91.000 C 91.100 408.900 91.000 408.800 91.000 408.900 V 411.800 C 91.000 411.855 91.045 411.900 91.100 411.900 H 97.100 C 97.155 411.900 97.200 411.855 97.200 411.800 V 408.900 C 97.200 408.800 97.100 408.900 97.200 408.900 H 103.000 C 103.100 408.900 103.000 408.800 103.000 408.900 V 411.800 C 103.000 411.855 103.045 411.900 103.100 411.900 H 109.100 C 109.155 411.900 109.200 411.855 109.200 411.800 V 408.900 C 109.200 408.800 109.100 408.900 109.200 408.900 H 115.000 C 115.100 408.900 115.000 408.800 115.000 408.900 V 411.800 C 115.000 411.855 115.045 411.900 115.100 411.900 H 121.100 C 121.155 411.900 121.200 411.855 121.200 411.800 V 408.900 C 121.200 408.800 121.100 408.900 121.200 408.900 H 127.000 C 127.100 408.900 127.000 408.800 127.000 408.900 V 411.800 C 127.000 411.855 127.045 411.900 127.100 411.900 H 133.100 C 133.155 411.900 133.200 411.855 133.200 411.800 V 408.900 C 133.200 408.800 133.100 408.900 133.200 408.900 H 139.000 C 139.100 408.900 139.000 408.800 139.000 408.900 V 411.800 C 139.000 411.855 139.045 411.900 139.100 411.900 H 145.100 C 145.155 411.900 145.200 411.855 145.200 411.800 V 408.900 C 145.200 408.800 145.100 408.900 145.200 408.900 H 151.000 C 151.100 408.900 151.000 408.800 151.000 408.900 V 411.800 C 151.000 411.855 151.045 411.900 151.100 411.900 H 157.100 C 157.155 411.900 157.200 411.855 157.200 411.800 V 408.900 C 157.200 408.800 157.100 408.900 157.200 408.900 H 163.000 C 163.100 408.900 163.000 408.800 163.000 408.900 V 411.800 C 163.000 411.855 163.045 411.900 163.100 411.900 H 169.100 C 169.155 411.900 169.200 411.855 169.200 411.800 V 408.900 C 169.200 408.800 169.100 408.900 169.200 408.900 H 175.000 C 175.100 408.900 175.000 408.800 175.000 408.900 V 411.800 C 175.000 411.855 175.045 411.900 175.100 411.900 H 181.100 C 181.155 411.900 181.200 411.855 181.200 411.800 V 408.900 C 181.200 408.800 181.100 408.900 181.200 408.900 H 187.000 C 187.100 408.900 187.000 408.800 187.000 408.900 V 411.800 C 187.000 411.855 187.045 411.900 187.100 411.900 H 193.100 C 193.155 411.900 193.200 411.855 193.200 411.800 V 408.900 C 193.200 408.800 193.100 408.900 193.200 408.900 H 199.000 C 199.100 408.900 199.000 408.800 199.000 408.900 V 411.800 C 199.000 411.855 199.045 411.900 199.100 411.900 H 205.100 C 205.155 411.900 205.200 411.855 205.200 411.800 V 408.900 C 205.200 408.800 205.100 408.900 205.200 408.900 H 211.000 C 211.100 408.900 211.000 408.800 211.000 408.900 V 411.800 C 211.000 411.855 211.045 411.900 211.100 411.900 H 217.100 C 217.155 411.900 217.200 411.855 217.200 411.800 V 408.900 C 217.200 408.800 217.100 408.900 217.200 408.900 H 223.000 C 223.100 408.900 223.000 408.800 223.000 408.900 V 411.800 C 223.000 411.855 223.045 411.900 223.100 411.900 H 229.100 C 229.155 411.900 229.200 411.855 229.200 411.800 V 408.900 C 229.200 408.800 229.100 408.900 229.200 408.900 H 235.000 C 235.100 408.900 235.000 408.800 235.000 408.900 V 411.800 C 235.000 411.855 235.045 411.900 235.100 411.900 H 241.100 C 241.155 411.900 241.200 411.855 241.200 411.800 V 408.900 C 241.200 408.800 241.100 408.900 241.200 408.900 H 247.000 C 247.100 408.900 247.000 408.800 247.000 408.900 V 411.800 C 247.000 411.855 247.045 411.900 247.100 411.900 H 253.100 C 253.155 411.900 253.200 411.855 253.200 411.800 V 408.900 C 253.200 408.800 253.100 408.900 253.200 408.900 H 259.000 C 259.100 408.900 259.000 408.800 259.000 408.900 V 411.800 C 259.000 411.855 259.045 411.900 259.100 411.900 H 265.100 C 265.155 411.900 265.200 411.855 265.200 411.800 V 408.900 C 265.200 408.800 265.100 408.900 265.200 408.900 H 271.000 C 271.100 408.900 271.000 408.800 271.000 408.900 V 411.800 C 271.000 411.855 271.045 411.900 271.100 411.900 H 277.100 C 277.155 411.900 277.200 411.855 277.200 411.800 V 408.900 C 277.200 408.800 277.100 408.900 277.200 408.900 H 283.000 C 283.100 408.900 283.000 408.800 283.000 408.900 V 411.800 C 283.000 411.855 283.045 411.900 283.100 411.900 H 289.100 C 289.155 411.900 289.200 411.855 289.200 411.800 V 408.900 C 289.200 408.800 289.100 408.900 289.200 408.900 H 295.000 C 295.100 408.900 295.000 408.800 295.000 408.900 V 411.800 C 295.000 411.855 295.045 411.900 295.100 411.900 H 301.100 C 301.155 411.900 301.200 411.855 301.200 411.800 V 408.900 C 301.200 408.800 301.100 408.900 301.200 408.900 H 307.100 C 307.155 408.900 307.200 408.855 307.200 408.800 V 398.900 C 307.200 398.800 307.100 398.900 307.200 398.900 H 310.100 C 310.155 398.900 310.200 398.855 310.200 398.800 V 392.800 C 310.200 392.745 310.155 392.700 310.100 392.700 H 307.200 C 307.100 392.700 307.200 392.800 307.200 392.700 V 386.900 C 307.200 386.800 307.100 386.900 307.200 386.900 H 310.100 C 310.155 386.900 310.200 386.855 310.200 386.800 V 380.800 C 310.200 380.745 310.155 380.700 310.100 380.700 H 307.200 C 307.100 380.700 307.200 380.800 307.200 380.700 V 374.900 C 307.200 374.800 307.100 374.900 307.200 374.900 H 310.100 C 310.155 374.900 310.200 374.855 310.200 374.800 V 368.800 C 310.200 368.745 310.155 368.700 310.100 368.700 H 307.200 C 307.100 368.700 307.200 368.800 307.200 368.700 V 362.900 C 307.200 362.800 307.100 362.900 307.200 362.900 H 310.100 C 310.155 362.900 310.200 362.855 310.200 362.800 V 356.800 C 310.200 356.745 310.155 356.700 310.100 356.700 H 307.200 C 307.100 356.700 307.200 356.800 307.200 356.700 V 350.900 C 307.200 350.800 307.100 350.900 307.200 350.900 H 310.100 C 310.155 350.900 310.200 350.855 310.200 350.800 V 344.800 C 310.200 344.745 310.155 344.700 310.100 344.700 H 307.200 C 307.100 344.700 307.200 344.800 307.200 344.700 V 338.900 C 307.200 338.800 307.100 338.900 307.200 338.900 H 310.100 C 310.155 338.900 310.200 338.855 310.200 338.800 V 332.800 C 310.200 332.745 310.155 332.700 310.100 332.700 H 307.200 C 307.100 332.700 307.200 332.800 307.200 332.700 V 326.900 C 307.200 326.800 307.100 326.900 307.200 326.900 H 310.100 C 310.155 326.900 310.200 326.855 310.200 326.800 V 320.800 C 310.200 320.745 310.155 320.700 310.100 320.700 H 307.200 C 307.100 320.700 307.200 320.800 307.200 320.700 V 314.900 C 307.200 314.800 307.100 314.900 307.200 314.900 H 310.100 C 310.155 314.900 310.200 314.855 310.200 314.800 V 308.800 C 310.200 308.745 310.155 308.700 310.100 308.700 H 307.200 C 307.100 308.700 307.200 308.800 307.200 308.700 V 302.900 C 307.200 302.800 307.100 302.900 307.200 302.900 H 310.100 C 310.155 302.900 310.200 302.855 310.200 302.800 V 296.800 C 310.200 296.745 310.155 296.700 310.100 296.700 H 307.200 C 307.100 296.700 307.200 296.800 307.200 296.700 V 290.900 C 307.200 290.800 307.100 290.900 307.200 290.900 H 310.100 C 310.155 290.900 310.200 290.855 310.200 290.800 V 284.800 C 310.200 284.745 310.155 284.700 310.100 284.700 H 307.200 C 307.100 284.700 307.200 284.800 307.200 284.700 V 278.900 C 307.200 278.800 307.100 278.900 307.200 278.900 H 310.100 C 310.155 278.900 310.200 278.855 310.200 278.800 V 272.800 C 310.200 272.745 310.155 272.700 310.100 272.700 H 307.200 C 307.100 272.700 307.200 272.800 307.200 272.700 V 266.900 C 307.200 266.800 307.100 266.900 307.200 266.900 H 310.100 C 310.155 266.900 310.200 266.855 310.200 266.800 V 260.800 C 310.200 260.745 310.155 260.700 310.100 260.700 H 307.200 C 307.100 260.700 307.200 260.800 307.200 260.700 V 254.900 C 307.200 254.800 307.100 254.900 307.200 254.900 H 310.100 C 310.155 254.900 310.200 254.855 310.200 254.800 V 248.800 C 310.200 248.745 310.155 248.700 310.100 248.700 H 307.200 C 307.100 248.700 307.200 248.800 307.200 248.700 V 242.900 C 307.200 242.800 307.100 242.900 307.200 242.900 H 310.100 C 310.155 242.900 310.200 242.855 310.200 242.800 V 236.800 C 310.200 236.745 310.155 236.700 310.100 236.700 H 307.200 C 307.100 236.700 307.200 236.800 307.200 236.700 V 230.900 C 307.200 230.800 307.100 230.900 307.200 230.900 H 310.100 C 310.155 230.900 310.200 230.855 310.200 230.800 V 224.800 C 310.200 224.745 310.155 224.700 310.100 224.700 H 307.200 C 307.100 224.700 307.200 224.800 307.200 224.700 V 214.800 C 307.200 214.745 307.155 214.700 307.100 214.700 H 301.200 C 301.100 214.700 301.200 214.800 301.200 214.700 V 211.800 C 301.200 211.745 301.155 211.700 301.100 211.700 H 295.100 C 295.045 211.700 295.000 211.745 295.000 211.800 V 214.700 C 295.000 214.800 295.100 214.700 295.000 214.700 H 289.200 C 289.100 214.700 289.200 214.800 289.200 214.700 V 211.800 C 289.200 211.745 289.155 211.700 289.100 211.700 H 283.100 C 283.045 211.700 283.000 211.745 283.000 211.800 V 214.700 C 283.000 214.800 283.100 214.700 283.000 214.700 H 277.200 C 277.100 214.700 277.200 214.800 277.200 214.700 V 211.800 C 277.200 211.745 277.155 211.700 277.100 211.700 H 271.100 C 271.045 211.700 271.000 211.745 271.000 211.800 V 214.700 C 271.000 214.800 271.100 214.700 271.000 214.700 H 265.200 C 265.100 214.700 265.200 214.800 265.200 214.700 V 211.800 C 265.200 211.745 265.155 211.700 265.100 211.700 H 259.100 C 259.045 211.700 259.000 211.745 259.000 211.800 V 214.700 C 259.000 214.800 259.100 214.700 259.000 214.700 H 253.200 C 253.100 214.700 253.200 214.800 253.200 214.700 V 211.800 C 253.200 211.745 253.155 211.700 253.100 211.700 H 247.100 C 247.045 211.700 247.000 211.745 247.000 211.800 V 214.700 C 247.000 214.800 247.100 214.700 247.000 214.700 H 241.200 C 241.100 214.700 241.200 214.800 241.200 214.700 V 211.800 C 241.200 211.745 241.155 211.700 241.100 211.700 H 235.100 C 235.045 211.700 235.000 211.745 235.000 211.800 V 214.700 C 235.000 214.800 235.100 214.700 235.000 214.700 H 229.200 C 229.100 214.700 229.200 214.800 229.200 214.700 V 211.800 C 229.200 211.745 229.155 211.700 229.100 211.700 H 223.100 C 223.045 211.700 223.000 211.745 223.000 211.800 V 214.700 C 223.000 214.800 223.100 214.700 223.000 214.700 H 217.200 C 217.100 214.700 217.200 214.800 217.200 214.700 V 211.800 C 217.200 211.745 217.155 211.700 217.100 211.700 H 211.100 C 211.045 211.700 211.000 211.745 211.000 211.800 V 214.700 C 211.000 214.800 211.100 214.700 211.000 214.700 H 205.200 C 205.100 214.700 205.200 214.800 205.200 214.700 V 211.800 C 205.200 211.745 205.155 211.700 205.100 211.700 H 199.100 C 199.045 211.700 199.000 211.745 199.000 211.800 V 214.700 C 199.000 214.800 199.100 214.700 199.000 214.700 H 193.200 C 193.100 214.700 193.200 214.800 193.200 214.700 V 211.800 C 193.200 211.745 193.155 211.700 193.100 211.700 H 187.100 C 187.045 211.700 187.000 211.745 187.000 211.800 V 214.700 C 187.000 214.800 187.100 214.700 187.000 214.700 H 181.200 C 181.100 214.700 181.200 214.800 181.200 214.700 V 211.800 C 181.200 211.745 181.155 211.700 181.100 211.700 H 175.100 C 175.045 211.700 175.000 211.745 175.000 211.800 V 214.700 C 175.000 214.800 175.100 214.700 175.000 214.700 H 169.200 C 169.100 214.700 169.200 214.800 169.200 214.700 V 211.800 C 169.200 211.745 169.155 211.700 169.100 211.700 H 163.100 C 163.045 211.700 163.000 211.745 163.000 211.800 V 214.700 C 163.000 214.800 163.100 214.700 163.000 214.700 H 157.200 C 157.100 214.700 157.200 214.800 157.200 214.700 V 211.800 C 157.200 211.745 157.155 211.700 157.100 211.700 H 151.100 C 151.045 211.700 151.000 211.745 151.000 211.800 V 214.700 C 151.000 214.800 151.100 214.700 151.000 214.700 H 145.200 C 145.100 214.700 145.200 214.800 145.200 214.700 V 211.800 C 145.200 211.745 145.155 211.700 145.100 211.700 H 139.100 C 139.045 211.700 139.000 211.745 139.000 211.800 V 214.700 C 139.000 214.800 139.100 214.700 139.000 214.700 H 133.200 C 133.100 214.700 133.200 214.800 133.200 214.700 V 211.800 C 133.200 211.745 133.155 211.700 133.100 211.700 H 127.100 C 127.045 211.700 127.000 211.745 127.000 211.800 V 214.700 C 127.000 214.800 127.100 214.700 127.000 214.700 H 121.200 C 121.100 214.700 121.200 214.800 121.200 214.700 V 211.800 C 121.200 211.745 121.155 211.700 121.100 211.700 H 115.100 C 115.045 211.700 115.000 211.745 115.000 211.800 V 214.700 C 115.000 214.800 115.100 214.700 115.000 214.700 H 109.200 C 109.100 214.700 109.200 214.800 109.200 214.700 V 211.800 C 109.200 211.745 109.155 211.700 109.100 211.700 H 103.100 C 103.045 211.700 103.000 211.745 103.000 211.800 V 214.700 C 103.000 214.800 103.100 214.700 103.000 214.700 H 97.200 C 97.100 214.700 97.200 214.800 97.200 214.700 V 211.800 C 97.200 211.745 97.155 211.700 97.100 211.700 H 91.100 C 91.045 211.700 91.000 211.745 91.000 211.800 V 214.700 C 91.000 214.800 91.100 214.700 91.000 214.700 H 85.200 C 85.100 214.700 85.200 214.800 85.200 214.700 V 211.800 C 85.200 211.745 85.155 211.700 85.100 211.700 H 79.100 C 79.045 211.700 79.000 211.745 79.000 211.800 V 214.700 C 79.000 214.800 79.100 214.700 79.000 214.700 H 73.200 C 73.100 214.700 73.200 214.800 73.200 214.700 V 211.800 C 73.200 211.745 73.155 211.700 73.100 211.700 H 67.100 C 67.045 211.700 67.000 211.745 67.000 211.800 V 214.700 C 67.000 214.800 67.100 214.700 67.000 214.700 H 61.200 C 61.100 214.700 61.200 214.800 61.200 214.700 V 211.800 C 61.200 211.745 61.155 211.700 61.100 211.700 H 55.100 C 55.045 211.700 55.000 211.745 55.000 211.800 V 214.700 C 55.000 214.800 55.100 214.700 55.000 214.700 H 49.200 C 49.100 214.700 49.200 214.800 49.200 214.700 V 211.800 C 49.200 211.745 49.155 211.700 49.100 211.700 H 43.100 C 43.045 211.700 43.000 211.745 43.000 211.800 V 214.700 C 43.000 214.800 43.100 214.700 43.000 214.700 H 37.200 C 37.100 214.700 37.200 214.800 37.200 214.700 V 211.800 C 37.200 211.745 37.155 211.700 37.100 211.700 H 31.100 C 31.045 211.700 31.000 211.745 31.000 211.800 V 214.700 C 31.000 214.800 31.100 214.700 31.000 214.700 H 25.200 C 25.100 214.700 25.200 214.800 25.200 214.700 V 211.800 C 25.200 211.745 25.155 211.700 25.100 211.700 H 19.100 C 19.045 211.700 19.000 211.745 19.000 211.800 V 214.700 C 19.000 214.800 19.100 214.700 19.000 214.700 H 13.100 C 13.045 214.700 13.000 214.745 13.000 214.800 V 224.700 C 13.000 224.800 13.100 224.700 13.000 224.700 H 10.100 C 10.045 224.700 10.000 224.745 10.000 224.800 V 230.800 C 10.000 230.855 10.045 230.900 10.100 230.900 H 13.000 C 13.100 230.900 13.000 230.800 13.000 230.900 V 236.700 C 13.000 236.800 13.100 236.700 13.000 236.700 H 10.100 C 10.045 236.700 10.000 236.745 10.000 236.800 V 242.800 C 10.000 242.855 10.045 242.900 10.100 242.900 H 13.000 C 13.100 242.900 13.000 242.800 13.000 242.900 V 248.700 C 13.000 248.800 13.100 248.700 13.000 248.700 H 10.100 C 10.045 248.700 10.000 248.745 10.000 248.800 V 254.800 C 10.000 254.855 10.045 254.900 10.100 254.900 H 13.000 C 13.100 254.900 13.000 254.800 13.000 254.900 V 260.700 C 13.000 260.800 13.100 260.700 13.000 260.700 H 10.100 C 10.045 260.700 10.000 260.745 10.000 260.800 V 266.800 C 10.000 266.855 10.045 266.900 10.100 266.900 H 13.000 C 13.100 266.900 13.000 266.800 13.000 266.900 V 272.700 C 13.000 272.800 13.100 272.700 13.000 272.700 H 10.100 C 10.045 272.700 10.000 272.745 10.000 272.800 V 278.800 C 10.000 278.855 10.045 278.900 10.100 278.900 H 13.000 C 13.100 278.900 13.000 278.800 13.000 278.900 V 284.700 C 13.000 284.800 13.100 284.700 13.000 284.700 H 10.100 C 10.045 284.700 10.000 284.745 10.000 284.800 V 290.800 C 10.000 290.855 10.045 290.900 10.100 290.900 H 13.000 C 13.100 290.900 13.000 290.800 13.000 290.900 V 296.700 C 13.000 296.800 13.100 296.700 13.000 296.700 H 10.100 C 10.045 296.700 10.000 296.745 10.000 296.800 V 302.800 C 10.000 302.855 10.045 302.900 10.100 302.900 H 13.000 C 13.100 302.900 13.000 302.800 13.000 302.900 V 308.700 C 13.000 308.800 13.100 308.700 13.000 308.700 H 10.100 C 10.045 308.700 10.000 308.745 10.000 308.800 V 314.800 C 10.000 314.855 10.045 314.900 10.100 314.900 H 13.000 C 13.100 314.900 13.000 314.800 13.000 314.900 V 320.700 C 13.000 320.800 13.100 320.700 13.000 320.700 H 10.100 C 10.045 320.700 10.000 320.745 10.000 320.800 V 326.800 C 10.000 326.855 10.045 326.900 10.100 326.900 H 13.000 C 13.100 326.900 13.000 326.800 13.000 326.900 V 332.700 C 13.000 332.800 13.100 332.700 13.000 332.700 H 10.100 C 10.045 332.700 10.000 332.745 10.000 332.800 V 338.800 C 10.000 338.855 10.045 338.900 10.100 338.900 H 13.000 C 13.100 338.900 13.000 338.800 13.000 338.900 V 344.700 C 13.000 344.800 13.100 344.700 13.000 344.700 H 10.100 C 10.045 344.700 10.000 344.745 10.000 344.800 V 350.800 C 10.000 350.855 10.045 350.900 10.100 350.900 H 13.000 C 13.100 350.900 13.000 350.800 13.000 350.900 V 356.700 C 13.000 356.800 13.100 356.700 13.000 356.700 H 10.100 C 10.045 356.700 10.000 356.745 10.000 356.800 V 362.800 C 10.000 362.855 10.045 362.900 10.100 362.900 H 13.000 C 13.100 362.900 13.000 362.800 13.000 362.900 V 368.700 C 13.000 368.800 13.100 368.700 13.000 368.700 H 10.100 C 10.045 368.700 10.000 368.745 10.000 368.800 V 374.800 C 10.000 374.855 10.045 374.900 10.100 374.900 H 13.000 C 13.100 374.900 13.000 374.800 13.000 374.900 V 380.700 C 13.000 380.800 13.100 380.700 13.000 380.700 H 10.100 C 10.045 380.700 10.000 380.745 10.000 380.800 V 386.800 C 10.000 386.855 10.045 386.900 10.100 386.900 H 13.000 C 13.100 386.900 13.000 386.800 13.000 386.900 V 392.700 C 13.000 392.800 13.100 392.700 13.000 392.700 H 10.100 C 10.045 392.700 10.000 392.745 10.000 392.800 V 398.800 C 10.000 398.855 10.045 398.900 10.100 398.900 H 13.000 C 13.100 398.900 13.000 398.800 13.000 398.900 V 408.800 C 13.000 408.855 13.045 408.900 13.100 408.900" stroke="rgb(0,0,0)" stroke-width="0.20" />
</g>
<g id="p-4" style="fill:none;stroke-linecap:round;stroke-linejoin:round;">
  <text alignment-baseline="hanging" font-size="4px" style="font-family: sans-serif ; font-weight: normal; font-style: normal; fill: rgb(255,0,0)" text-anchor="middle" transform="matrix( 1.000 0.000 0.000 1.000 160.100 108.200 )" /><path d="M 13.100 210.200 H 16.100 C 16.155 210.200 16.200 210.155 16.200 210.100 V 207.200 C 16.200 207.100 16.100 207.200 16.200 207.200 H 298.000 C 298.100 207.200 298.000 207.100 298.000 207.200 V 210.100 C 298.000 210.155 298.045 210.200 298.100 210.200 H 304.100 C 304.155 210.200 304.200 210.155 304.200 210.100 V 207.200 C 304.200 207.100 304.100 207.200 304.200 207.200 H 307.100 C 307.155 207.200 307.200 207.155 307.200 207.100 V 197.200 C 307.200 197.100 307.100 197.200 307.200 197.200 H 310.100 C 310.155 197.200 310.200 197.155 310.200 197.100 V 188.100 C 310.200 188.045 310.155 188.000 310.100 188.000 H 307.200 C 307.100 188.000 307.200 188.100 307.200 188.000 V 182.200 C 307.200 182.100 307.100 182.200 307.200 182.200 H 310.100 C 310.155 182.200 310.200 182.155 310.200 182.100 V 173.100 C 310.200 173.045 310.155 173.000 310.100 173.000 H 307.200 C 307.100 173.000 307.200 173.100 307.200 173.000 V 167.200 C 307.200 167.100 307.100 167.200 307.200 167.200 H 310.100 C 310.155 167.200 310.200 167.155 310.200 167.100 V 158.100 C 310.200 158.045 310.155 158.000 310.100 158.000 H 307.200 C 307.100 158.000 307.200 158.100 307.200 158.000 V 152.200 C 307.200 152.100 307.100 152.200 307.200 152.200 H 310.100 C 310.155 152.200 310.200 152.155 310.200 152.100 V 143.100 C 310.200 143.045 310.155 143.000 310.100 143.000 H 307.200 C 307.100 143.000 307.200 143.100 307.200 143.000 V 137.200 C 307.200 137.100 307.100 137.200 307.200 137.200 H 310.100 C 310.155 137.200 310.200 137.155 310.200 137.100 V 128.100 C 310.200 128.045 310.155 128.000 310.100 128.000 H 307.200 C 307.100 128.000 307.200 128.100 307.200 128.000 V 122.200 C 307.200 122.100 307.100 122.200 307.200 122.200 H 310.100 C 310.155 122.200 310.200 122.155 310.200 122.100 V 113.100 C 310.200 113.045 310.155 113.000 310.100 113.000 H 307.200 C 307.100 113.000 307.200 113.100 307.200 113.000 V 107.200 C 307.200 107.100 307.100 107.200 307.200 107.200 H 310.100 C 310.155 107.200 310.200 107.155 310.200 107.100 V 98.100 C 310.200 98.045 310.155 98.000 310.100 98.000 H 307.200 C 307.100 98.000 307.200 98.100 307.200 98.000 V 92.200 C 307.200 92.100 307.100 92.200 307.200 92.200 H 310.100 C 310.155 92.200 310.200 92.155 310.200 92.100 V 83.100 C 310.200 83.045 310.155 83.000 310.100 83.000 H 307.200 C 307.100 83.000 307.200 83.100 307.200 83.000 V 77.200 C 307.200 77.100 307.100 77.200 307.200 77.200 H 310.100 C 310.155 77.200 310.200 77.155 310.200 77.100 V 68.100 C 310.200 68.045 310.155 68.000 310.100 68.000 H 307.200 C 307.100 68.000 307.200 68.100 307.200 68.000 V 62.200 C 307.200 62.100 307.100 62.200 307.200 62.200 H 310.100 C 310.155 62.200 310.200 62.155 310.200 62.100 V 53.100 C 310.200 53.045 310.155 53.000 310.100 53.000 H 307.200 C 307.100 53.000 307.200 53.100 307.200 53.000 V 47.200 C 307.200 47.100 307.100 47.200 307.200 47.200 H 310.100 C 310.155 47.200 310.200 47.155 310.200 47.100 V 38.100 C 310.200 38.045 310.155 38.000 310.100 38.000 H 307.200 C 307.100 38.000 307.200 38.100 307.200 38.000 V 32.200 C 307.200 32.100 307.100 32.200 307.200 32.200 H 310.100 C 310.155 32.200 310.200 32.155 310.200 32.100 V 23.100 C 310.200 23.045 310.155 23.000 310.100 23.000 H 307.200 C 307.100 23.000 307.200 23.100 307.200 23.000 V 13.100 C 307.200 13.045 307.155 13.000 307.100 13.000 H 304.200 C 304.100 13.000 304.200 13.100 304.200 13.000 V 10.100 C 304.200 10.045 304.155 10.000 304.100 10.000 H 298.100 C 298.045 10.000 298.000 10.045 298.000 10.100 V 13.000 C 298.000 13.100 298.100 13.000 298.000 13.000 H 16.200 C 16.100 13.000 16.200 13.100 16.200 13.000 V 10.100 C 16.200 10.045 16.155 10.000 16.100 10.000 H 13.100 H 10.100 C 10.045 10.000 10.000 10.045 10.000 10.100 V 13.100 V 207.100 V 210.100 C 10.000 210.155 10.045 210.200 10.100 210.200 H 13.100" stroke="rgb(0,0,0)" stroke-width="0.20" />
</g>
<g id="p-5" style="fill:none;stroke-linecap:round;stroke-linejoin:round;">
  <path d="M 327.800 572.100 H 324.900 C 324.800 572.100 324.900 572.200 324.900 572.100 V 569.300 C 324.900 569.200 324.800 569.300 324.900 569.300 H 330.700 C 330.800 569.300 330.700 569.200 330.700 569.300 V 572.100 C 330.700 572.200 330.800 572.100 330.700 572.100 H 327.800 Z" stroke="rgb(0,0,255)" stroke-width="0.20" />
  <path d="M 339.800 572.100 H 336.900 C 336.800 572.100 336.900 572.200 336.900 572.100 V 569.300 C 336.900 569.200 336.800 569.300 336.900 569.300 H 342.700 C 342.800 569.300 342.700 569.200 342.700 569.300 V 572.100 C 342.700 572.200 342.800 572.100 342.700 572.100 H 339.800 Z" stroke="rgb(0,0,255)" stroke-width="0.20" />
  <path d="M 351.800 572.100 H 348.900 C 348.800 572.100 348.900 572.200 348.900 572.100 V 569.300 C 348.900 569.200 348.800 569.300 348.900 569.300 H 354.700 C 354.800 569.300 354.700 569.200 354.700 569.300 V 572.100 C 354.700 572.200 354.800 572.100 354.700 572.100 H 351.800 Z" stroke="rgb(0,0,255)" stroke-width="0.20" />
  <path d="M 363.800 572.100 H 360.900 C 360.800 572.100 360.900 572.200 360.900 572.100 V 569.300 C 360.900 569.200 360.800 569.300 360.900 569.300 H 366.700 C 366.800 569.300 366.700 569.200 366.700 569.300 V 572.100 C 366.700 572.200 366.800 572.100 366.700 572.100 H 363.800 Z" stroke="rgb(0,0,255)" stroke-width="0.20" />
  <path d="M 375.800 572.100 H 372.900 C 372.800 572.100 372.900 572.200 372.900 572.100 V 569.300 C 372.900 569.200 372.800 569.300 372.900 569.300 H 378.700 C 378.800 569.300 378.700 569.200 378.700 569.300 V 572.100 C 378.700 572.200 378.800 572.100 378.700 572.100 H 375.800 Z" stroke="rgb(0,0,255)" stroke-width="0.20" />
  <path d="M 387.800 572.100 H 384.900 C 384.800 572.100 384.900 572.200 384.900 572.100 V 569.300 C 384.900 569.200 384.800 569.300 384.900 569.300 H 390.700 C 390.800 569.300 390.700 569.200 390.700 569.300 V 572.100 C 390.700 572.200 390.800 572.100 390.700 572.100 H 387.800 Z" stroke="rgb(0,0,255)" stroke-width="0.20" />
  <path d="M 399.800 572.100 H 396.900 C 396.800 572.100 396.900 572.200 396.900 572.100 V 569.300 C 396.900 569.200 396.800 569.300 396.900 569.300 H 402.700 C 402.800 569.300 402.700 569.200 402.700 569.300 V 572.100 C 402.700 572.200 402.800 572.100 402.700 572.100 H 399.800 Z" stroke="rgb(0,0,255)" stroke-width="0.20" />
  <path d="M 411.800 572.100 H 408.900 C 408.800 572.100 408.900 572.200 408.900 572.100 V 569.300 C 408.900 569.200 408.800 569.300 408.900 569.300 H 414.700 C 414.800 569.300 414.700 569.200 414.700 569.300 V 572.100 C 414.700 572.200 414.800 572.100 414.700 572.100 H 411.800 Z" stroke="rgb(0,0,255)" stroke-width="0.20" />
  <path d="M 423.800 572.100 H 420.900 C 420.800 572.100 420.900 572.200 420.900 572.100 V 569.300 C 420.900 569.200 420.800 569.300 420.900 569.300 H 426.700 C 426.800 569.300 426.700 569.200 426.700 569.300 V 572.100 C 426.700 572.200 426.800 572.100 426.700 572.100 H 423.800 Z" stroke="rgb(0,0,255)" stroke-width="0.20" />
  <path d="M 435.800 572.100 H 432.900 C 432.800 572.100 432.900 572.200 432.900 572.100 V 569.300 C 432.900 569.200 432.800 569.300 432.900 569.300 H 438.700 C 438.800 569.300 438.700 569.200 438.700 569.300 V 572.100 C 438.700 572.200 438.800 572.100 438.700 572.100 H 435.800 Z" stroke="rgb(0,0,255)" stroke-width="0.20" />
  <path d="M 447.800 572.100 H 444.900 C 444.800 572.100 444.900 572.200 444.900 572.100 V 569.300 C 444.900 569.200 444.800 569.300 444.900 569.300 H 450.700 C 450.800 569.300 450.700 569.200 450.700 569.300 V 572.100 C 450.700 572.200 450.800 572.100 450.700 572.100 H 447.800 Z" stroke="rgb(0,0,255)" stroke-width="0.20" />
  <path d="M 459.800 572.100 H 456.900 C 456.800 572.100 456.900 572.200 456.900 572.100 V 569.300 C 456.900 569.200 456.800 569.300 456.900 569.300 H 462.700 C 462.800 569.300 462.700 569.200 462.700 569.300 V 572.100 C 462.700 572.200 462.800 572.100 462.700 572.100 H 459.800 Z" stroke="rgb(0,0,255)" stroke-width="0.20" />
  <path d="M 471.800 572.100 H 468.900 C 468.800 572.100 468.900 572.200 468.900 572.100 V 569.300 C 468.900 569.200 468.800 569.300 468.900 569.300 H 474.700 C 474.800 569.300 474.700 569.200 474.700 569.300 V 572.100 C 474.700 572.200 474.800 572.100 474.700 572.100 H 471.800 Z" stroke="rgb(0,0,255)" stroke-width="0.20" />
  <path d="M 483.800 572.100 H 480.900 C 480.800 572.100 480.900 572.200 480.900 572.100 V 569.300 C 480.900 569.200 480.800 569.300 480.900 569.300 H 486.700 C 486.800 569.300 486.700 569.200 486.700 569.300 V 572.100 C 486.700 572.200 486.800 572.100 486.700 572.100 H 483.800 Z" stroke="rgb(0,0,255)" stroke-width="0.20" />
  <path d="M 495.800 572.100 H 492.900 C 492.800 572.100 492.900 572.200 492.900 572.100 V 569.300 C 492.900 569.200 492.800 569.300 492.900 569.300 H 498.700 C 498.800 569.300 498.700 569.200 498.700 569.300 V 572.100 C 498.700 572.200 498.800 572.100 498.700 572.100 H 495.800 Z" stroke="rgb(0,0,255)" stroke-width="0.20" />
  <text alignment-baseline="hanging" font-size="4px" style="font-family: sans-serif ; font-weight: normal; font-style: normal; fill: rgb(255,0,0)" text-anchor="middle" transform="matrix( 1.000 0.000 0.000 1.000 411.800 536.300 )" /><path d="M 314.800 575.300 H 508.800 C 508.855 575.300 508.900 575.255 508.900 575.200 V 565.300 C 508.900 565.200 508.800 565.300 508.900 565.300 H 511.800 C 511.855 565.300 511.900 565.255 511.900 565.200 V 559.200 C 511.900 559.145 511.855 559.100 511.800 559.100 H 508.900 C 508.800 559.100 508.900 559.200 508.900 559.100 V 553.300 C 508.900 553.200 508.800 553.300 508.900 553.300 H 511.800 C 511.855 553.300 511.900 553.255 511.900 553.200 V 547.200 C 511.900 547.145 511.855 547.100 511.800 547.100 H 508.900 C 508.800 547.100 508.900 547.200 508.900 547.100 V 541.300 C 508.900 541.200 508.800 541.300 508.900 541.300 H 511.800 C 511.855 541.300 511.900 541.255 511.900 541.200 V 535.200 C 511.900 535.145 511.855 535.100 511.800 535.100 H 508.900 C 508.800 535.100 508.900 535.200 508.900 535.100 V 529.300 C 508.900 529.200 508.800 529.300 508.900 529.300 H 511.800 C 511.855 529.300 511.900 529.255 511.900 529.200 V 523.200 C 511.900 523.145 511.855 523.100 511.800 523.100 H 508.900 C 508.800 523.100 508.900 523.200 508.900 523.100 V 517.300 C 508.900 517.200 508.800 517.300 508.900 517.300 H 511.800 C 511.855 517.300 511.900 517.255 511.900 517.200 V 511.200 C 511.900 511.145 511.855 511.100 511.800 511.100 H 508.900 C 508.800 511.100 508.900 511.200 508.900 511.100 V 501.200 C 508.900 501.145 508.855 501.100 508.800 501.100 H 314.800 C 314.745 501.100 314.700 501.145 314.700 501.200 V 511.100 C 314.700 511.200 314.800 511.100 314.700 511.100 H 311.800 C 311.745 511.100 311.700 511.145 311.700 511.200 V 517.200 C 311.700 517.255 311.745 517.300 311.800 517.300 H 314.700 C 314.800 517.300 314.700 517.200 314.700 517.300 V 523.100 C 314.700 523.200 314.800 523.100 314.700 523.100 H 311.800 C 311.745 523.100 311.700 523.145 311.700 523.200 V 529.200 C 311.700 529.255 311.745 529.300 311.800 529.300 H 314.700 C 314.800 529.300 314.700 529.200 314.700 529.300 V 535.100 C 314.700 535.200 314.800 535.100 314.700 535.100 H 311.800 C 311.745 535.100 311.700 535.145 311.700 535.200 V 541.200 C 311.700 541.255 311.745 541.300 311.800 541.300 H 314.700 C 314.800 541.300 314.700 541.200 314.700 541.300 V 547.100 C 314.700 547.200 314.800 547.100 314.700 547.100 H 311.800 C 311.745 547.100 311.700 547.145 311.700 547.200 V 553.200 C 311.700 553.255 311.745 553.300 311.800 553.300 H 314.700 C 314.800 553.300 314.700 553.200 314.700 553.300 V 559.100 C 314.700 559.200 314.800 559.100 314.700 559.100 H 311.800 C 311.745 559.100 311.700 559.145 311.700 559.200 V 565.200 C 311.700 565.255 311.745 565.300 311.800 565.300 H 314.700 C 314.800 565.300 314.700 565.200 314.700 565.300 V 575.200 C 314.700 575.255 314.745 575.300 314.800 575.300" stroke="rgb(0,0,0)" stroke-width="0.20" />
</g>
<g id="p-6" style="fill:none;stroke-linecap:round;stroke-linejoin:round;">
  <path d="M 327.800 496.400 H 324.900 C 324.800 496.400 324.900 496.500 324.900 496.400 V 493.600 C 324.900 493.500 324.800 493.600 324.900 493.600 H 330.700 C 330.800 493.600 330.700 493.500 330.700 493.600 V 496.400 C 330.700 496.500 330.800 496.400 330.700 496.400 H 327.800 Z" stroke="rgb(0,0,255)" stroke-width="0.20" />
  <path d="M 339.800 496.400 H 336.900 C 336.800 496.400 336.900 496.500 336.900 496.400 V 493.600 C 336.900 493.500 336.800 493.600 336.900 493.600 H 342.700 C 342.800 493.600 342.700 493.500 342.700 493.600 V 496.400 C 342.700 496.500 342.800 496.400 342.700 496.400 H 339.800 Z" stroke="rgb(0,0,255)" stroke-width="0.20" />
  <path d="M 351.800 496.400 H 348.900 C 348.800 496.400 348.900 496.500 348.900 496.400 V 493.600 C 348.900 493.500 348.800 493.600 348.900 493.600 H 354.700 C 354.800 493.600 354.700 493.500 354.700 493.600 V 496.400 C 354.700 496.500 354.800 496.400 354.700 496.400 H 351.800 Z" stroke="rgb(0,0,255)" stroke-width="0.20" />
  <path d="M 363.800 496.400 H 360.900 C 360.800 496.400 360.900 496.500 360.900 496.400 V 493.600 C 360.900 493.500 360.800 493.600 360.900 493.600 H 366.700 C 366.800 493.600 366.700 493.500 366.700 493.600 V 496.400 C 366.700 496.500 366.800 496.400 366.700 496.400 H 363.800 Z" stroke="rgb(0,0,255)" stroke-width="0.20" />
  <path d="M 375.800 496.400 H 372.900 C 372.800 496.400 372.900 496.500 372.900 496.400 V 493.600 C 372.900 493.500 372.800 493.600 372.900 493.600 H 378.700 C 378.800 493.600 378.700 493.500 378.700 493.600 V 496.400 C 378.700 496.500 378.800 496.400 378.700 496.400 H 375.800 Z" stroke="rgb(0,0,255)" stroke-width="0.20" />
  <path d="M 387.800 496.400 H 384.900 C 384.800 496.400 384.900 496.500 384.900 496.400 V 493.600 C 384.900 493.500 384.800 493.600 384.900 493.600 H 390.700 C 390.800 493.600 390.700 493.500 390.700 493.600 V 496.400 C 390.700 496.500 390.800 496.400 390.700 496.400 H 387.800 Z" stroke="rgb(0,0,255)" stroke-width="0.20" />
  <path d="M 399.800 496.400 H 396.900 C 396.800 496.400 396.900 496.500 396.900 496.400 V 493.600 C 396.900 493.500 396.800 493.600 396.900 493.600 H 402.700 C 402.800 493.600 402.700 493.500 402.700 493.600 V 496.400 C 402.700 496.500 402.800 496.400 402.700 496.400 H 399.800 Z" stroke="rgb(0,0,255)" stroke-width="0.20" />
  <path d="M 411.800 496.400 H 408.900 C 408.800 496.400 408.900 496.500 408.900 496.400 V 493.600 C 408.900 493.500 408.800 493.600 408.900 493.600 H 414.700 C 414.800 493.600 414.700 493.500 414.700 493.600 V 496.400 C 414.700 496.500 414.800 496.400 414.700 496.400 H 411.800 Z" stroke="rgb(0,0,255)" stroke-width="0.20" />
  <path d="M 423.800 496.400 H 420.900 C 420.800 496.400 420.900 496.500 420.900 496.400 V 493.600 C 420.900 493.500 420.800 493.600 420.900 493.600 H 426.700 C 426.800 493.600 426.700 493.500 426.700 493.600 V 496.400 C 426.700 496.500 426.800 496.400 426.700 496.400 H 423.800 Z" stroke="rgb(0,0,255)" stroke-width="0.20" />
  <path d="M 435.800 496.400 H 432.900 C 432.800 496.400 432.900 496.500 432.900 496.400 V 493.600 C 432.900 493.500 432.800 493.600 432.900 493.600 H 438.700 C 438.800 493.600 438.700 493.500 438.700 493.600 V 496.400 C 438.700 496.500 438.800 496.400 438.700 496.400 H 435.800 Z" stroke="rgb(0,0,255)" stroke-width="0.20" />
  <path d="M 447.800 496.400 H 444.900 C 444.800 496.400 444.900 496.500 444.900 496.400 V 493.600 C 444.900 493.500 444.800 493.600 444.900 493.600 H 450.700 C 450.800 493.600 450.700 493.500 450.700 493.600 V 496.400 C 450.700 496.500 450.800 496.400 450.700 496.400 H 447.800 Z" stroke="rgb(0,0,255)" stroke-width="0.20" />
  <path d="M 459.800 496.400 H 456.900 C 456.800 496.400 456.900 496.500 456.900 496.400 V 493.600 C 456.900 493.500 456.800 493.600 456.900 493.600 H 462.700 C 462.800 493.600 462.700 493.500 462.700 493.600 V 496.400 C 462.700 496.500 462.800 496.400 462.700 496.400 H 459.800 Z" stroke="rgb(0,0,255)" stroke-width="0.20" />
  <path d="M 471.800 496.400 H 468.900 C 468.800 496.400 468.900 496.500 468.900 496.400 V 493.600 C 468.900 493.500 468.800 493.600 468.900 493.600 H 474.700 C 474.800 493.600 474.700 493.500 474.700 493.600 V 496.400 C 474.700 496.500 474.800 496.400 474.700 496.400 H 471.800 Z" stroke="rgb(0,0,255)" stroke-width="0.20" />
  <path d="M 483.800 496.400 H 480.900 C 480.800 496.400 480.900 496.500 480.900 496.400 V 493.600 C 480.900 493.500 480.800 493.600 480.900 493.600 H 486.700 C 486.800 493.600 486.700 493.500 486.700 493.600 V 496.400 C 486.700 496.500 486.800 496.400 486.700 496.400 H 483.800 Z" stroke="rgb(0,0,255)" stroke-width="0.20" />
  <path d="M 495.800 496.400 H 492.900 C 492.800 496.400 492.900 496.500 492.900 496.400 V 493.600 C 492.900 493.500 492.800 493.600 492.900 493.600 H 498.700 C 498.800 493.600 498.700 493.500 498.700 493.600 V 496.400 C 498.700 496.500 498.800 496.400 498.700 496.400 H 495.800 Z" stroke="rgb(0,0,255)" stroke-width="0.20" />
  <text alignment-baseline="hanging" font-size="4px" style="font-family: sans-serif ; font-weight: normal; font-style: normal; fill: rgb(255,0,0)" text-anchor="middle" transform="matrix( 1.000 0.000 0.000 1.000 411.800 457.600 )" /><path d="M 314.800 499.600 H 508.800 C 508.855 499.600 508.900 499.555 508.900 499.500 V 489.600 C 508.900 489.500 508.800 489.600 508.900 489.600 H 511.800 C 511.855 489.600 511.900 489.555 511.900 489.500 V 483.500 C 511.900 483.445 511.855 483.400 511.800 483.400 H 508.900 C 508.800 483.400 508.900 483.500 508.900 483.400 V 477.600 C 508.900 477.500 508.800 477.600 508.900 477.600 H 511.800 C 511.855 477.600 511.900 477.555 511.900 477.500 V 471.500 C 511.900 471.445 511.855 471.400 511.800 471.400 H 508.900 C 508.800 471.400 508.900 471.500 508.900 471.400 V 465.600 C 508.900 465.500 508.800 465.600 508.900 465.600 H 511.800 C 511.855 465.600 511.900 465.555 511.900 465.500 V 459.500 C 511.900 459.445 511.855 459.400 511.800 459.400 H 508.900 C 508.800 459.400 508.900 459.500 508.900 459.400 V 453.600 C 508.900 453.500 508.800 453.600 508.900 453.600 H 511.800 C 511.855 453.600 511.900 453.555 511.900 453.500 V 447.500 C 511.900 447.445 511.855 447.400 511.800 447.400 H 508.900 C 508.800 447.400 508.900 447.500 508.900 447.400 V 441.600 C 508.900 441.500 508.800 441.600 508.900 441.600 H 511.800 C 511.855 441.600 511.900 441.555 511.900 441.500 V 435.500 C 511.900 435.445 511.855 435.400 511.800 435.400 H 508.900 C 508.800 435.400 508.900 435.500 508.900 435.400 V 425.500 V 419.500 C 508.900 419.445 508.855 419.400 508.800 419.400 H 314.800 C 314.745 419.400 314.700 419.445 314.700 419.500 V 425.500 V 435.400 C 314.700 435.500 314.800 435.400 314.700 435.400 H 311.800 C 311.745 435.400 311.700 435.445 311.700 435.500 V 441.500 C 311.700 441.555 311.745 441.600 311.800 441.600 H 314.700 C 314.800 441.600 314.700 441.500 314.700 441.600 V 447.400 C 314.700 447.500 314.800 447.400 314.700 447.400 H 311.800 C 311.745 447.400 311.700 447.445 311.700 447.500 V 453.500 C 311.700 453.555 311.745 453.600 311.800 453.600 H 314.700 C 314.800 453.600 314.700 453.500 314.700 453.600 V 459.400 C 314.700 459.500 314.800 459.400 314.700 459.400 H 311.800 C 311.745 459.400 311.700 459.445 311.700 459.500 V 465.500 C 311.700 465.555 311.745 465.600 311.800 465.600 H 314.700 C 314.800 465.600 314.700 465.500 314.700 465.600 V 471.400 C 314.700 471.500 314.800 471.400 314.700 471.400 H 311.800 C 311.745 471.400 311.700 471.445 311.700 471.500 V 477.500 C 311.700 477.555 311.745 477.600 311.800 477.600 H 314.700 C 314.800 477.600 314.700 477.500 314.700 477.600 V 483.400 C 314.700 483.500 314.800 483.400 314.700 483.400 H 311.800 C 311.745 483.400 311.700 483.445 311.700 483.500 V 489.500 C 311.700 489.555 311.745 489.600 311.800 489.600 H 314.700 C 314.800 489.600 314.700 489.500 314.700 489.600 V 499.500 C 314.700 499.555 314.745 499.600 314.800 499.600" stroke="rgb(0,0,0)" stroke-width="0.20" />
  <path d="M 494.300 422.525 H 498.775 C 498.875 422.525 498.775 422.425 498.775 422.525 V 425.475 C 498.775 425.575 498.875 425.475 498.775 425.475 H 489.825 C 489.725 425.475 489.825 425.575 489.825 425.475 V 422.525 C 489.825 422.425 489.725 422.525 489.825 422.525 H 494.300 Z" stroke="rgb(0,0,255)" stroke-width="0.20" />
  <path d="M 479.300 422.525 H 483.775 C 483.875 422.525 483.775 422.425 483.775 422.525 V 425.475 C 483.775 425.575 483.875 425.475 483.775 425.475 H 474.825 C 474.725 425.475 474.825 425.575 474.825 425.475 V 422.525 C 474.825 422.425 474.725 422.525 474.825 422.525 H 479.300 Z" stroke="rgb(0,0,255)" stroke-width="0.20" />
  <path d="M 464.300 422.525 H 468.775 C 468.875 422.525 468.775 422.425 468.775 422.525 V 425.475 C 468.775 425.575 468.875 425.475 468.775 425.475 H 459.825 C 459.725 425.475 459.825 425.575 459.825 425.475 V 422.525 C 459.825 422.425 459.725 422.525 459.825 422.525 H 464.300 Z" stroke="rgb(0,0,255)" stroke-width="0.20" />
  <path d="M 449.300 422.525 H 453.775 C 453.875 422.525 453.775 422.425 453.775 422.525 V 425.475 C 453.775 425.575 453.875 425.475 453.775 425.475 H 444.825 C 444.725 425.475 444.825 425.575 444.825 425.475 V 422.525 C 444.825 422.425 444.725 422.525 444.825 422.525 H 449.300 Z" stroke="rgb(0,0,255)" stroke-width="0.20" />
  <path d="M 434.300 422.525 H 438.775 C 438.875 422.525 438.775 422.425 438.775 422.525 V 425.475 C 438.775 425.575 438.875 425.475 438.775 425.475 H 429.825 C 429.725 425.475 429.825 425.575 429.825 425.475 V 422.525 C 429.825 422.425 429.725 422.525 429.825 422.525 H 434.300 Z" stroke="rgb(0,0,255)" stroke-width="0.20" />
  <path d="M 419.300 422.525 H 423.775 C 423.875 422.525 423.775 422.425 423.775 422.525 V 425.475 C 423.775 425.575 423.875 425.475 423.775 425.475 H 414.825 C 414.725 425.475 414.825 425.575 414.825 425.475 V 422.525 C 414.825 422.425 414.725 422.525 414.825 422.525 H 419.300 Z" stroke="rgb(0,0,255)" stroke-width="0.20" />
  <path d="M 404.300 422.525 H 408.775 C 408.875 422.525 408.775 422.425 408.775 422.525 V 425.475 C 408.775 425.575 408.875 425.475 408.775 425.475 H 399.825 C 399.725 425.475 399.825 425.575 399.825 425.475 V 422.525 C 399.825 422.425 399.725 422.525 399.825 422.525 H 404.300 Z" stroke="rgb(0,0,255)" stroke-width="0.20" />
  <path d="M 389.300 422.525 H 393.775 C 393.875 422.525 393.775 422.425 393.775 422.525 V 425.475 C 393.775 425.575 393.875 425.475 393.775 425.475 H 384.825 C 384.725 425.475 384.825 425.575 384.825 425.475 V 422.525 C 384.825 422.425 384.725 422.525 384.825 422.525 H 389.300 Z" stroke="rgb(0,0,255)" stroke-width="0.20" />
  <path d="M 374.300 422.525 H 378.775 C 378.875 422.525 378.775 422.425 378.775 422.525 V 425.475 C 378.775 425.575 378.875 425.475 378.775 425.475 H 369.825 C 369.725 425.475 369.825 425.575 369.825 425.475 V 422.525 C 369.825 422.425 369.725 422.525 369.825 422.525 H 374.300 Z" stroke="rgb(0,0,255)" stroke-width="0.20" />
  <path d="M 359.300 422.525 H 363.775 C 363.875 422.525 363.775 422.425 363.775 422.525 V 425.475 C 363.775 425.575 363.875 425.475 363.775 425.475 H 354.825 C 354.725 425.475 354.825 425.575 354.825 425.475 V 422.525 C 354.825 422.425 354.725 422.525 354.825 422.525 H 359.300 Z" stroke="rgb(0,0,255)" stroke-width="0.20" />
  <path d="M 344.300 422.525 H 348.775 C 348.875 422.525 348.775 422.425 348.775 422.525 V 425.475 C 348.775 425.575 348.875 425.475 348.775 425.475 H 339.825 C 339.725 425.475 339.825 425.575 339.825 425.475 V 422.525 C 339.825 422.425 339.725 422.525 339.825 422.525 H 344.300 Z" stroke="rgb(0,0,255)" stroke-width="0.20" />
  <path d="M 329.300 422.525 H 333.775 C 333.875 422.525 333.775 422.425 333.775 422.525 V 425.475 C 333.775 425.575 333.875 425.475 333.775 425.475 H 324.825 C 324.725 425.475 324.825 425.575 324.825 425.475 V 422.525 C 324.825 422.425 324.725 422.525 324.825 422.525 H 329.300 Z" stroke="rgb(0,0,255)" stroke-width="0.20" />
</g>
</svg>