<?xml version='1.0' encoding='us-ascii'?>
<svg height="336.80mm" viewBox="0.0 0.0 222.40 336.80" width="222.40mm" xmlns="http://www.w3.org/2000/svg" xmlns:cc="http://creativecommons.org/ns#" xmlns:dc="http://purl.org/dc/elements/1.1/" xmlns:inkscape="http://www.inkscape.org/namespaces/inkscape" xmlns:rdf="http://www.w3.org/1999/02/22-rdf-syntax-ns#" xmlns:svg="http://www.w3.org/2000/svg" xmlns:xlink="http://www.w3.org/1999/xlink">
<!--
ClosedBox - Fully closed box


This box is more of a building block than a finished item.
Use a vector graphics program (like Inkscape) to add holes or adjust the base
plate.

See BasedBox for variant with a base.


Created with Boxes.py (https://festi.info/boxes.py)
Creation date: 2021-09-09 15:10:36
Command line (remove spaces between dashes): boxes ClosedBox - -FingerJoint_angle=90.0 - -FingerJoint_style=rectangular - -FingerJoint_surroundingspaces=2.0 - -FingerJoint_edge_width=1.0 - -FingerJoint_finger=2.0 - -FingerJoint_play=0.0 - -FingerJoint_space=2.0 - -FingerJoint_width=1.0 - -x=100.0 - -y=100.0 - -h=100.0 - -outside=0 - -outside=1 - -thickness=4.0 - -format=svg - -tabs=0.0 - -debug=0 - -labels=0 - -labels=1 - -reference=100 - -burn=0.1
Url: http://www.festi.info/ClosedBox?FingerJoint_angle=90.0&FingerJoint_style=rectangular&FingerJoint_surroundingspaces=2.0&FingerJoint_edge_width=1.0&FingerJoint_finger=2.0&FingerJoint_play=0.0&FingerJoint_space=2.0&FingerJoint_width=1.0&x=100.0&y=100.0&h=100.0&outside=0&outside=1&thickness=4.0&format=svg&tabs=0.0&debug=0&labels=0&labels=1&reference=100&burn=0.1&render=1
SettingsUrl: http://www.festi.info/ClosedBox?FingerJoint_angle=90.0&FingerJoint_style=rectangular&FingerJoint_surroundingspaces=2.0&FingerJoint_edge_width=1.0&FingerJoint_finger=2.0&FingerJoint_play=0.0&FingerJoint_space=2.0&FingerJoint_width=1.0&x=100.0&y=100.0&h=100.0&outside=0&outside=1&thickness=4.0&format=svg&tabs=0.0&debug=0&labels=0&labels=1&reference=100&burn=0.1
-->
<title>ClosedBox</title>
<metadata>
<rdf:RDF><cc:Work>
<dc:title>Box - ClosedBox</dc:title>
<dc:date>2021-09-09 15:10:36</dc:date>
<dc:source>http://www.festi.info/ClosedBox?FingerJoint_angle=90.0&amp;FingerJoint_style=rectangular&amp;FingerJoint_surroundingspaces=2.0&amp;FingerJoint_edge_width=1.0&amp;FingerJoint_finger=2.0&amp;FingerJoint_play=0.0&amp;FingerJoint_space=2.0&amp;FingerJoint_width=1.0&amp;x=100.0&amp;y=100.0&amp;h=100.0&amp;outside=0&amp;outside=1&amp;thickness=4.0&amp;format=svg&amp;tabs=0.0&amp;debug=0&amp;labels=0&amp;labels=1&amp;reference=100&amp;burn=0.1&amp;render=1</dc:source>
<dc:description>Fully closed box

This box is more of a building block than a finished item.
Use a vector graphics program (like Inkscape) to add holes or adjust the base
plate.

See BasedBox for variant with a base.

Created with Boxes.py (https://festi.info/boxes.py)
Command line: boxes ClosedBox --FingerJoint_angle=90.0 --FingerJoint_style=rectangular --FingerJoint_surroundingspaces=2.0 --FingerJoint_edge_width=1.0 --FingerJoint_finger=2.0 --FingerJoint_play=0.0 --FingerJoint_space=2.0 --FingerJoint_width=1.0 --x=100.0 --y=100.0 --h=100.0 --outside=0 --outside=1 --thickness=4.0 --format=svg --tabs=0.0 --debug=0 --labels=0 --labels=1 --reference=100 --burn=0.1
Url: http://www.festi.info/ClosedBox?FingerJoint_angle=90.0&amp;FingerJoint_style=rectangular&amp;FingerJoint_surroundingspaces=2.0&amp;FingerJoint_edge_width=1.0&amp;FingerJoint_finger=2.0&amp;FingerJoint_play=0.0&amp;FingerJoint_space=2.0&amp;FingerJoint_width=1.0&amp;x=100.0&amp;y=100.0&amp;h=100.0&amp;outside=0&amp;outside=1&amp;thickness=4.0&amp;format=svg&amp;tabs=0.0&amp;debug=0&amp;labels=0&amp;labels=1&amp;reference=100&amp;burn=0.1&amp;render=1
SettingsUrl: http://www.festi.info/ClosedBox?FingerJoint_angle=90.0&amp;FingerJoint_style=rectangular&amp;FingerJoint_surroundingspaces=2.0&amp;FingerJoint_edge_width=1.0&amp;FingerJoint_finger=2.0&amp;FingerJoint_play=0.0&amp;FingerJoint_space=2.0&amp;FingerJoint_width=1.0&amp;x=100.0&amp;y=100.0&amp;h=100.0&amp;outside=0&amp;outside=1&amp;thickness=4.0&amp;format=svg&amp;tabs=0.0&amp;debug=0&amp;labels=0&amp;labels=1&amp;reference=100&amp;burn=0.1
</dc:description>
</cc:Work></rdf:RDF></metadata>
<g id="p-0" style="fill:none;stroke-linecap:round;stroke-linejoin:round;">
  <path d="M 10.100 326.800 H 110.100 V 316.800 H 10.100 V 326.800 Z" stroke="rgb(0,0,0)" stroke-width="0.20" />
  <text alignment-baseline="hanging" font-size="10px" style="font-family: sans-serif ; font-weight: normal; font-style: normal; fill: rgb(0,0,0)" text-anchor="middle" transform="matrix( 1.000 0.000 0.000 1.000 60.100 316.800 )">100mm</text><text alignment-baseline="hanging" font-size="4px" style="font-family: sans-serif ; font-weight: normal; font-style: normal; fill: rgb(255,0,0)" text-anchor="middle" transform="matrix( 1.000 0.000 0.000 1.000 15.100 319.800 )" />
</g>
<g id="p-1" style="fill:none;stroke-linecap:round;stroke-linejoin:round;">
  <text alignment-baseline="hanging" font-size="4px" style="font-family: sans-serif ; font-weight: normal; font-style: normal; fill: rgb(255,0,0)" text-anchor="middle" transform="matrix( 1.000 0.000 0.000 1.000 60.100 262.600 )">Wall 1</text><path d="M 14.100 314.600 H 24.100 C 24.155 314.600 24.200 314.555 24.200 314.500 V 310.600 C 24.200 310.500 24.100 310.600 24.200 310.600 H 32.000 C 32.100 310.600 32.000 310.500 32.000 310.600 V 314.500 C 32.000 314.555 32.045 314.600 32.100 314.600 H 40.100 C 40.155 314.600 40.200 314.555 40.200 314.500 V 310.600 C 40.200 310.500 40.100 310.600 40.200 310.600 H 48.000 C 48.100 310.600 48.000 310.500 48.000 310.600 V 314.500 C 48.000 314.555 48.045 314.600 48.100 314.600 H 56.100 C 56.155 314.600 56.200 314.555 56.200 314.500 V 310.600 C 56.200 310.500 56.100 310.600 56.200 310.600 H 64.000 C 64.100 310.600 64.000 310.500 64.000 310.600 V 314.500 C 64.000 314.555 64.045 314.600 64.100 314.600 H 72.100 C 72.155 314.600 72.200 314.555 72.200 314.500 V 310.600 C 72.200 310.500 72.100 310.600 72.200 310.600 H 80.000 C 80.100 310.600 80.000 310.500 80.000 310.600 V 314.500 C 80.000 314.555 80.045 314.600 80.100 314.600 H 88.100 C 88.155 314.600 88.200 314.555 88.200 314.500 V 310.600 C 88.200 310.500 88.100 310.600 88.200 310.600 H 96.000 C 96.100 310.600 96.000 310.500 96.000 310.600 V 314.500 C 96.000 314.555 96.045 314.600 96.100 314.600 H 106.100 H 110.100 C 110.155 314.600 110.200 314.555 110.200 314.500 V 310.500 V 300.500 C 110.200 300.445 110.155 300.400 110.100 300.400 H 106.200 C 106.100 300.400 106.200 300.500 106.200 300.400 V 292.600 C 106.200 292.500 106.100 292.600 106.200 292.600 H 110.100 C 110.155 292.600 110.200 292.555 110.200 292.500 V 284.500 C 110.200 284.445 110.155 284.400 110.100 284.400 H 106.200 C 106.100 284.400 106.200 284.500 106.200 284.400 V 276.600 C 106.200 276.500 106.100 276.600 106.200 276.600 H 110.100 C 110.155 276.600 110.200 276.555 110.200 276.500 V 268.500 C 110.200 268.445 110.155 268.400 110.100 268.400 H 106.200 C 106.100 268.400 106.200 268.500 106.200 268.400 V 260.600 C 106.200 260.500 106.100 260.600 106.200 260.600 H 110.100 C 110.155 260.600 110.200 260.555 110.200 260.500 V 252.500 C 110.200 252.445 110.155 252.400 110.100 252.400 H 106.200 C 106.100 252.400 106.200 252.500 106.200 252.400 V 244.600 C 106.200 244.500 106.100 244.600 106.200 244.600 H 110.100 C 110.155 244.600 110.200 244.555 110.200 244.500 V 236.500 C 110.200 236.445 110.155 236.400 110.100 236.400 H 106.200 C 106.100 236.400 106.200 236.500 106.200 236.400 V 228.600 C 106.200 228.500 106.100 228.600 106.200 228.600 H 110.100 C 110.155 228.600 110.200 228.555 110.200 228.500 V 218.500 V 214.500 C 110.200 214.445 110.155 214.400 110.100 214.400 H 106.100 H 96.100 C 96.045 214.400 96.000 214.445 96.000 214.500 V 218.400 C 96.000 218.500 96.100 218.400 96.000 218.400 H 88.200 C 88.100 218.400 88.200 218.500 88.200 218.400 V 214.500 C 88.200 214.445 88.155 214.400 88.100 214.400 H 80.100 C 80.045 214.400 80.000 214.445 80.000 214.500 V 218.400 C 80.000 218.500 80.100 218.400 80.000 218.400 H 72.200 C 72.100 218.400 72.200 218.500 72.200 218.400 V 214.500 C 72.200 214.445 72.155 214.400 72.100 214.400 H 64.100 C 64.045 214.400 64.000 214.445 64.000 214.500 V 218.400 C 64.000 218.500 64.100 218.400 64.000 218.400 H 56.200 C 56.100 218.400 56.200 218.500 56.200 218.400 V 214.500 C 56.200 214.445 56.155 214.400 56.100 214.400 H 48.100 C 48.045 214.400 48.000 214.445 48.000 214.500 V 218.400 C 48.000 218.500 48.100 218.400 48.000 218.400 H 40.200 C 40.100 218.400 40.200 218.500 40.200 218.400 V 214.500 C 40.200 214.445 40.155 214.400 40.100 214.400 H 32.100 C 32.045 214.400 32.000 214.445 32.000 214.500 V 218.400 C 32.000 218.500 32.100 218.400 32.000 218.400 H 24.200 C 24.100 218.400 24.200 218.500 24.200 218.400 V 214.500 C 24.200 214.445 24.155 214.400 24.100 214.400 H 14.100 H 10.100 C 10.045 214.400 10.000 214.445 10.000 214.500 V 218.500 V 228.500 C 10.000 228.555 10.045 228.600 10.100 228.600 H 14.000 C 14.100 228.600 14.000 228.500 14.000 228.600 V 236.400 C 14.000 236.500 14.100 236.400 14.000 236.400 H 10.100 C 10.045 236.400 10.000 236.445 10.000 236.500 V 244.500 C 10.000 244.555 10.045 244.600 10.100 244.600 H 14.000 C 14.100 244.600 14.000 244.500 14.000 244.600 V 252.400 C 14.000 252.500 14.100 252.400 14.000 252.400 H 10.100 C 10.045 252.400 10.000 252.445 10.000 252.500 V 260.500 C 10.000 260.555 10.045 260.600 10.100 260.600 H 14.000 C 14.100 260.600 14.000 260.500 14.000 260.600 V 268.400 C 14.000 268.500 14.100 268.400 14.000 268.400 H 10.100 C 10.045 268.400 10.000 268.445 10.000 268.500 V 276.500 C 10.000 276.555 10.045 276.600 10.100 276.600 H 14.000 C 14.100 276.600 14.000 276.500 14.000 276.600 V 284.400 C 14.000 284.500 14.100 284.400 14.000 284.400 H 10.100 C 10.045 284.400 10.000 284.445 10.000 284.500 V 292.500 C 10.000 292.555 10.045 292.600 10.100 292.600 H 14.000 C 14.100 292.600 14.000 292.500 14.000 292.600 V 300.400 C 14.000 300.500 14.100 300.400 14.000 300.400 H 10.100 C 10.045 300.400 10.000 300.445 10.000 300.500 V 310.500 V 314.500 C 10.000 314.555 10.045 314.600 10.100 314.600 H 14.100" stroke="rgb(0,0,0)" stroke-width="0.20" />
</g>
<g id="p-2" style="fill:none;stroke-linecap:round;stroke-linejoin:round;">
  <text alignment-baseline="hanging" font-size="4px" style="font-family: sans-serif ; font-weight: normal; font-style: normal; fill: rgb(255,0,0)" text-anchor="middle" transform="matrix( 1.000 0.000 0.000 1.000 162.300 262.600 )">Wall 2</text><path d="M 116.300 314.600 H 126.300 C 126.355 314.600 126.400 314.555 126.400 314.500 V 310.600 C 126.400 310.500 126.300 310.600 126.400 310.600 H 134.200 C 134.300 310.600 134.200 310.500 134.200 310.600 V 314.500 C 134.200 314.555 134.245 314.600 134.300 314.600 H 142.300 C 142.355 314.600 142.400 314.555 142.400 314.500 V 310.600 C 142.400 310.500 142.300 310.600 142.400 310.600 H 150.200 C 150.300 310.600 150.200 310.500 150.200 310.600 V 314.500 C 150.200 314.555 150.245 314.600 150.300 314.600 H 158.300 C 158.355 314.600 158.400 314.555 158.400 314.500 V 310.600 C 158.400 310.500 158.300 310.600 158.400 310.600 H 166.200 C 166.300 310.600 166.200 310.500 166.200 310.600 V 314.500 C 166.200 314.555 166.245 314.600 166.300 314.600 H 174.300 C 174.355 314.600 174.400 314.555 174.400 314.500 V 310.600 C 174.400 310.500 174.300 310.600 174.400 310.600 H 182.200 C 182.300 310.600 182.200 310.500 182.200 310.600 V 314.500 C 182.200 314.555 182.245 314.600 182.300 314.600 H 190.300 C 190.355 314.600 190.400 314.555 190.400 314.500 V 310.600 C 190.400 310.500 190.300 310.600 190.400 310.600 H 198.200 C 198.300 310.600 198.200 310.500 198.200 310.600 V 314.500 C 198.200 314.555 198.245 314.600 198.300 314.600 H 208.300 C 208.355 314.600 208.400 314.555 208.400 314.500 V 310.500 V 300.600 C 208.400 300.500 208.300 300.600 208.400 300.600 H 212.300 C 212.355 300.600 212.400 300.555 212.400 300.500 V 292.500 C 212.400 292.445 212.355 292.400 212.300 292.400 H 208.400 C 208.300 292.400 208.400 292.500 208.400 292.400 V 284.600 C 208.400 284.500 208.300 284.600 208.400 284.600 H 212.300 C 212.355 284.600 212.400 284.555 212.400 284.500 V 276.500 C 212.400 276.445 212.355 276.400 212.300 276.400 H 208.400 C 208.300 276.400 208.400 276.500 208.400 276.400 V 268.600 C 208.400 268.500 208.300 268.600 208.400 268.600 H 212.300 C 212.355 268.600 212.400 268.555 212.400 268.500 V 260.500 C 212.400 260.445 212.355 260.400 212.300 260.400 H 208.400 C 208.300 260.400 208.400 260.500 208.400 260.400 V 252.600 C 208.400 252.500 208.300 252.600 208.400 252.600 H 212.300 C 212.355 252.600 212.400 252.555 212.400 252.500 V 244.500 C 212.400 244.445 212.355 244.400 212.300 244.400 H 208.400 C 208.300 244.400 208.400 244.500 208.400 244.400 V 236.600 C 208.400 236.500 208.300 236.600 208.400 236.600 H 212.300 C 212.355 236.600 212.400 236.555 212.400 236.500 V 228.500 C 212.400 228.445 212.355 228.400 212.300 228.400 H 208.400 C 208.300 228.400 208.400 228.500 208.400 228.400 V 218.500 V 214.500 C 208.400 214.445 208.355 214.400 208.300 214.400 H 198.300 C 198.245 214.400 198.200 214.445 198.200 214.500 V 218.400 C 198.200 218.500 198.300 218.400 198.200 218.400 H 190.400 C 190.300 218.400 190.400 218.500 190.400 218.400 V 214.500 C 190.400 214.445 190.355 214.400 190.300 214.400 H 182.300 C 182.245 214.400 182.200 214.445 182.200 214.500 V 218.400 C 182.200 218.500 182.300 218.400 182.200 218.400 H 174.400 C 174.300 218.400 174.400 218.500 174.400 218.400 V 214.500 C 174.400 214.445 174.355 214.400 174.300 214.400 H 166.300 C 166.245 214.400 166.200 214.445 166.200 214.500 V 218.400 C 166.200 218.500 166.300 218.400 166.200 218.400 H 158.400 C 158.300 218.400 158.400 218.500 158.400 218.400 V 214.500 C 158.400 214.445 158.355 214.400 158.300 214.400 H 150.300 C 150.245 214.400 150.200 214.445 150.200 214.500 V 218.400 C 150.200 218.500 150.300 218.400 150.200 218.400 H 142.400 C 142.300 218.400 142.400 218.500 142.400 218.400 V 214.500 C 142.400 214.445 142.355 214.400 142.300 214.400 H 134.300 C 134.245 214.400 134.200 214.445 134.200 214.500 V 218.400 C 134.200 218.500 134.300 218.400 134.200 218.400 H 126.400 C 126.300 218.400 126.400 218.500 126.400 218.400 V 214.500 C 126.400 214.445 126.355 214.400 126.300 214.400 H 116.300 C 116.245 214.400 116.200 214.445 116.200 214.500 V 218.500 V 228.400 C 116.200 228.500 116.300 228.400 116.200 228.400 H 112.300 C 112.245 228.400 112.200 228.445 112.200 228.500 V 236.500 C 112.200 236.555 112.245 236.600 112.300 236.600 H 116.200 C 116.300 236.600 116.200 236.500 116.200 236.600 V 244.400 C 116.200 244.500 116.300 244.400 116.200 244.400 H 112.300 C 112.245 244.400 112.200 244.445 112.200 244.500 V 252.500 C 112.200 252.555 112.245 252.600 112.300 252.600 H 116.200 C 116.300 252.600 116.200 252.500 116.200 252.600 V 260.400 C 116.200 260.500 116.300 260.400 116.200 260.400 H 112.300 C 112.245 260.400 112.200 260.445 112.200 260.500 V 268.500 C 112.200 268.555 112.245 268.600 112.300 268.600 H 116.200 C 116.300 268.600 116.200 268.500 116.200 268.600 V 276.400 C 116.200 276.500 116.300 276.400 116.200 276.400 H 112.300 C 112.245 276.400 112.200 276.445 112.200 276.500 V 284.500 C 112.200 284.555 112.245 284.600 112.300 284.600 H 116.200 C 116.300 284.600 116.200 284.500 116.200 284.600 V 292.400 C 116.200 292.500 116.300 292.400 116.200 292.400 H 112.300 C 112.245 292.400 112.200 292.445 112.200 292.500 V 300.500 C 112.200 300.555 112.245 300.600 112.300 300.600 H 116.200 C 116.300 300.600 116.200 300.500 116.200 300.600 V 310.500 V 314.500 C 116.200 314.555 116.245 314.600 116.300 314.600" stroke="rgb(0,0,0)" stroke-width="0.20" />
</g>
<g id="p-3" style="fill:none;stroke-linecap:round;stroke-linejoin:round;">
  <text alignment-baseline="hanging" font-size="4px" style="font-family: sans-serif ; font-weight: normal; font-style: normal; fill: rgb(255,0,0)" text-anchor="middle" transform="matrix( 1.000 0.000 0.000 1.000 162.300 160.400 )">Wall 4</text><path d="M 116.300 212.400 H 126.300 C 126.355 212.400 126.400 212.355 126.400 212.300 V 208.400 C 126.400 208.300 126.300 208.400 126.400 208.400 H 134.200 C 134.300 208.400 134.200 208.300 134.200 208.400 V 212.300 C 134.200 212.355 134.245 212.400 134.300 212.400 H 142.300 C 142.355 212.400 142.400 212.355 142.400 212.300 V 208.400 C 142.400 208.300 142.300 208.400 142.400 208.400 H 150.200 C 150.300 208.400 150.200 208.300 150.200 208.400 V 212.300 C 150.200 212.355 150.245 212.400 150.300 212.400 H 158.300 C 158.355 212.400 158.400 212.355 158.400 212.300 V 208.400 C 158.400 208.300 158.300 208.400 158.400 208.400 H 166.200 C 166.300 208.400 166.200 208.300 166.200 208.400 V 212.300 C 166.200 212.355 166.245 212.400 166.300 212.400 H 174.300 C 174.355 212.400 174.400 212.355 174.400 212.300 V 208.400 C 174.400 208.300 174.300 208.400 174.400 208.400 H 182.200 C 182.300 208.400 182.200 208.300 182.200 208.400 V 212.300 C 182.200 212.355 182.245 212.400 182.300 212.400 H 190.300 C 190.355 212.400 190.400 212.355 190.400 212.300 V 208.400 C 190.400 208.300 190.300 208.400 190.400 208.400 H 198.200 C 198.300 208.400 198.200 208.300 198.200 208.400 V 212.300 C 198.200 212.355 198.245 212.400 198.300 212.400 H 208.300 C 208.355 212.400 208.400 212.355 208.400 212.300 V 208.300 V 198.400 C 208.400 198.300 208.300 198.400 208.400 198.400 H 212.300 C 212.355 198.400 212.400 198.355 212.400 198.300 V 190.300 C 212.400 190.245 212.355 190.200 212.300 190.200 H 208.400 C 208.300 190.200 208.400 190.300 208.400 190.200 V 182.400 C 208.400 182.300 208.300 182.400 208.400 182.400 H 212.300 C 212.355 182.400 212.400 182.355 212.400 182.300 V 174.300 C 212.400 174.245 212.355 174.200 212.300 174.200 H 208.400 C 208.300 174.200 208.400 174.300 208.400 174.200 V 166.400 C 208.400 166.300 208.300 166.400 208.400 166.400 H 212.300 C 212.355 166.400 212.400 166.355 212.400 166.300 V 158.300 C 212.400 158.245 212.355 158.200 212.300 158.200 H 208.400 C 208.300 158.200 208.400 158.300 208.400 158.200 V 150.400 C 208.400 150.300 208.300 150.400 208.400 150.400 H 212.300 C 212.355 150.400 212.400 150.355 212.400 150.300 V 142.300 C 212.400 142.245 212.355 142.200 212.300 142.200 H 208.400 C 208.300 142.200 208.400 142.300 208.400 142.200 V 134.400 C 208.400 134.300 208.300 134.400 208.400 134.400 H 212.300 C 212.355 134.400 212.400 134.355 212.400 134.300 V 126.300 C 212.400 126.245 212.355 126.200 212.300 126.200 H 208.400 C 208.300 126.200 208.400 126.300 208.400 126.200 V 116.300 V 112.300 C 208.400 112.245 208.355 112.200 208.300 112.200 H 198.300 C 198.245 112.200 198.200 112.245 198.200 112.300 V 116.200 C 198.200 116.300 198.300 116.200 198.200 116.200 H 190.400 C 190.300 116.200 190.400 116.300 190.400 116.200 V 112.300 C 190.400 112.245 190.355 112.200 190.300 112.200 H 182.300 C 182.245 112.200 182.200 112.245 182.200 112.300 V 116.200 C 182.200 116.300 182.300 116.200 182.200 116.200 H 174.400 C 174.300 116.200 174.400 116.300 174.400 116.200 V 112.300 C 174.400 112.245 174.355 112.200 174.300 112.200 H 166.300 C 166.245 112.200 166.200 112.245 166.200 112.300 V 116.200 C 166.200 116.300 166.300 116.200 166.200 116.200 H 158.400 C 158.300 116.200 158.400 116.300 158.400 116.200 V 112.300 C 158.400 112.245 158.355 112.200 158.300 112.200 H 150.300 C 150.245 112.200 150.200 112.245 150.200 112.300 V 116.200 C 150.200 116.300 150.300 116.200 150.200 116.200 H 142.400 C 142.300 116.200 142.400 116.300 142.400 116.200 V 112.300 C 142.400 112.245 142.355 112.200 142.300 112.200 H 134.300 C 134.245 112.200 134.200 112.245 134.200 112.300 V 116.200 C 134.200 116.300 134.300 116.200 134.200 116.200 H 126.400 C 126.300 116.200 126.400 116.300 126.400 116.200 V 112.300 C 126.400 112.245 126.355 112.200 126.300 112.200 H 116.300 C 116.245 112.200 116.200 112.245 116.200 112.300 V 116.300 V 126.200 C 116.200 126.300 116.300 126.200 116.200 126.200 H 112.300 C 112.245 126.200 112.200 126.245 112.200 126.300 V 134.300 C 112.200 134.355 112.245 134.400 112.300 134.400 H 116.200 C 116.300 134.400 116.200 134.300 116.200 134.400 V 142.200 C 116.200 142.300 116.300 142.200 116.200 142.200 H 112.300 C 112.245 142.200 112.200 142.245 112.200 142.300 V 150.300 C 112.200 150.355 112.245 150.400 112.300 150.400 H 116.200 C 116.300 150.400 116.200 150.300 116.200 150.400 V 158.200 C 116.200 158.300 116.300 158.200 116.200 158.200 H 112.300 C 112.245 158.200 112.200 158.245 112.200 158.300 V 166.300 C 112.200 166.355 112.245 166.400 112.300 166.400 H 116.200 C 116.300 166.400 116.200 166.300 116.200 166.400 V 174.200 C 116.200 174.300 116.300 174.200 116.200 174.200 H 112.300 C 112.245 174.200 112.200 174.245 112.200 174.300 V 182.300 C 112.200 182.355 112.245 182.400 112.300 182.400 H 116.200 C 116.300 182.400 116.200 182.300 116.200 182.400 V 190.200 C 116.200 190.300 116.300 190.200 116.200 190.200 H 112.300 C 112.245 190.200 112.200 190.245 112.200 190.300 V 198.300 C 112.200 198.355 112.245 198.400 112.300 198.400 H 116.200 C 116.300 198.400 116.200 198.300 116.200 198.400 V 208.300 V 212.300 C 116.200 212.355 116.245 212.400 116.300 212.400" stroke="rgb(0,0,0)" stroke-width="0.20" />
</g>
<g id="p-4" style="fill:none;stroke-linecap:round;stroke-linejoin:round;">
  <text alignment-baseline="hanging" font-size="4px" style="font-family: sans-serif ; font-weight: normal; font-style: normal; fill: rgb(255,0,0)" text-anchor="middle" transform="matrix( 1.000 0.000 0.000 1.000 60.100 160.400 )">Wall 3</text><path d="M 14.100 212.400 H 24.100 C 24.155 212.400 24.200 212.355 24.200 212.300 V 208.400 C 24.200 208.300 24.100 208.400 24.200 208.400 H 32.000 C 32.100 208.400 32.000 208.300 32.000 208.400 V 212.300 C 32.000 212.355 32.045 212.400 32.100 212.400 H 40.100 C 40.155 212.400 40.200 212.355 40.200 212.300 V 208.400 C 40.200 208.300 40.100 208.400 40.200 208.400 H 48.000 C 48.100 208.400 48.000 208.300 48.000 208.400 V 212.300 C 48.000 212.355 48.045 212.400 48.100 212.400 H 56.100 C 56.155 212.400 56.200 212.355 56.200 212.300 V 208.400 C 56.200 208.300 56.100 208.400 56.200 208.400 H 64.000 C 64.100 208.400 64.000 208.300 64.000 208.400 V 212.300 C 64.000 212.355 64.045 212.400 64.100 212.400 H 72.100 C 72.155 212.400 72.200 212.355 72.200 212.300 V 208.400 C 72.200 208.300 72.100 208.400 72.200 208.400 H 80.000 C 80.100 208.400 80.000 208.300 80.000 208.400 V 212.300 C 80.000 212.355 80.045 212.400 80.100 212.400 H 88.100 C 88.155 212.400 88.200 212.355 88.200 212.300 V 208.400 C 88.200 208.300 88.100 208.400 88.200 208.400 H 96.000 C 96.100 208.400 96.000 208.300 96.000 208.400 V 212.300 C 96.000 212.355 96.045 212.400 96.100 212.400 H 106.100 H 110.100 C 110.155 212.400 110.200 212.355 110.200 212.300 V 208.300 V 198.300 C 110.200 198.245 110.155 198.200 110.100 198.200 H 106.200 C 106.100 198.200 106.200 198.300 106.200 198.200 V 190.400 C 106.200 190.300 106.100 190.400 106.200 190.400 H 110.100 C 110.155 190.400 110.200 190.355 110.200 190.300 V 182.300 C 110.200 182.245 110.155 182.200 110.100 182.200 H 106.200 C 106.100 182.200 106.200 182.300 106.200 182.200 V 174.400 C 106.200 174.300 106.100 174.400 106.200 174.400 H 110.100 C 110.155 174.400 110.200 174.355 110.200 174.300 V 166.300 C 110.200 166.245 110.155 166.200 110.100 166.200 H 106.200 C 106.100 166.200 106.200 166.300 106.200 166.200 V 158.400 C 106.200 158.300 106.100 158.400 106.200 158.400 H 110.100 C 110.155 158.400 110.200 158.355 110.200 158.300 V 150.300 C 110.200 150.245 110.155 150.200 110.100 150.200 H 106.200 C 106.100 150.200 106.200 150.300 106.200 150.200 V 142.400 C 106.200 142.300 106.100 142.400 106.200 142.400 H 110.100 C 110.155 142.400 110.200 142.355 110.200 142.300 V 134.300 C 110.200 134.245 110.155 134.200 110.100 134.200 H 106.200 C 106.100 134.200 106.200 134.300 106.200 134.200 V 126.400 C 106.200 126.300 106.100 126.400 106.200 126.400 H 110.100 C 110.155 126.400 110.200 126.355 110.200 126.300 V 116.300 V 112.300 C 110.200 112.245 110.155 112.200 110.100 112.200 H 106.100 H 96.100 C 96.045 112.200 96.000 112.245 96.000 112.300 V 116.200 C 96.000 116.300 96.100 116.200 96.000 116.200 H 88.200 C 88.100 116.200 88.200 116.300 88.200 116.200 V 112.300 C 88.200 112.245 88.155 112.200 88.100 112.200 H 80.100 C 80.045 112.200 80.000 112.245 80.000 112.300 V 116.200 C 80.000 116.300 80.100 116.200 80.000 116.200 H 72.200 C 72.100 116.200 72.200 116.300 72.200 116.200 V 112.300 C 72.200 112.245 72.155 112.200 72.100 112.200 H 64.100 C 64.045 112.200 64.000 112.245 64.000 112.300 V 116.200 C 64.000 116.300 64.100 116.200 64.000 116.200 H 56.200 C 56.100 116.200 56.200 116.300 56.200 116.200 V 112.300 C 56.200 112.245 56.155 112.200 56.100 112.200 H 48.100 C 48.045 112.200 48.000 112.245 48.000 112.300 V 116.200 C 48.000 116.300 48.100 116.200 48.000 116.200 H 40.200 C 40.100 116.200 40.200 116.300 40.200 116.200 V 112.300 C 40.200 112.245 40.155 112.200 40.100 112.200 H 32.100 C 32.045 112.200 32.000 112.245 32.000 112.300 V 116.200 C 32.000 116.300 32.100 116.200 32.000 116.200 H 24.200 C 24.100 116.200 24.200 116.300 24.200 116.200 V 112.300 C 24.200 112.245 24.155 112.200 24.100 112.200 H 14.100 H 10.100 C 10.045 112.200 10.000 112.245 10.000 112.300 V 116.300 V 126.300 C 10.000 126.355 10.045 126.400 10.100 126.400 H 14.000 C 14.100 126.400 14.000 126.300 14.000 126.400 V 134.200 C 14.000 134.300 14.100 134.200 14.000 134.200 H 10.100 C 10.045 134.200 10.000 134.245 10.000 134.300 V 142.300 C 10.000 142.355 10.045 142.400 10.100 142.400 H 14.000 C 14.100 142.400 14.000 142.300 14.000 142.400 V 150.200 C 14.000 150.300 14.100 150.200 14.000 150.200 H 10.100 C 10.045 150.200 10.000 150.245 10.000 150.300 V 158.300 C 10.000 158.355 10.045 158.400 10.100 158.400 H 14.000 C 14.100 158.400 14.000 158.300 14.000 158.400 V 166.200 C 14.000 166.300 14.100 166.200 14.000 166.200 H 10.100 C 10.045 166.200 10.000 166.245 10.000 166.300 V 174.300 C 10.000 174.355 10.045 174.400 10.100 174.400 H 14.000 C 14.100 174.400 14.000 174.300 14.000 174.400 V 182.200 C 14.000 182.300 14.100 182.200 14.000 182.200 H 10.100 C 10.045 182.200 10.000 182.245 10.000 182.300 V 190.300 C 10.000 190.355 10.045 190.400 10.100 190.400 H 14.000 C 14.100 190.400 14.000 190.300 14.000 190.400 V 198.200 C 14.000 198.300 14.100 198.200 14.000 198.200 H 10.100 C 10.045 198.200 10.000 198.245 10.000 198.300 V 208.300 V 212.300 C 10.000 212.355 10.045 212.400 10.100 212.400 H 14.100" stroke="rgb(0,0,0)" stroke-width="0.20" />
</g>
<g id="p-5" style="fill:none;stroke-linecap:round;stroke-linejoin:round;">
  <text alignment-baseline="hanging" font-size="4px" style="font-family: sans-serif ; font-weight: normal; font-style: normal; fill: rgb(255,0,0)" text-anchor="middle" transform="matrix( 1.000 0.000 0.000 1.000 60.100 58.200 )">Top</text><path d="M 14.100 106.200 H 24.000 C 24.100 106.200 24.000 106.100 24.000 106.200 V 110.100 C 24.000 110.155 24.045 110.200 24.100 110.200 H 32.100 C 32.155 110.200 32.200 110.155 32.200 110.100 V 106.200 C 32.200 106.100 32.100 106.200 32.200 106.200 H 40.000 C 40.100 106.200 40.000 106.100 40.000 106.200 V 110.100 C 40.000 110.155 40.045 110.200 40.100 110.200 H 48.100 C 48.155 110.200 48.200 110.155 48.200 110.100 V 106.200 C 48.200 106.100 48.100 106.200 48.200 106.200 H 56.000 C 56.100 106.200 56.000 106.100 56.000 106.200 V 110.100 C 56.000 110.155 56.045 110.200 56.100 110.200 H 64.100 C 64.155 110.200 64.200 110.155 64.200 110.100 V 106.200 C 64.200 106.100 64.100 106.200 64.200 106.200 H 72.000 C 72.100 106.200 72.000 106.100 72.000 106.200 V 110.100 C 72.000 110.155 72.045 110.200 72.100 110.200 H 80.100 C 80.155 110.200 80.200 110.155 80.200 110.100 V 106.200 C 80.200 106.100 80.100 106.200 80.200 106.200 H 88.000 C 88.100 106.200 88.000 106.100 88.000 106.200 V 110.100 C 88.000 110.155 88.045 110.200 88.100 110.200 H 96.100 C 96.155 110.200 96.200 110.155 96.200 110.100 V 106.200 C 96.200 106.100 96.100 106.200 96.200 106.200 H 106.100 C 106.155 106.200 106.200 106.155 106.200 106.100 V 96.200 C 106.200 96.100 106.100 96.200 106.200 96.200 H 110.100 C 110.155 96.200 110.200 96.155 110.200 96.100 V 88.100 C 110.200 88.045 110.155 88.000 110.100 88.000 H 106.200 C 106.100 88.000 106.200 88.100 106.200 88.000 V 80.200 C 106.200 80.100 106.100 80.200 106.200 80.200 H 110.100 C 110.155 80.200 110.200 80.155 110.200 80.100 V 72.100 C 110.200 72.045 110.155 72.000 110.100 72.000 H 106.200 C 106.100 72.000 106.200 72.100 106.200 72.000 V 64.200 C 106.200 64.100 106.100 64.200 106.200 64.200 H 110.100 C 110.155 64.200 110.200 64.155 110.200 64.100 V 56.100 C 110.200 56.045 110.155 56.000 110.100 56.000 H 106.200 C 106.100 56.000 106.200 56.100 106.200 56.000 V 48.200 C 106.200 48.100 106.100 48.200 106.200 48.200 H 110.100 C 110.155 48.200 110.200 48.155 110.200 48.100 V 40.100 C 110.200 40.045 110.155 40.000 110.100 40.000 H 106.200 C 106.100 40.000 106.200 40.100 106.200 40.000 V 32.200 C 106.200 32.100 106.100 32.200 106.200 32.200 H 110.100 C 110.155 32.200 110.200 32.155 110.200 32.100 V 24.100 C 110.200 24.045 110.155 24.000 110.100 24.000 H 106.200 C 106.100 24.000 106.200 24.100 106.200 24.000 V 14.100 C 106.200 14.045 106.155 14.000 106.100 14.000 H 96.200 C 96.100 14.000 96.200 14.100 96.200 14.000 V 10.100 C 96.200 10.045 96.155 10.000 96.100 10.000 H 88.100 C 88.045 10.000 88.000 10.045 88.000 10.100 V 14.000 C 88.000 14.100 88.100 14.000 88.000 14.000 H 80.200 C 80.100 14.000 80.200 14.100 80.200 14.000 V 10.100 C 80.200 10.045 80.155 10.000 80.100 10.000 H 72.100 C 72.045 10.000 72.000 10.045 72.000 10.100 V 14.000 C 72.000 14.100 72.100 14.000 72.000 14.000 H 64.200 C 64.100 14.000 64.200 14.100 64.200 14.000 V 10.100 C 64.200 10.045 64.155 10.000 64.100 10.000 H 56.100 C 56.045 10.000 56.000 10.045 56.000 10.100 V 14.000 C 56.000 14.100 56.100 14.000 56.000 14.000 H 48.200 C 48.100 14.000 48.200 14.100 48.200 14.000 V 10.100 C 48.200 10.045 48.155 10.000 48.100 10.000 H 40.100 C 40.045 10.000 40.000 10.045 40.000 10.100 V 14.000 C 40.000 14.100 40.100 14.000 40.000 14.000 H 32.200 C 32.100 14.000 32.200 14.100 32.200 14.000 V 10.100 C 32.200 10.045 32.155 10.000 32.100 10.000 H 24.100 C 24.045 10.000 24.000 10.045 24.000 10.100 V 14.000 C 24.000 14.100 24.100 14.000 24.000 14.000 H 14.100 C 14.045 14.000 14.000 14.045 14.000 14.100 V 24.000 C 14.000 24.100 14.100 24.000 14.000 24.000 H 10.100 C 10.045 24.000 10.000 24.045 10.000 24.100 V 32.100 C 10.000 32.155 10.045 32.200 10.100 32.200 H 14.000 C 14.100 32.200 14.000 32.100 14.000 32.200 V 40.000 C 14.000 40.100 14.100 40.000 14.000 40.000 H 10.100 C 10.045 40.000 10.000 40.045 10.000 40.100 V 48.100 C 10.000 48.155 10.045 48.200 10.100 48.200 H 14.000 C 14.100 48.200 14.000 48.100 14.000 48.200 V 56.000 C 14.000 56.100 14.100 56.000 14.000 56.000 H 10.100 C 10.045 56.000 10.000 56.045 10.000 56.100 V 64.100 C 10.000 64.155 10.045 64.200 10.100 64.200 H 14.000 C 14.100 64.200 14.000 64.100 14.000 64.200 V 72.000 C 14.000 72.100 14.100 72.000 14.000 72.000 H 10.100 C 10.045 72.000 10.000 72.045 10.000 72.100 V 80.100 C 10.000 80.155 10.045 80.200 10.100 80.200 H 14.000 C 14.100 80.200 14.000 80.100 14.000 80.200 V 88.000 C 14.000 88.100 14.100 88.000 14.000 88.000 H 10.100 C 10.045 88.000 10.000 88.045 10.000 88.100 V 96.100 C 10.000 96.155 10.045 96.200 10.100 96.200 H 14.000 C 14.100 96.200 14.000 96.100 14.000 96.200 V 106.100 C 14.000 106.155 14.045 106.200 14.100 106.200" stroke="rgb(0,0,0)" stroke-width="0.20" />
</g>
<g id="p-6" style="fill:none;stroke-linecap:round;stroke-linejoin:round;">
  <text alignment-baseline="hanging" font-size="4px" style="font-family: sans-serif ; font-weight: normal; font-style: normal; fill: rgb(255,0,0)" text-anchor="middle" transform="matrix( 1.000 0.000 0.000 1.000 162.300 58.200 )">Bottom</text><path d="M 116.300 106.200 H 126.200 C 126.300 106.200 126.200 106.100 126.200 106.200 V 110.100 C 126.200 110.155 126.245 110.200 126.300 110.200 H 134.300 C 134.355 110.200 134.400 110.155 134.400 110.100 V 106.200 C 134.400 106.100 134.300 106.200 134.400 106.200 H 142.200 C 142.300 106.200 142.200 106.100 142.200 106.200 V 110.100 C 142.200 110.155 142.245 110.200 142.300 110.200 H 150.300 C 150.355 110.200 150.400 110.155 150.400 110.100 V 106.200 C 150.400 106.100 150.300 106.200 150.400 106.200 H 158.200 C 158.300 106.200 158.200 106.100 158.200 106.200 V 110.100 C 158.200 110.155 158.245 110.200 158.300 110.200 H 166.300 C 166.355 110.200 166.400 110.155 166.400 110.100 V 106.200 C 166.400 106.100 166.300 106.200 166.400 106.200 H 174.200 C 174.300 106.200 174.200 106.100 174.200 106.200 V 110.100 C 174.200 110.155 174.245 110.200 174.300 110.200 H 182.300 C 182.355 110.200 182.400 110.155 182.400 110.100 V 106.200 C 182.400 106.100 182.300 106.200 182.400 106.200 H 190.200 C 190.300 106.200 190.200 106.100 190.200 106.200 V 110.100 C 190.200 110.155 190.245 110.200 190.300 110.200 H 198.300 C 198.355 110.200 198.400 110.155 198.400 110.100 V 106.200 C 198.400 106.100 198.300 106.200 198.400 106.200 H 208.300 C 208.355 106.200 208.400 106.155 208.400 106.100 V 96.200 C 208.400 96.100 208.300 96.200 208.400 96.200 H 212.300 C 212.355 96.200 212.400 96.155 212.400 96.100 V 88.100 C 212.400 88.045 212.355 88.000 212.300 88.000 H 208.400 C 208.300 88.000 208.400 88.100 208.400 88.000 V 80.200 C 208.400 80.100 208.300 80.200 208.400 80.200 H 212.300 C 212.355 80.200 212.400 80.155 212.400 80.100 V 72.100 C 212.400 72.045 212.355 72.000 212.300 72.000 H 208.400 C 208.300 72.000 208.400 72.100 208.400 72.000 V 64.200 C 208.400 64.100 208.300 64.200 208.400 64.200 H 212.300 C 212.355 64.200 212.400 64.155 212.400 64.100 V 56.100 C 212.400 56.045 212.355 56.000 212.300 56.000 H 208.400 C 208.300 56.000 208.400 56.100 208.400 56.000 V 48.200 C 208.400 48.100 208.300 48.200 208.400 48.200 H 212.300 C 212.355 48.200 212.400 48.155 212.400 48.100 V 40.100 C 212.400 40.045 212.355 40.000 212.300 40.000 H 208.400 C 208.300 40.000 208.400 40.100 208.400 40.000 V 32.200 C 208.400 32.100 208.300 32.200 208.400 32.200 H 212.300 C 212.355 32.200 212.400 32.155 212.400 32.100 V 24.100 C 212.400 24.045 212.355 24.000 212.300 24.000 H 208.400 C 208.300 24.000 208.400 24.100 208.400 24.000 V 14.100 C 208.400 14.045 208.355 14.000 208.300 14.000 H 198.400 C 198.300 14.000 198.400 14.100 198.400 14.000 V 10.100 C 198.400 10.045 198.355 10.000 198.300 10.000 H 190.300 C 190.245 10.000 190.200 10.045 190.200 10.100 V 14.000 C 190.200 14.100 190.300 14.000 190.200 14.000 H 182.400 C 182.300 14.000 182.400 14.100 182.400 14.000 V 10.100 C 182.400 10.045 182.355 10.000 182.300 10.000 H 174.300 C 174.245 10.000 174.200 10.045 174.200 10.100 V 14.000 C 174.200 14.100 174.300 14.000 174.200 14.000 H 166.400 C 166.300 14.000 166.400 14.100 166.400 14.000 V 10.100 C 166.400 10.045 166.355 10.000 166.300 10.000 H 158.300 C 158.245 10.000 158.200 10.045 158.200 10.100 V 14.000 C 158.200 14.100 158.300 14.000 158.200 14.000 H 150.400 C 150.300 14.000 150.400 14.100 150.400 14.000 V 10.100 C 150.400 10.045 150.355 10.000 150.300 10.000 H 142.300 C 142.245 10.000 142.200 10.045 142.200 10.100 V 14.000 C 142.200 14.100 142.300 14.000 142.200 14.000 H 134.400 C 134.300 14.000 134.400 14.100 134.400 14.000 V 10.100 C 134.400 10.045 134.355 10.000 134.300 10.000 H 126.300 C 126.245 10.000 126.200 10.045 126.200 10.100 V 14.000 C 126.200 14.100 126.300 14.000 126.200 14.000 H 116.300 C 116.245 14.000 116.200 14.045 116.200 14.100 V 24.000 C 116.200 24.100 116.300 24.000 116.200 24.000 H 112.300 C 112.245 24.000 112.200 24.045 112.200 24.100 V 32.100 C 112.200 32.155 112.245 32.200 112.300 32.200 H 116.200 C 116.300 32.200 116.200 32.100 116.200 32.200 V 40.000 C 116.200 40.100 116.300 40.000 116.200 40.000 H 112.300 C 112.245 40.000 112.200 40.045 112.200 40.100 V 48.100 C 112.200 48.155 112.245 48.200 112.300 48.200 H 116.200 C 116.300 48.200 116.200 48.100 116.200 48.200 V 56.000 C 116.200 56.100 116.300 56.000 116.200 56.000 H 112.300 C 112.245 56.000 112.200 56.045 112.200 56.100 V 64.100 C 112.200 64.155 112.245 64.200 112.300 64.200 H 116.200 C 116.300 64.200 116.200 64.100 116.200 64.200 V 72.000 C 116.200 72.100 116.300 72.000 116.200 72.000 H 112.300 C 112.245 72.000 112.200 72.045 112.200 72.100 V 80.100 C 112.200 80.155 112.245 80.200 112.300 80.200 H 116.200 C 116.300 80.200 116.200 80.100 116.200 80.200 V 88.000 C 116.200 88.100 116.300 88.000 116.200 88.000 H 112.300 C 112.245 88.000 112.200 88.045 112.200 88.100 V 96.100 C 112.200 96.155 112.245 96.200 112.300 96.200 H 116.200 C 116.300 96.200 116.200 96.100 116.200 96.200 V 106.100 C 116.200 106.155 116.245 106.200 116.300 106.200" stroke="rgb(0,0,0)" stroke-width="0.20" />
</g>
</svg>