<?xml version='1.0' encoding='us-ascii'?>
<svg height="271.80mm" viewBox="0.0 0.0 135.40 271.80" width="135.40mm" xmlns="http://www.w3.org/2000/svg" xmlns:cc="http://creativecommons.org/ns#" xmlns:dc="http://purl.org/dc/elements/1.1/" xmlns:inkscape="http://www.inkscape.org/namespaces/inkscape" xmlns:rdf="http://www.w3.org/1999/02/22-rdf-syntax-ns#" xmlns:svg="http://www.w3.org/2000/svg" xmlns:xlink="http://www.w3.org/1999/xlink">
<!--
BasedBox - Fully closed box on a base


This box is more of a building block than a finished item.
Use a vector graphics program (like Inkscape) to add holes or adjust the base
plate. The width of the "brim" can also be adjusted with the **edge_width**
 parameter in the **Finger Joints Settings**.
 
See ClosedBox for variant without a base.



Created with Boxes.py (https://festi.info/boxes.py)
Creation date: 2021-09-12 14:55:36
Command line (remove spaces between dashes): boxes BasedBox - -FingerJoint_angle=90.0 - -FingerJoint_style=rectangular - -FingerJoint_surroundingspaces=2.0 - -FingerJoint_edge_width=1.0 - -FingerJoint_finger=2.0 - -FingerJoint_play=0.0 - -FingerJoint_space=2.0 - -FingerJoint_width=1.0 - -x=50.0 - -y=40.0 - -h=90.0 - -outside=0 - -outside=1 - -thickness=6.0 - -format=svg - -tabs=0.0 - -debug=0 - -labels=0 - -labels=1 - -reference=100 - -burn=0.1
Url: http://www.festi.info/BasedBox?FingerJoint_angle=90.0&FingerJoint_style=rectangular&FingerJoint_surroundingspaces=2.0&FingerJoint_edge_width=1.0&FingerJoint_finger=2.0&FingerJoint_play=0.0&FingerJoint_space=2.0&FingerJoint_width=1.0&x=50.0&y=40.0&h=90.0&outside=0&outside=1&thickness=6.0&format=svg&tabs=0.0&debug=0&labels=0&labels=1&reference=100&burn=0.1&render=1
SettingsUrl: http://www.festi.info/BasedBox?FingerJoint_angle=90.0&FingerJoint_style=rectangular&FingerJoint_surroundingspaces=2.0&FingerJoint_edge_width=1.0&FingerJoint_finger=2.0&FingerJoint_play=0.0&FingerJoint_space=2.0&FingerJoint_width=1.0&x=50.0&y=40.0&h=90.0&outside=0&outside=1&thickness=6.0&format=svg&tabs=0.0&debug=0&labels=0&labels=1&reference=100&burn=0.1
-->
<title>BasedBox</title>
<metadata>
<rdf:RDF><cc:Work>
<dc:title>Box - BasedBox</dc:title>
<dc:date>2021-09-12 14:55:36</dc:date>
<dc:source>http://www.festi.info/BasedBox?FingerJoint_angle=90.0&amp;FingerJoint_style=rectangular&amp;FingerJoint_surroundingspaces=2.0&amp;FingerJoint_edge_width=1.0&amp;FingerJoint_finger=2.0&amp;FingerJoint_play=0.0&amp;FingerJoint_space=2.0&amp;FingerJoint_width=1.0&amp;x=50.0&amp;y=40.0&amp;h=90.0&amp;outside=0&amp;outside=1&amp;thickness=6.0&amp;format=svg&amp;tabs=0.0&amp;debug=0&amp;labels=0&amp;labels=1&amp;reference=100&amp;burn=0.1&amp;render=1</dc:source>
<dc:description>Fully closed box on a base

This box is more of a building block than a finished item.
Use a vector graphics program (like Inkscape) to add holes or adjust the base
plate. The width of the "brim" can also be adjusted with the **edge_width**
 parameter in the **Finger Joints Settings**.
 
See ClosedBox for variant without a base.


Created with Boxes.py (https://festi.info/boxes.py)
Command line: boxes BasedBox --FingerJoint_angle=90.0 --FingerJoint_style=rectangular --FingerJoint_surroundingspaces=2.0 --FingerJoint_edge_width=1.0 --FingerJoint_finger=2.0 --FingerJoint_play=0.0 --FingerJoint_space=2.0 --FingerJoint_width=1.0 --x=50.0 --y=40.0 --h=90.0 --outside=0 --outside=1 --thickness=6.0 --format=svg --tabs=0.0 --debug=0 --labels=0 --labels=1 --reference=100 --burn=0.1
Url: http://www.festi.info/BasedBox?FingerJoint_angle=90.0&amp;FingerJoint_style=rectangular&amp;FingerJoint_surroundingspaces=2.0&amp;FingerJoint_edge_width=1.0&amp;FingerJoint_finger=2.0&amp;FingerJoint_play=0.0&amp;FingerJoint_space=2.0&amp;FingerJoint_width=1.0&amp;x=50.0&amp;y=40.0&amp;h=90.0&amp;outside=0&amp;outside=1&amp;thickness=6.0&amp;format=svg&amp;tabs=0.0&amp;debug=0&amp;labels=0&amp;labels=1&amp;reference=100&amp;burn=0.1&amp;render=1
SettingsUrl: http://www.festi.info/BasedBox?FingerJoint_angle=90.0&amp;FingerJoint_style=rectangular&amp;FingerJoint_surroundingspaces=2.0&amp;FingerJoint_edge_width=1.0&amp;FingerJoint_finger=2.0&amp;FingerJoint_play=0.0&amp;FingerJoint_space=2.0&amp;FingerJoint_width=1.0&amp;x=50.0&amp;y=40.0&amp;h=90.0&amp;outside=0&amp;outside=1&amp;thickness=6.0&amp;format=svg&amp;tabs=0.0&amp;debug=0&amp;labels=0&amp;labels=1&amp;reference=100&amp;burn=0.1
</dc:description>
</cc:Work></rdf:RDF></metadata>
<g id="p-0" style="fill:none;stroke-linecap:round;stroke-linejoin:round;">
  <path d="M 10.100 261.800 H 110.100 V 251.800 H 10.100 V 261.800 Z" stroke="rgb(0,0,0)" stroke-width="0.20" />
  <text alignment-baseline="hanging" font-size="10px" style="font-family: sans-serif ; font-weight: normal; font-style: normal; fill: rgb(0,0,0)" text-anchor="middle" transform="matrix( 1.000 0.000 0.000 1.000 60.100 251.800 )">100mm</text><text alignment-baseline="hanging" font-size="4px" style="font-family: sans-serif ; font-weight: normal; font-style: normal; fill: rgb(255,0,0)" text-anchor="middle" transform="matrix( 1.000 0.000 0.000 1.000 15.100 254.800 )" />
</g>
<g id="p-1" style="fill:none;stroke-linecap:round;stroke-linejoin:round;">
  <text alignment-baseline="hanging" font-size="4px" style="font-family: sans-serif ; font-weight: normal; font-style: normal; fill: rgb(255,0,0)" text-anchor="middle" transform="matrix( 1.000 0.000 0.000 1.000 35.100 201.600 )">Wall 1</text><path d="M 16.100 242.600 H 29.000 C 29.100 242.600 29.000 242.500 29.000 242.600 V 248.500 C 29.000 248.555 29.045 248.600 29.100 248.600 H 41.100 C 41.155 248.600 41.200 248.555 41.200 248.500 V 242.600 C 41.200 242.500 41.100 242.600 41.200 242.600 H 54.100 H 60.100 C 60.155 242.600 60.200 242.555 60.200 242.500 V 221.500 C 60.200 221.445 60.155 221.400 60.100 221.400 H 54.200 C 54.100 221.400 54.200 221.500 54.200 221.400 V 209.600 C 54.200 209.500 54.100 209.600 54.200 209.600 H 60.100 C 60.155 209.600 60.200 209.555 60.200 209.500 V 197.500 C 60.200 197.445 60.155 197.400 60.100 197.400 H 54.200 C 54.100 197.400 54.200 197.500 54.200 197.400 V 185.600 C 54.200 185.500 54.100 185.600 54.200 185.600 H 60.100 C 60.155 185.600 60.200 185.555 60.200 185.500 V 164.500 V 158.500 C 60.200 158.445 60.155 158.400 60.100 158.400 H 54.100 H 41.100 C 41.045 158.400 41.000 158.445 41.000 158.500 V 164.400 C 41.000 164.500 41.100 164.400 41.000 164.400 H 29.200 C 29.100 164.400 29.200 164.500 29.200 164.400 V 158.500 C 29.200 158.445 29.155 158.400 29.100 158.400 H 16.100 H 10.100 C 10.045 158.400 10.000 158.445 10.000 158.500 V 164.500 V 185.500 C 10.000 185.555 10.045 185.600 10.100 185.600 H 16.000 C 16.100 185.600 16.000 185.500 16.000 185.600 V 197.400 C 16.000 197.500 16.100 197.400 16.000 197.400 H 10.100 C 10.045 197.400 10.000 197.445 10.000 197.500 V 209.500 C 10.000 209.555 10.045 209.600 10.100 209.600 H 16.000 C 16.100 209.600 16.000 209.500 16.000 209.600 V 221.400 C 16.000 221.500 16.100 221.400 16.000 221.400 H 10.100 C 10.045 221.400 10.000 221.445 10.000 221.500 V 242.500 C 10.000 242.555 10.045 242.600 10.100 242.600 H 16.100" stroke="rgb(0,0,0)" stroke-width="0.20" />
</g>
<g id="p-2" style="fill:none;stroke-linecap:round;stroke-linejoin:round;">
  <text alignment-baseline="hanging" font-size="4px" style="font-family: sans-serif ; font-weight: normal; font-style: normal; fill: rgb(255,0,0)" text-anchor="middle" transform="matrix( 1.000 0.000 0.000 1.000 83.300 201.600 )">Wall 2</text><path d="M 69.300 242.600 H 83.300 H 97.300 C 97.355 242.600 97.400 242.555 97.400 242.500 V 221.600 C 97.400 221.500 97.300 221.600 97.400 221.600 H 103.300 C 103.355 221.600 103.400 221.555 103.400 221.500 V 209.500 C 103.400 209.445 103.355 209.400 103.300 209.400 H 97.400 C 97.300 209.400 97.400 209.500 97.400 209.400 V 197.600 C 97.400 197.500 97.300 197.600 97.400 197.600 H 103.300 C 103.355 197.600 103.400 197.555 103.400 197.500 V 185.500 C 103.400 185.445 103.355 185.400 103.300 185.400 H 97.400 C 97.300 185.400 97.400 185.500 97.400 185.400 V 164.500 V 158.500 C 97.400 158.445 97.355 158.400 97.300 158.400 H 83.300 H 69.300 C 69.245 158.400 69.200 158.445 69.200 158.500 V 164.500 V 185.400 C 69.200 185.500 69.300 185.400 69.200 185.400 H 63.300 C 63.245 185.400 63.200 185.445 63.200 185.500 V 197.500 C 63.200 197.555 63.245 197.600 63.300 197.600 H 69.200 C 69.300 197.600 69.200 197.500 69.200 197.600 V 209.400 C 69.200 209.500 69.300 209.400 69.200 209.400 H 63.300 C 63.245 209.400 63.200 209.445 63.200 209.500 V 221.500 C 63.200 221.555 63.245 221.600 63.300 221.600 H 69.200 C 69.300 221.600 69.200 221.500 69.200 221.600 V 242.500 C 69.200 242.555 69.245 242.600 69.300 242.600" stroke="rgb(0,0,0)" stroke-width="0.20" />
</g>
<g id="p-3" style="fill:none;stroke-linecap:round;stroke-linejoin:round;">
  <text alignment-baseline="hanging" font-size="4px" style="font-family: sans-serif ; font-weight: normal; font-style: normal; fill: rgb(255,0,0)" text-anchor="middle" transform="matrix( 1.000 0.000 0.000 1.000 83.300 108.400 )">Wall 4</text><path d="M 69.300 149.400 H 83.300 H 97.300 C 97.355 149.400 97.400 149.355 97.400 149.300 V 128.400 C 97.400 128.300 97.300 128.400 97.400 128.400 H 103.300 C 103.355 128.400 103.400 128.355 103.400 128.300 V 116.300 C 103.400 116.245 103.355 116.200 103.300 116.200 H 97.400 C 97.300 116.200 97.400 116.300 97.400 116.200 V 104.400 C 97.400 104.300 97.300 104.400 97.400 104.400 H 103.300 C 103.355 104.400 103.400 104.355 103.400 104.300 V 92.300 C 103.400 92.245 103.355 92.200 103.300 92.200 H 97.400 C 97.300 92.200 97.400 92.300 97.400 92.200 V 71.300 V 65.300 C 97.400 65.245 97.355 65.200 97.300 65.200 H 83.300 H 69.300 C 69.245 65.200 69.200 65.245 69.200 65.300 V 71.300 V 92.200 C 69.200 92.300 69.300 92.200 69.200 92.200 H 63.300 C 63.245 92.200 63.200 92.245 63.200 92.300 V 104.300 C 63.200 104.355 63.245 104.400 63.300 104.400 H 69.200 C 69.300 104.400 69.200 104.300 69.200 104.400 V 116.200 C 69.200 116.300 69.300 116.200 69.200 116.200 H 63.300 C 63.245 116.200 63.200 116.245 63.200 116.300 V 128.300 C 63.200 128.355 63.245 128.400 63.300 128.400 H 69.200 C 69.300 128.400 69.200 128.300 69.200 128.400 V 149.300 C 69.200 149.355 69.245 149.400 69.300 149.400" stroke="rgb(0,0,0)" stroke-width="0.20" />
</g>
<g id="p-4" style="fill:none;stroke-linecap:round;stroke-linejoin:round;">
  <text alignment-baseline="hanging" font-size="4px" style="font-family: sans-serif ; font-weight: normal; font-style: normal; fill: rgb(255,0,0)" text-anchor="middle" transform="matrix( 1.000 0.000 0.000 1.000 35.100 108.400 )">Wall 3</text><path d="M 16.100 149.400 H 29.000 C 29.100 149.400 29.000 149.300 29.000 149.400 V 155.300 C 29.000 155.355 29.045 155.400 29.100 155.400 H 41.100 C 41.155 155.400 41.200 155.355 41.200 155.300 V 149.400 C 41.200 149.300 41.100 149.400 41.200 149.400 H 54.100 H 60.100 C 60.155 149.400 60.200 149.355 60.200 149.300 V 128.300 C 60.200 128.245 60.155 128.200 60.100 128.200 H 54.200 C 54.100 128.200 54.200 128.300 54.200 128.200 V 116.400 C 54.200 116.300 54.100 116.400 54.200 116.400 H 60.100 C 60.155 116.400 60.200 116.355 60.200 116.300 V 104.300 C 60.200 104.245 60.155 104.200 60.100 104.200 H 54.200 C 54.100 104.200 54.200 104.300 54.200 104.200 V 92.400 C 54.200 92.300 54.100 92.400 54.200 92.400 H 60.100 C 60.155 92.400 60.200 92.355 60.200 92.300 V 71.300 V 65.300 C 60.200 65.245 60.155 65.200 60.100 65.200 H 54.100 H 41.100 C 41.045 65.200 41.000 65.245 41.000 65.300 V 71.200 C 41.000 71.300 41.100 71.200 41.000 71.200 H 29.200 C 29.100 71.200 29.200 71.300 29.200 71.200 V 65.300 C 29.200 65.245 29.155 65.200 29.100 65.200 H 16.100 H 10.100 C 10.045 65.200 10.000 65.245 10.000 65.300 V 71.300 V 92.300 C 10.000 92.355 10.045 92.400 10.100 92.400 H 16.000 C 16.100 92.400 16.000 92.300 16.000 92.400 V 104.200 C 16.000 104.300 16.100 104.200 16.000 104.200 H 10.100 C 10.045 104.200 10.000 104.245 10.000 104.300 V 116.300 C 10.000 116.355 10.045 116.400 10.100 116.400 H 16.000 C 16.100 116.400 16.000 116.300 16.000 116.400 V 128.200 C 16.000 128.300 16.100 128.200 16.000 128.200 H 10.100 C 10.045 128.200 10.000 128.245 10.000 128.300 V 149.300 C 10.000 149.355 10.045 149.400 10.100 149.400 H 16.100" stroke="rgb(0,0,0)" stroke-width="0.20" />
</g>
<g id="p-5" style="fill:none;stroke-linecap:round;stroke-linejoin:round;">
  <text alignment-baseline="hanging" font-size="4px" style="font-family: sans-serif ; font-weight: normal; font-style: normal; fill: rgb(255,0,0)" text-anchor="middle" transform="matrix( 1.000 0.000 0.000 1.000 35.100 40.200 )">Top</text><path d="M 16.100 56.200 H 29.000 C 29.100 56.200 29.000 56.100 29.000 56.200 V 62.100 C 29.000 62.155 29.045 62.200 29.100 62.200 H 41.100 C 41.155 62.200 41.200 62.155 41.200 62.100 V 56.200 C 41.200 56.100 41.100 56.200 41.200 56.200 H 54.100 C 54.155 56.200 54.200 56.155 54.200 56.100 V 42.100 V 28.100 C 54.200 28.045 54.155 28.000 54.100 28.000 H 41.200 C 41.100 28.000 41.200 28.100 41.200 28.000 V 22.100 C 41.200 22.045 41.155 22.000 41.100 22.000 H 29.100 C 29.045 22.000 29.000 22.045 29.000 22.100 V 28.000 C 29.000 28.100 29.100 28.000 29.000 28.000 H 16.100 C 16.045 28.000 16.000 28.045 16.000 28.100 V 42.100 V 56.100 C 16.000 56.155 16.045 56.200 16.100 56.200" stroke="rgb(0,0,0)" stroke-width="0.20" />
</g>
<g id="p-6" style="fill:none;stroke-linecap:round;stroke-linejoin:round;">
  <path d="M 94.300 56.000 H 88.400 C 88.300 56.000 88.400 56.100 88.400 56.000 V 50.200 C 88.400 50.100 88.300 50.200 88.400 50.200 H 100.200 C 100.300 50.200 100.200 50.100 100.200 50.200 V 56.000 C 100.200 56.100 100.300 56.000 100.200 56.000 H 94.300 Z" stroke="rgb(0,0,255)" stroke-width="0.20" />
  <text alignment-baseline="hanging" font-size="4px" style="font-family: sans-serif ; font-weight: normal; font-style: normal; fill: rgb(255,0,0)" text-anchor="middle" transform="matrix( 1.000 0.000 0.000 1.000 94.300 34.200 )">Base</text><path d="M 75.300 62.200 H 113.300 H 125.300 C 125.355 62.200 125.400 62.155 125.400 62.100 V 50.100 V 22.100 V 10.100 C 125.400 10.045 125.355 10.000 125.300 10.000 H 113.300 H 75.300 H 63.300 C 63.245 10.000 63.200 10.045 63.200 10.100 V 22.100 V 50.100 V 62.100 C 63.200 62.155 63.245 62.200 63.300 62.200 H 75.300" stroke="rgb(0,0,0)" stroke-width="0.20" />
  <path d="M 94.300 16.200 H 100.200 C 100.300 16.200 100.200 16.100 100.200 16.200 V 22.000 C 100.200 22.100 100.300 22.000 100.200 22.000 H 88.400 C 88.300 22.000 88.400 22.100 88.400 22.000 V 16.200 C 88.400 16.100 88.300 16.200 88.400 16.200 H 94.300 Z" stroke="rgb(0,0,255)" stroke-width="0.20" />
</g>
</svg>